<svg xmlns="http://www.w3.org/2000/svg" xmlns:xlink="http://www.w3.org/1999/xlink" viewBox="0 0 4800 2700"><defs><style>.cls-1,.cls-19,.cls-20,.cls-21,.cls-22,.cls-45,.cls-46,.cls-53{fill:none;}.cls-2{isolation:isolate;}.cls-3{fill:#1f398d;}.cls-4{fill:#1651d9;}.cls-23,.cls-5{fill:#d6e8ff;}.cls-6{clip-path:url(#clip-path);}.cls-7{fill:#e29674;}.cls-8{fill:#1b42a6;}.cls-9{fill:#1f398e;}.cls-10{fill:#bbd8f9;}.cls-11{fill:#edf4ff;}.cls-12{fill:#fff;}.cls-13{opacity:0.82;}.cls-14{fill:#bad7f8;}.cls-15,.cls-56{fill:#4180e1;}.cls-15,.cls-16{opacity:0.65;}.cls-16,.cls-55{fill:#64a2ec;}.cls-17,.cls-24{fill:#c9c9c9;}.cls-17{opacity:0.5;}.cls-18{fill:#232323;}.cls-19,.cls-20,.cls-21,.cls-22,.cls-46,.cls-53{stroke:#d6e8ff;}.cls-19,.cls-45,.cls-46,.cls-53{stroke-miterlimit:10;}.cls-19,.cls-20,.cls-21,.cls-22{stroke-width:19px;}.cls-20,.cls-21,.cls-22{stroke-linecap:round;stroke-linejoin:round;}.cls-20{stroke-dasharray:39.95 39.95;}.cls-22{stroke-dasharray:40;}.cls-23{font-size:93.56px;font-family:OpenSans-SemiBold, Open Sans;font-weight:600;}.cls-25{fill:#323232;}.cls-26{fill:#efefef;}.cls-27{fill:#aae1f4;}.cls-28{fill:#6e6153;}.cls-29{fill:#342d27;}.cls-30{fill:#504442;}.cls-31{fill:#fff5be;}.cls-32{fill:#ffe48f;}.cls-33{fill:#f5bf1c;}.cls-34{clip-path:url(#clip-path-2);}.cls-35{clip-path:url(#clip-path-3);}.cls-36{clip-path:url(#clip-path-4);}.cls-37{clip-path:url(#clip-path-5);}.cls-38{clip-path:url(#clip-path-6);}.cls-39{clip-path:url(#clip-path-7);}.cls-40{clip-path:url(#clip-path-8);}.cls-41{clip-path:url(#clip-path-9);}.cls-42{clip-path:url(#clip-path-10);}.cls-43{clip-path:url(#clip-path-11);}.cls-44{clip-path:url(#clip-path-12);}.cls-45{stroke:#1651d9;stroke-width:7px;}.cls-46{stroke-width:4px;}.cls-47{clip-path:url(#clip-path-13);}.cls-48{clip-path:url(#clip-path-14);}.cls-49{clip-path:url(#clip-path-15);}.cls-50{clip-path:url(#clip-path-16);}.cls-51{clip-path:url(#clip-path-17);}.cls-52{clip-path:url(#clip-path-18);}.cls-53{stroke-width:3px;}.cls-54{fill:#131317;}.cls-54,.cls-85{mix-blend-mode:screen;}.cls-57{fill:#292929;}.cls-58{fill:#333;}.cls-59{fill:#2e2f35;}.cls-60{fill:#1f2024;}.cls-61{fill:#3d3c51;}.cls-62{fill:#626082;}.cls-63{fill:#2664e3;}.cls-64{fill:#4255ba;}.cls-65{fill:#ccdff2;}.cls-66{fill:#9bacbf;}.cls-67{fill:#232429;}.cls-68{fill:#393843;}.cls-69{fill:#2d2c37;}.cls-70{fill:#504f58;}.cls-71{fill:#bababe;}.cls-72{fill:url(#linear-gradient);}.cls-73{fill:url(#linear-gradient-2);}.cls-74{fill:url(#linear-gradient-3);}.cls-75{fill:url(#linear-gradient-4);}.cls-76{fill:url(#linear-gradient-5);}.cls-77{fill:#dfdfe3;}.cls-78{fill:#4b4a4b;}.cls-79{fill:url(#linear-gradient-6);}.cls-80{fill:url(#linear-gradient-7);}.cls-81{fill:url(#linear-gradient-8);}.cls-82{fill:url(#linear-gradient-9);}.cls-83{fill:url(#linear-gradient-10);}.cls-84{fill:#f7fbff;}.cls-85{fill:#565e66;}.cls-86{fill:#e94546;}.cls-87{fill:#ffbe98;}.cls-88{fill:#fcccb4;}.cls-89{fill:#0e766d;}.cls-90{fill:#11b6a2;}.cls-91{fill:#125d58;}</style><clipPath id="clip-path"><rect class="cls-1" width="4800" height="2700"/></clipPath><clipPath id="clip-path-2"><polygon class="cls-1" points="3416.09 369.9 3425.76 346.55 3513.74 397.88 3504.07 421.24 3416.09 369.9"/></clipPath><clipPath id="clip-path-3"><polygon class="cls-1" points="3396.11 452.04 3409.69 419.27 3455.28 445.87 3441.7 478.64 3396.11 452.04"/></clipPath><clipPath id="clip-path-4"><polygon class="cls-1" points="3473.98 497.12 3487.55 464.36 3532.7 490.71 3519.13 523.47 3473.98 497.12"/></clipPath><clipPath id="clip-path-5"><polygon class="cls-1" points="3559.61 546.95 3573.19 514.14 3670.2 570.75 3656.61 603.55 3559.61 546.95"/></clipPath><clipPath id="clip-path-6"><polygon class="cls-1" points="3678.31 617.18 3691.9 584.37 3756.05 621.8 3742.46 654.61 3678.31 617.18"/></clipPath><clipPath id="clip-path-7"><polygon class="cls-1" points="3484.79 183.9 3494.6 160.22 3569.42 203.88 3559.61 227.55 3484.79 183.9"/></clipPath><clipPath id="clip-path-8"><polygon class="cls-1" points="3558.38 317.17 3574.67 277.84 3818.03 419.84 3801.74 459.16 3558.38 317.17"/></clipPath><clipPath id="clip-path-9"><polygon class="cls-1" points="3365.97 685.34 3384.32 641.05 3613.81 774.96 3595.46 819.24 3365.97 685.34"/></clipPath><clipPath id="clip-path-10"><polygon class="cls-1" points="3825.84 925.53 3858.18 847.47 4061.84 966.3 4029.5 1044.36 3825.84 925.53"/></clipPath><clipPath id="clip-path-11"><polygon class="cls-1" points="4057.4 1087.85 4137.18 895.25 4533.44 1126.45 4453.65 1319.05 4057.4 1087.85"/></clipPath><clipPath id="clip-path-12"><polygon class="cls-1" points="3688.24 524.94 3697.92 501.58 3790.09 555.35 3780.41 578.71 3688.24 524.94"/></clipPath><clipPath id="clip-path-13"><polygon class="cls-1" points="4602.56 402.1 4617.28 366.56 4696.46 412.76 4681.73 448.3 4602.56 402.1"/></clipPath><clipPath id="clip-path-14"><polygon class="cls-1" points="4021.45 652.31 4036.18 616.77 4115.35 662.97 4100.63 698.51 4021.45 652.31"/></clipPath><clipPath id="clip-path-15"><polygon class="cls-1" points="4367.78 513.03 4377.8 488.86 4392.16 497.24 4382.15 521.41 4367.78 513.03"/></clipPath><clipPath id="clip-path-16"><polygon class="cls-1" points="4203.29 650.04 4212.82 627.03 4226.93 635.26 4217.4 658.27 4203.29 650.04"/></clipPath><clipPath id="clip-path-17"><polygon class="cls-1" points="4564.09 673.17 4574.27 648.61 4589.86 657.71 4579.69 682.27 4564.09 673.17"/></clipPath><clipPath id="clip-path-18"><polygon class="cls-1" points="4324.19 749.96 4331.26 732.9 4346.56 741.82 4339.49 758.89 4324.19 749.96"/></clipPath><linearGradient id="linear-gradient" x1="1236.3" y1="1779" x2="1259.23" y2="1739.28" gradientTransform="translate(193.74)" gradientUnits="userSpaceOnUse"><stop offset="0.27" stop-color="#eceef7"/><stop offset="0.77" stop-color="#9c9aa8"/></linearGradient><linearGradient id="linear-gradient-2" x1="1248.09" y1="1766.39" x2="1236.78" y2="1746.8" gradientTransform="translate(193.74)" gradientUnits="userSpaceOnUse"><stop offset="0.26" stop-color="#393843"/><stop offset="0.78" stop-color="#23222e"/></linearGradient><linearGradient id="linear-gradient-3" x1="1246.35" y1="1751.88" x2="1237.26" y2="1754.49" gradientTransform="translate(193.74)" gradientUnits="userSpaceOnUse"><stop offset="0" stop-color="#adaeb8"/><stop offset="0.08" stop-color="#babcc5"/><stop offset="0.2" stop-color="#c9cbd4"/><stop offset="0.34" stop-color="#d2d4dc"/><stop offset="0.55" stop-color="#d5d7df"/><stop offset="0.66" stop-color="#c0c1ca"/><stop offset="1" stop-color="#868490"/></linearGradient><linearGradient id="linear-gradient-4" x1="1242.12" y1="1769.1" x2="1234.77" y2="1766.13" xlink:href="#linear-gradient-3"/><linearGradient id="linear-gradient-5" x1="1254.58" y1="1754.11" x2="1250.34" y2="1746.75" xlink:href="#linear-gradient-3"/><linearGradient id="linear-gradient-6" x1="1074.92" y1="1872.17" x2="1097.85" y2="1832.45" xlink:href="#linear-gradient"/><linearGradient id="linear-gradient-7" x1="1086.72" y1="1859.57" x2="1075.4" y2="1839.97" xlink:href="#linear-gradient-2"/><linearGradient id="linear-gradient-8" x1="1084.98" y1="1845.05" x2="1075.89" y2="1847.66" xlink:href="#linear-gradient-3"/><linearGradient id="linear-gradient-9" x1="1080.75" y1="1862.27" x2="1073.4" y2="1859.3" xlink:href="#linear-gradient-3"/><linearGradient id="linear-gradient-10" x1="1093.2" y1="1847.28" x2="1088.96" y2="1839.92" xlink:href="#linear-gradient-3"/></defs><g class="cls-2"><g id="Layer_4" data-name="Layer 4"><rect class="cls-3" width="4800" height="2700"/><polygon class="cls-4" points="1638.79 0 3047.38 813.21 3371.89 626.57 2281.17 0 1638.79 0"/><polygon points="1638.79 0 1476.4 0 2967.47 861.47 3047.38 813.21 1638.79 0"/><polygon class="cls-5" points="3410.5 416.06 3208.49 533.13 2281.17 0 2690.45 0.28 3410.5 416.06"/><polygon class="cls-5" points="2690.45 0 4800 1218.4 4800 0 2690.45 0"/><g class="cls-6"><path class="cls-7" d="M2051.85,146.56l37.62,242.68q7.44,48,17.51,95.59L2283.57,1319l-315.93,149.07-354.2-914.41,134.21-509Z"/><path class="cls-8" d="M2175.3-645.48c2.11,111.61,1.6,292.33-17.78,431.52-20.73,149-19.11,324.83-16.06,420.35a98.19,98.19,0,0,1-68.95,96.84,837.5,837.5,0,0,1-112.8,26.94C1839.9,349.93,1685,346.32,1568,241.51a98.59,98.59,0,0,1-32.41-63.76l-76-776a98.2,98.2,0,0,1,91-107.53l371.69-25.55,148.1-10.17A98.18,98.18,0,0,1,2175.3-645.48Z"/><path d="M1922.28-731.37l37.43,1061.54C1839.9,349.93,1685,346.32,1568,241.51a98.59,98.59,0,0,1-32.41-63.76l-76-776a98.2,98.2,0,0,1,91-107.53Z"/><path d="M137.51,1566.15S18,2356.62,79.3,2699.77H1862.45s-128.68-864-306.39-1580.94Z"/><path class="cls-8" d="M1848.15,234.4c-130.72,531.07-40.85,1070.3-40.85,1070.3s-506.56,313.53-871.15,328.85c-15.21.64-177.79,54.76-193,55.15-349.72,9-548.43-432-548.43-432s24.51-444.26-30.64-680.17S56.83-232.32,56.83-232.32L559-264.9,1840-494.79S1885.64,82.1,1848.15,234.4Z"/><path d="M875.89,1731.6c-343.44,157.77-738.38-165.45-738.38-165.45S162,787.94,106.87,552-.36-256.83-.36-256.83l502.12-32.58c7.3,167.44,15.53,483.76-15,666.8-42.9,257.36-67.41,444.25,55.15,542.29C622.4,984.05,795.64,1617,875.89,1731.6Z"/><path d="M2300.57-57.68,2986,338.53a82.67,82.67,0,0,0,81.76.56L3578.19,34.23l-410.55-242Z"/><path class="cls-9" d="M3310,143.43l-.08-30c0,9.87-6.49,19.76-19.53,27.29l.08,30C3303.56,163.18,3310.07,153.3,3310,143.43Z"/><polygon class="cls-9" points="2334.34 -66.11 2334.42 -36.07 2942.77 317.46 2942.69 287.43 2334.34 -66.11"/><polygon class="cls-10" points="3036.25 287.43 3036.34 317.46 3290.51 170.71 3290.43 140.68 3036.25 287.43"/><path class="cls-10" d="M3036.33,317.46a83.64,83.64,0,0,1-26,9.29c-1.18.22-2.37.43-3.56.6a113,113,0,0,1-33.45.17,101,101,0,0,1-11.82-2.43,77.52,77.52,0,0,1-18.69-7.63l-.1-30a78.06,78.06,0,0,0,18.79,7.64,101,101,0,0,0,11.82,2.43,113,113,0,0,0,33.45-.19c1.19-.18,2.38-.38,3.56-.61a83.67,83.67,0,0,0,25.95-9.27Z"/><path class="cls-11" d="M2334.64-120.3c-25.92,15-26.06,39.23-.3,54.19l608.35,353.54c25.75,15,67.64,15,93.56,0l254.18-146.75c25.92-15,26.06-39.23.3-54.2L2682.38-267c-25.75-15-67.64-15-93.56,0Z"/><path class="cls-10" d="M2635.66-275.63h0c17.21,0,33.33,3.86,45.39,10.86L3289.4,88.77c11.57,6.72,17.93,15.5,17.91,24.71s-6.48,18.14-18.21,24.91L3034.93,285.14c-12.14,7-28.31,10.87-45.52,10.87s-33.34-3.86-45.4-10.87L2335.66-68.39c-11.56-6.72-17.92-15.5-17.91-24.72s6.48-18.13,18.21-24.91l254.18-146.74c12.14-7,28.31-10.87,45.52-10.87m0-2.65c-16.93,0-33.88,3.74-46.84,11.23L2334.64-120.3c-25.92,15-26.06,39.23-.3,54.19l608.35,353.54c12.87,7.48,29.78,11.22,46.72,11.22s33.88-3.74,46.84-11.22l254.18-146.75c25.92-15,26.06-39.23.3-54.2L2682.38-267c-12.88-7.48-29.79-11.23-46.72-11.23Z"/><path class="cls-9" d="M2349.18-79.91l608.53,351.33c15.69,9.07,41.32,9,57.13-.12l254.44-146.9c15.81-9.12,15.9-23.92.21-33L2661-259.92c-15.7-9.06-41.33-9-57.14.12L2349.39-112.9C2333.58-103.77,2333.48-89,2349.18-79.91Z"/><path class="cls-9" d="M2632.58-264.67c10.4,0,20.12,2.31,27.37,6.5L3268.48,93.16c6.91,4,10.71,9.19,10.71,14.64s-3.88,10.8-10.92,14.86l-254.43,146.9c-7.39,4.27-17.24,6.62-27.76,6.62s-20.12-2.31-27.37-6.5L2350.18-81.65c-6.9-4-10.7-9.19-10.7-14.64s3.87-10.8,10.91-14.87l254.44-146.9c7.38-4.26,17.24-6.61,27.75-6.61m0-2c-10.39,0-20.81,2.3-28.76,6.88L2349.39-112.9c-15.81,9.13-15.91,23.93-.21,33l608.53,351.33c7.81,4.51,18.08,6.77,28.37,6.77s20.82-2.3,28.76-6.89l254.44-146.9c15.81-9.12,15.9-23.92.21-33L2661-259.92c-7.81-4.5-18.08-6.76-28.38-6.76Z"/><path class="cls-12" d="M3146.43,243.09l29.62-17.1a8,8,0,0,0,3.31-6.34h0c0-2.45-1.48-3.57-3.31-2.51l-29.62,17.1a7.93,7.93,0,0,0-3.32,6.34h0C3143.11,243,3144.6,244.15,3146.43,243.09Z"/><path class="cls-9" d="M3006.74,297.31v30a113,113,0,0,1-33.45.17v-30A113,113,0,0,0,3006.74,297.31Z"/><polygon class="cls-5" points="4800 1218.4 4800 2700 0 2700 0.66 2385.72 3410.5 416.06 4800 1218.4"/><polygon class="cls-3" points="6945.31 3018.21 2820.98 5399.4 -374.82 3554.3 3749.51 1173.12 6945.31 3018.21"/><polygon class="cls-4" points="4472.88 4445.68 4469.05 4447.89 1273.25 2602.79 1277.08 2600.58 4472.88 4445.68"/><polygon class="cls-4" points="4679.03 4326.65 4675.21 4328.86 1479.41 2483.76 1483.23 2481.56 4679.03 4326.65"/><polygon class="cls-4" points="4885.19 4207.63 4881.37 4209.84 1685.57 2364.74 1689.39 2362.53 4885.19 4207.63"/><polygon class="cls-4" points="5091.35 4088.6 5087.52 4090.81 1891.72 2245.71 1895.55 2243.5 5091.35 4088.6"/><polygon class="cls-4" points="5297.84 3969.39 5294.01 3971.59 2098.21 2126.5 2102.04 2124.29 5297.84 3969.39"/><polygon class="cls-4" points="5503.99 3850.36 5500.17 3852.57 2304.37 2007.47 2308.2 2005.26 5503.99 3850.36"/><polygon class="cls-4" points="5710.15 3731.33 5706.33 3733.54 2510.53 1888.45 2514.35 1886.24 5710.15 3731.33"/><polygon class="cls-4" points="5916.31 3612.31 5912.49 3614.52 2716.69 1769.42 2720.51 1767.21 5916.31 3612.31"/><polygon class="cls-4" points="6122.47 3493.28 6118.65 3495.49 2922.85 1650.4 2926.67 1648.19 6122.47 3493.28"/><polygon class="cls-4" points="6328.96 3374.07 6325.13 3376.28 3129.33 1531.18 3133.16 1528.97 6328.96 3374.07"/><polygon class="cls-4" points="6534.79 3255.23 6530.96 3257.44 3335.16 1412.34 3338.99 1410.13 6534.79 3255.23"/><polygon class="cls-4" points="6739.98 3136.02 6736.15 3138.23 3540.35 1293.13 3544.18 1290.92 6739.98 3136.02"/><polygon class="cls-4" points="3964.58 1297.32 -159.9 3678.59 -163.7 3676.4 3960.78 1295.13 3964.58 1297.32"/><polygon class="cls-4" points="4177.49 1420.24 53.01 3801.51 49.21 3799.32 4173.69 1418.05 4177.49 1420.24"/><polygon class="cls-4" points="4390.56 1543.26 266.08 3924.53 262.28 3922.34 4386.76 1541.07 4390.56 1543.26"/><polygon class="cls-4" points="4603.64 1666.28 479.16 4047.55 475.36 4045.36 4599.84 1664.09 4603.64 1666.28"/><polygon class="cls-4" points="4816.71 1789.3 692.23 4170.57 688.43 4168.37 4812.91 1787.1 4816.71 1789.3"/><polygon class="cls-4" points="5029.78 1912.32 905.3 4293.59 901.5 4291.39 5025.98 1910.12 5029.78 1912.32"/><polygon class="cls-4" points="5242.86 2035.33 1118.38 4416.6 1114.58 4414.41 5239.06 2033.14 5242.86 2035.33"/><polygon class="cls-4" points="5455.93 2158.35 1331.45 4539.62 1327.65 4537.43 5452.13 2156.16 5455.93 2158.35"/><polygon class="cls-4" points="5669 2281.37 1544.52 4662.64 1540.72 4660.44 5665.2 2279.18 5669 2281.37"/><polygon class="cls-4" points="5882.07 2404.39 1757.59 4785.66 1753.8 4783.46 5878.28 2402.19 5882.07 2404.39"/><polygon class="cls-4" points="6095.15 2527.4 1970.67 4908.67 1966.87 4906.48 6091.35 2525.21 6095.15 2527.4"/><polygon class="cls-4" points="6308.22 2650.42 2183.74 5031.69 2179.94 5029.5 6304.42 2648.23 6308.22 2650.42"/><polygon points="4745.38 2052.59 4756.67 2090.21 4710 2138.25 4702.42 2112.99 3187.32 2637.05 3118.73 2618.72 4745.38 2052.59"/><polygon points="4006.12 2670.6 3964.22 2715.07 3585.95 2625.95 3677.53 2594.08 4006.12 2670.6"/><g class="cls-13"><path class="cls-14" d="M3135.84,2654.86,3999.62,2859l702.8-746Zm828.38,60.21-426.7-100.25,773.07-267.39Z"/></g><polygon class="cls-15" points="4702.42 2112.99 4710 2138.25 4007.2 2884.2 3999.62 2858.95 4702.42 2112.99"/><polygon class="cls-16" points="3135.84 2654.86 3143.42 2680.11 4007.2 2884.2 3999.62 2858.95 3135.84 2654.86"/><polygon class="cls-17" points="4310.59 2347.43 4271.63 2388.78 3585.95 2625.95 3537.52 2614.82 4310.59 2347.43"/><polygon class="cls-18" points="4145.31 2633.99 4199.26 2646.74 4204.71 2640.95 4150.77 2628.2 4145.31 2633.99"/><polygon class="cls-18" points="4180.67 2596.35 4234.61 2609.09 4240.07 2603.3 4186.12 2590.55 4180.67 2596.35"/><polygon class="cls-18" points="4185.89 2620.8 4216.73 2628.07 4222.18 2622.28 4191.34 2615.01 4185.89 2620.8"/><polygon class="cls-18" points="4109.95 2671.64 4163.9 2684.38 4169.35 2678.59 4115.41 2665.84 4109.95 2671.64"/><polygon class="cls-18" points="4150.53 2658.44 4181.37 2665.71 4186.82 2659.92 4155.98 2652.65 4150.53 2658.44"/><polygon class="cls-18" points="4115.17 2696.09 4146.01 2703.36 4151.47 2697.56 4120.63 2690.29 4115.17 2696.09"/><polygon class="cls-18" points="4393.53 2370.8 4447.48 2383.54 4452.93 2377.75 4398.98 2365 4393.53 2370.8"/><polygon class="cls-18" points="4428.89 2333.15 4482.83 2345.9 4488.29 2340.11 4434.34 2327.36 4428.89 2333.15"/><polygon class="cls-18" points="4434.11 2357.6 4464.94 2364.87 4470.4 2359.08 4439.56 2351.81 4434.11 2357.6"/><polygon class="cls-18" points="4570.32 2182.57 4624.27 2195.32 4629.72 2189.53 4575.78 2176.78 4570.32 2182.57"/><polygon class="cls-18" points="4534.96 2220.22 4588.91 2232.96 4594.36 2227.17 4540.42 2214.43 4534.96 2220.22"/><polygon class="cls-18" points="4575.54 2207.02 4606.38 2214.29 4611.83 2208.5 4580.99 2201.23 4575.54 2207.02"/><polygon class="cls-18" points="4499.6 2257.86 4553.55 2270.61 4559.01 2264.82 4505.06 2252.07 4499.6 2257.86"/><polygon class="cls-18" points="4540.18 2244.67 4571.02 2251.94 4576.48 2246.14 4545.64 2238.87 4540.18 2244.67"/><polygon class="cls-18" points="4464.25 2295.51 4518.19 2308.25 4523.65 2302.46 4469.7 2289.72 4464.25 2295.51"/><polygon class="cls-18" points="4504.82 2282.31 4535.66 2289.58 4541.12 2283.79 4510.28 2276.52 4504.82 2282.31"/><polygon class="cls-18" points="4469.46 2319.95 4500.3 2327.23 4505.76 2321.43 4474.92 2314.16 4469.46 2319.95"/><polygon class="cls-18" points="4216.38 2558.89 4270.32 2571.64 4275.78 2565.84 4221.83 2553.1 4216.38 2558.89"/><polygon class="cls-18" points="4221.6 2583.34 4252.44 2590.61 4257.89 2584.82 4227.05 2577.55 4221.6 2583.34"/><polygon class="cls-18" points="4357.81 2408.31 4411.76 2421.06 4417.21 2415.27 4363.27 2402.52 4357.81 2408.31"/><polygon class="cls-18" points="4398.39 2395.12 4429.22 2402.39 4434.68 2396.6 4403.84 2389.33 4398.39 2395.12"/><polygon class="cls-18" points="4322.45 2445.96 4376.4 2458.7 4381.85 2452.91 4327.91 2440.17 4322.45 2445.96"/><polygon class="cls-18" points="4363.03 2432.76 4393.87 2440.03 4399.32 2434.24 4368.48 2426.97 4363.03 2432.76"/><polygon class="cls-18" points="4287.09 2483.6 4341.04 2496.35 4346.5 2490.56 4292.55 2477.81 4287.09 2483.6"/><polygon class="cls-18" points="4327.67 2470.41 4358.51 2477.68 4363.97 2471.89 4333.13 2464.61 4327.67 2470.41"/><polygon class="cls-18" points="4251.73 2521.25 4305.68 2533.99 4311.14 2528.2 4257.19 2515.45 4251.73 2521.25"/><polygon class="cls-18" points="4292.31 2508.05 4323.15 2515.32 4328.61 2509.53 4297.77 2502.26 4292.31 2508.05"/><polygon class="cls-18" points="4256.95 2545.7 4287.79 2552.97 4293.25 2547.17 4262.41 2539.91 4256.95 2545.7"/><polygon class="cls-19" points="3551.64 1535.51 4393.17 2023.68 2311.81 2734.49 1911.47 2963.26 1492.74 2722.23 3551.64 1535.51"/><line class="cls-20" x1="2363.76" y1="2704.57" x2="3938.79" y2="1797.5"/><line class="cls-21" x1="3956.09" y1="1787.53" x2="3973.43" y2="1777.55"/><line class="cls-22" x1="4028.57" y1="1746.91" x2="4454.45" y2="1988.96"/><text class="cls-23" transform="matrix(-0.87, 0.5, -0.87, -0.5, 2992.82, 2199.21)">1000 m</text><text class="cls-23" transform="matrix(-0.87, 0.5, -0.87, -0.5, 4448.13, 1727.38)">60 m</text><path d="M3490.63,1136.66l629.63,365.71,169.82,71.8-121.63-115.6-604.73-358c-3.24-1.87-8.9-1.64-12.65.53Z"/><path class="cls-12" d="M3456.6,1137.75c0-16.61,10.1-35.89,22.55-43.08,5.35-3.09,10.2-3.3,14.07-1.38l.07-.13,64.43,37.43-36.59,58.26-57.34-33.1.1-.21C3459.44,1152.62,3456.6,1146.47,3456.6,1137.75Z"/><polygon class="cls-24" points="3498.57 1175.87 3560.16 1211.42 3589.95 1149.04 3527.9 1113.25 3498.57 1175.87"/><path class="cls-24" d="M3535.72,1131.45c0,16.6-10.09,35.89-22.54,43.08s-22.55-.44-22.55-17,10.1-35.88,22.55-43.07S3535.72,1114.85,3535.72,1131.45Z"/><path class="cls-25" d="M3552,1127.1l-1.28-.74A11.77,11.77,0,0,1,3552,1127.1Z"/><path class="cls-25" d="M3549.79,1125.85l.88.51c-.29-.17-.59-.32-.89-.47Z"/><path class="cls-18" d="M4100.92,1481.36l25.8-14.89-26.9,56.52-579.74-334.72v0c-4.25-3-6.91-9.14-6.91-17.66,0-8.21,2.48-17.07,6.47-24.82Z"/><path class="cls-25" d="M3519.65,1145.77c4.11-8,9.82-14.75,16.16-18.41,5.3-3.06,10.11-3.31,14-1.47.3.15.6.3.89.47l1.28.74,577.58,333.47-2.81,5.9-25.8,14.89Z"/><path class="cls-26" d="M4091.89,1504.67c0-16.6,10.1-35.88,22.55-43.07,5.8-3.35,11.1-3.52,15.09-1,0,0,1.68,1.48,2.25,2.08l67.74,62.81-12.81,29.69L4099.82,1523C4095,1520.27,4091.89,1513.84,4091.89,1504.67Z"/><polygon class="cls-18" points="4185.74 1554.79 4199.52 1525.46 4261.33 1582.78 4185.74 1554.79"/><path class="cls-18" d="M4202.55,1533.65c0,7.8-4.74,16.86-10.58,20.23s-10.59-.21-10.59-8,4.74-16.86,10.59-20.23S4202.55,1525.86,4202.55,1533.65Z"/><path d="M4639.1,1484.26l514.06-299.87c44.09-25.72,43.86-89.49-.4-114.89L3751.56,265.27,3244.7,669.43c-30.61,21.8-28.53,67.92,3.92,86.87L4459.72,1485C4523,1522,4575.82,1521.18,4639.1,1484.26Z"/><path class="cls-27" d="M3613.41-376.76,4850.72,323.31A133.32,133.32,0,0,1,4912,480.2l-311.21,966.58A83.1,83.1,0,0,1,4481.44,1494l-99.35-54.93Z"/><path class="cls-11" d="M4824.24,322.21a134.55,134.55,0,0,1,60.59,158.34l-314.55,962.06A76.28,76.28,0,0,1,4459.72,1485L3211.47,766.63a85.46,85.46,0,0,1-38.89-99.76L3485.65-327c16.89-53.62,79.08-77.81,127.76-49.71Z"/><path class="cls-9" d="M4816.15,359.65,3594.45-341.93A52,52,0,0,0,3519-312.48L3208,674.8a49.37,49.37,0,0,0,22.31,57.54L4468,1450.74a55.64,55.64,0,0,0,80.93-31.18l306.56-958.48A86.55,86.55,0,0,0,4816.15,359.65Z"/><polygon points="1303.79 2418.93 1371.4 2461.72 3372.94 1306.13 2960.41 1062.88 1233.92 2332.94 1303.79 2418.93"/><polygon class="cls-28" points="949.15 1807.06 949.15 2213.87 1302.39 2419.26 1302.72 2010.8 949.15 1807.06"/><polygon class="cls-29" points="1302.72 2010.8 1303.79 2418.93 3031.03 1420.91 3027.72 647.96 1696.3 1783.74 1302.72 2010.8"/><polygon class="cls-29" points="1696.31 1783.73 1302.71 2010.8 949.15 1807.05 1342.07 1579.83 1696.31 1783.73"/><polygon class="cls-30" points="3027.72 647.96 1696.31 1783.73 1504.87 1673.54 1490.62 1665.34 1342.07 1579.83 2676.14 446.7 2822.47 530.47 2835.92 538.17 3027.72 647.96"/><polygon class="cls-31" points="1342.07 1579.83 1380.77 1602.65 2718.31 465.55 2676.14 446.7 1342.07 1579.83"/><polygon class="cls-32" points="1380.77 1602.65 1342.07 1579.83 949.15 1807.05 987.85 1826.9 1380.77 1602.65"/><polygon class="cls-32" points="1263.69 1989.63 1302.71 2010.8 1696.31 1783.73 1655.87 1761.66 1263.69 1989.63"/><polygon class="cls-31" points="1655.87 1761.66 1696.31 1783.73 3027.72 647.96 2991.83 626.63 1655.87 1761.66"/><polygon class="cls-33" points="1504.87 1673.54 1504.8 1673.6 1115.02 1902.48 1101.13 1894.71 1490.62 1665.34 1504.87 1673.54"/><polygon class="cls-32" points="2835.92 538.17 1504.87 1673.54 1490.62 1665.34 1490.91 1665.17 2822.47 530.47 2835.92 538.17"/><path class="cls-4" d="M3910.7,366.74,3798.79,709.3C3788.58,740,3755.38,754,3726,737L3359.47,526.47c-18.38-10.7-25.24-35.28-18.87-55.57l117-364a36.69,36.69,0,0,1,53.31-20.81L3886,302A54.78,54.78,0,0,1,3910.7,366.74Z"/><path class="cls-4" d="M3300.8,633h0A43.63,43.63,0,0,0,3320,685.48l317.79,184.4a43.62,43.62,0,0,0,62.83-22.64l.43-1.17a43.61,43.61,0,0,0-19.17-52.88L3363.61,609.94A43.62,43.62,0,0,0,3300.8,633Z"/><path class="cls-5" d="M3437.33,230.38h0a44.43,44.43,0,0,0,19.31,53.56L3779.7,473a44.45,44.45,0,0,0,64.1-22.84l.44-1.18A44.44,44.44,0,0,0,3824.91,395L3501.4,207.15A44.44,44.44,0,0,0,3437.33,230.38Z"/><path class="cls-5" d="M3376.16,422.05h0a44.43,44.43,0,0,0,19.49,53.49l323.72,188a44.44,44.44,0,0,0,64-23.06l.44-1.18a44.45,44.45,0,0,0-19.51-53.89L3440.16,398.6A44.45,44.45,0,0,0,3376.16,422.05Z"/><g class="cls-2"><g class="cls-34"><path class="cls-5" d="M3424.19,360.59l3.12-7.74,2.32,1.32.12.07a6.6,6.6,0,0,1,2.86,2.78,4.24,4.24,0,0,1-.07,3.45,3.28,3.28,0,0,1-2.41,2.32,6.65,6.65,0,0,1-4.17-1.19l-1.77-1m7-9.21-.16-.09-5.88-3.36-8.89,22,3.34,1.91,3.33-8.24,2.12,1.21q3.87,2.22,6.71,1.57t4.24-4.09a7.53,7.53,0,0,0,.09-6.06,11.21,11.21,0,0,0-4.9-4.87"/><path class="cls-5" d="M3441,380.84q-3.87-2.26-1.57-8a7.49,7.49,0,0,1,2.64-3.7,3.34,3.34,0,0,1,3.59.24l.06,0q3.87,2.26,1.58,7.93t-6.24,3.53l-.06,0m6-14.26-.1-.06q-3.49-2-6.35-.82t-4.48,5.22a12.17,12.17,0,0,0-.95,5.09,9.07,9.07,0,0,0,1.33,4.49,9.38,9.38,0,0,0,3.31,3.19l.1.05q3.46,2,6.33.8t4.51-5.26a11,11,0,0,0,.58-7.39,9,9,0,0,0-4.28-5.31"/><path class="cls-5" d="M3461.07,375l-3.29-1.88-6.72,16.66,3.29,1.88,6.72-16.66m1-7.29,0,0a1.66,1.66,0,0,0-2.66.91,2.25,2.25,0,0,0,1,3l0,0a1.83,1.83,0,0,0,1.56.26,1.86,1.86,0,0,0,1.05-1.15,2.24,2.24,0,0,0-1-3"/><path class="cls-5" d="M3474,382.05l-.1-.07a7.22,7.22,0,0,0-3.12-1,4.29,4.29,0,0,0-2.72.71l-.17-.1.42-2.45-2.57-1.47L3459,394.35l3.28,1.87,3.36-8.29q1.25-3.12,2.76-3.9a3.65,3.65,0,0,1,3.57.42l0,0a3.64,3.64,0,0,1,1.86,2.24,5.27,5.27,0,0,1-.44,3.28l-4.13,10.24,3.3,1.89,4.38-10.86q2.45-6-3-9.21"/><path class="cls-5" d="M3489,386.42l-2-1.15-2.54,2.88h-2.79l-.63,1.56,2.11,1.21-3.62,9q-2.13,5.25,2.45,7.93l.08,0a10.48,10.48,0,0,0,1.85.84,6.69,6.69,0,0,0,1.58.38l1.07-2.67a8.5,8.5,0,0,1-2.56-1l0,0a2.8,2.8,0,0,1-1.27-1.48,3,3,0,0,1,.16-2.23l3.6-8.92,4.4,2.51,1.08-2.67-4.4-2.52,1.5-3.71"/><path class="cls-5" d="M3513.34,398.27l-2.74-1.57-8.06,1.66.74,3.19c2.41-.54,3.83-.87,4.26-1s.8-.23,1.11-.35c-.48.95-1.05,2.28-1.74,4l-5.73,14.22,3.28,1.88,8.88-22"/></g></g><g class="cls-2"><g class="cls-35"><path class="cls-9" d="M3408.47,443.42a4,4,0,0,1-2-3.54,19.28,19.28,0,0,1,1.77-7.06q1.86-4.6,3.54-6.08a2.85,2.85,0,0,1,3.6-.39l0,0a4,4,0,0,1,2,3.61,19.1,19.1,0,0,1-1.75,7c-1.21,3-2.4,5-3.52,6a2.9,2.9,0,0,1-3.63.39l-.05,0m8.25-20.05-.08-.05q-3.57-2-6.47-.21t-5.29,7.76c-1.52,3.79-2.08,7-1.66,9.63a7.87,7.87,0,0,0,4,5.91l.09,0c2.39,1.37,4.56,1.44,6.48.21s3.68-3.81,5.26-7.71,2.09-7,1.68-9.66a7.89,7.89,0,0,0-4-5.93"/><polyline class="cls-9" points="3445.67 447.07 3441.87 444.9 3435.85 448.78 3434.65 440.79 3430.84 438.6 3432.77 449.93 3423.72 455.45 3427.51 457.62 3433.96 453.47 3435.29 462.06 3439.08 464.22 3437 452.36 3445.67 447.07"/><path class="cls-9" d="M3447,465.52l-1.63-.93-4.79,1,.44,1.9c1.44-.32,2.27-.51,2.53-.58a6.55,6.55,0,0,0,.66-.21c-.28.57-.62,1.36-1,2.37l-3.42,8.45,2,1.12,5.28-13.1"/></g></g><g class="cls-2"><g class="cls-36"><path class="cls-9" d="M3486.33,488.5a4,4,0,0,1-2-3.54,19.33,19.33,0,0,1,1.77-7.07c1.24-3.05,2.42-5.08,3.54-6.07a2.85,2.85,0,0,1,3.6-.39l0,0a4,4,0,0,1,2,3.61,19,19,0,0,1-1.74,7.05c-1.22,3-2.4,5-3.53,6a2.89,2.89,0,0,1-3.63.38l0,0m8.25-20-.08,0c-2.39-1.36-4.55-1.44-6.48-.22s-3.68,3.8-5.27,7.77q-2.3,5.67-1.68,9.63a7.91,7.91,0,0,0,4,5.9l.08.05c2.4,1.37,4.56,1.43,6.49.21s3.69-3.8,5.26-7.71,2.09-7,1.69-9.65a8,8,0,0,0-4-5.93"/><path class="cls-9" d="M3523.74,492.27l-3.63-2.07q-7.41,8.39-8.24,9.39a17.59,17.59,0,0,0-1.3,1.79l-.11-.07a22.64,22.64,0,0,0,.59-4.43l.68-11.46-3.65-2.09-.53,20.61-1.23,1.27c-1.46,1.64-3,2-4.63,1.08l-.12-.07a10.05,10.05,0,0,1-1.53-1.1l-1.15,2.85a11.24,11.24,0,0,0,2,1.45l.09.06q4.29,2.44,8.28-1.8l14.51-15.41"/><path class="cls-9" d="M3524.43,510.36l-1.64-.94-4.8,1,.45,1.89c1.43-.32,2.27-.5,2.53-.58a5.29,5.29,0,0,0,.66-.2c-.28.56-.63,1.35-1,2.37l-3.41,8.45,1.95,1.11,5.29-13.09"/></g></g><g class="cls-2"><g class="cls-37"><path class="cls-9" d="M3581.7,520.14l-2.8-1.6-8.23,1.69.76,3.25,4.35-1c.44-.13.81-.24,1.13-.36-.48,1-1.08,2.32-1.77,4l-5.86,14.51,3.35,1.92,9.07-22.46"/><path class="cls-9" d="M3587.56,547.79a4,4,0,0,1-2-3.54,19.14,19.14,0,0,1,1.78-7.06q1.85-4.59,3.53-6.08a2.84,2.84,0,0,1,3.6-.37l0,0a4,4,0,0,1,2,3.6,18.9,18.9,0,0,1-1.75,7c-1.21,3-2.39,5-3.52,6a2.88,2.88,0,0,1-3.62.39l-.05,0m8.25-20-.09,0c-2.38-1.37-4.54-1.44-6.47-.23s-3.68,3.81-5.27,7.77c-1.54,3.78-2.09,7-1.68,9.63a7.87,7.87,0,0,0,4,5.9l.08.05c2.39,1.37,4.56,1.44,6.49.21s3.68-3.8,5.26-7.7,2.09-7,1.69-9.66a7.94,7.94,0,0,0-4-5.92"/><path class="cls-9" d="M3604.24,557.32a4,4,0,0,1-2-3.54,18.8,18.8,0,0,1,1.77-7.06c1.24-3.07,2.41-5.1,3.53-6.08a2.85,2.85,0,0,1,3.6-.39h0a4,4,0,0,1,2,3.62,18.84,18.84,0,0,1-1.74,7c-1.22,3-2.39,5-3.53,6a2.88,2.88,0,0,1-3.62.39l0,0m8.24-20.05-.08,0c-2.39-1.36-4.54-1.43-6.47-.22s-3.68,3.81-5.28,7.77c-1.53,3.79-2.08,7-1.68,9.64a7.91,7.91,0,0,0,4,5.9l.08,0q3.6,2.05,6.49.21t5.26-7.7q2.3-5.68,1.69-9.66a7.93,7.93,0,0,0-4-5.93"/><path class="cls-9" d="M3620.93,566.85a4,4,0,0,1-2-3.55c-.06-1.65.53-4,1.77-7.07s2.41-5.09,3.53-6.08a2.85,2.85,0,0,1,3.6-.37l0,0a4,4,0,0,1,2,3.61,18.9,18.9,0,0,1-1.75,7c-1.21,3-2.39,5-3.52,6a2.9,2.9,0,0,1-3.62.4l0,0m8.23-20.05-.09,0c-2.39-1.37-4.54-1.44-6.46-.23s-3.69,3.81-5.29,7.78c-1.53,3.77-2.08,7-1.68,9.62a7.93,7.93,0,0,0,4,5.9l.08,0c2.39,1.37,4.56,1.45,6.49.21s3.68-3.79,5.25-7.69,2.09-7,1.69-9.67a7.93,7.93,0,0,0-4-5.92"/><polyline class="cls-9" points="3658.1 570.49 3654.31 568.33 3648.29 572.2 3647.09 564.2 3643.27 562.02 3645.21 573.36 3636.15 578.86 3639.95 581.04 3646.39 576.89 3647.72 585.48 3651.52 587.64 3649.45 575.77 3658.1 570.49"/><path class="cls-9" d="M3657.89,587.82l0,0a6.4,6.4,0,0,0-2.2-.78,6.49,6.49,0,0,0-2.5.19l.5,2a6.46,6.46,0,0,1,1.92-.15,3.92,3.92,0,0,1,1.45.5,2.43,2.43,0,0,1,1.16,1.29,2.26,2.26,0,0,1-.06,1.69,3.41,3.41,0,0,1-.7,1.08,4.43,4.43,0,0,1-1.15.83,25.51,25.51,0,0,1-2.71,1.12l-4.52,1.61-.64,1.59,8.25,4.71.74-1.86-5.77-3.3,0-.08,3-1a21.1,21.1,0,0,0,3-1.12,6.54,6.54,0,0,0,1.57-1.13,4.5,4.5,0,0,0,1-1.52,4,4,0,0,0,0-3.15,5.21,5.21,0,0,0-2.29-2.49"/></g></g><g class="cls-2"><g class="cls-38"><path class="cls-9" d="M3690.78,608.81a4.55,4.55,0,0,1-2.14-3,6.86,6.86,0,0,1,.39-4.26,3.06,3.06,0,0,1,1.24-1.48,3.45,3.45,0,0,1,2-.55,4.7,4.7,0,0,1,2.2.64l0,0a4.23,4.23,0,0,1,2.15,2.58,5.53,5.53,0,0,1-.35,3.55,5.12,5.12,0,0,1-2.31,2.9,3.33,3.33,0,0,1-3.15-.33l0,0m11-18.43-.14-.09q-10-5.68-15.29,7.5a15.67,15.67,0,0,0-1.26,5.84,9.63,9.63,0,0,0,1.18,4.85,8.92,8.92,0,0,0,3.33,3.32l.09.05a6.67,6.67,0,0,0,5.83.81,7.46,7.46,0,0,0,4.09-4.54,8.94,8.94,0,0,0,.47-6,7.4,7.4,0,0,0-3.56-4.34l-.11-.06a6.37,6.37,0,0,0-3.12-1,4.35,4.35,0,0,0-2.67.86l-.16-.1c1.24-2.79,2.68-4.52,4.32-5.16s3.58-.34,5.82.93l.1.06a11.31,11.31,0,0,1,2.27,1.71l1.22-3a15.12,15.12,0,0,0-2.41-1.69"/><path class="cls-9" d="M3707.19,618.14a3.93,3.93,0,0,1-2-3.54c-.06-1.65.53-4,1.77-7.06s2.41-5.09,3.52-6.08a2.85,2.85,0,0,1,3.61-.37l0,0a4,4,0,0,1,2,3.6,19,19,0,0,1-1.74,7c-1.23,3-2.4,5-3.54,6a2.87,2.87,0,0,1-3.62.39l0,0m8.24-20-.08-.05q-3.58-2-6.46-.22t-5.29,7.77c-1.52,3.78-2.09,7-1.68,9.63a7.93,7.93,0,0,0,4,5.9l.08,0c2.4,1.37,4.56,1.43,6.49.21s3.68-3.79,5.25-7.71,2.09-7,1.69-9.65a7.93,7.93,0,0,0-4-5.93"/><path class="cls-9" d="M3744.59,621.92l-3.62-2.07c-4.95,5.59-7.69,8.71-8.25,9.39a15.05,15.05,0,0,0-1.29,1.78l-.11-.07a21.94,21.94,0,0,0,.58-4.43l.68-11.46-3.65-2.08-.52,20.61-1.23,1.27c-1.47,1.64-3,2-4.63,1.08a9.74,9.74,0,0,1-1.65-1.18l-1.16,2.86a11.57,11.57,0,0,0,2,1.44l.1.06q4.29,2.45,8.27-1.8l14.51-15.4"/><path class="cls-9" d="M3743.77,638.91l-.08,0a6.48,6.48,0,0,0-2.19-.78,6.87,6.87,0,0,0-2.5.18l.5,2a6.05,6.05,0,0,1,1.91-.14,3.82,3.82,0,0,1,1.47.49l0,0a2.37,2.37,0,0,1,1.13,1.26,2.33,2.33,0,0,1-.07,1.68,3.1,3.1,0,0,1-.7,1.09,4.43,4.43,0,0,1-1.15.83,22.35,22.35,0,0,1-2.72,1.12l-4.5,1.61-.65,1.59,8.24,4.71.76-1.86-5.78-3.29,0-.09,3-1a19.71,19.71,0,0,0,3-1.13A6.19,6.19,0,0,0,3745,646a4.85,4.85,0,0,0,1-1.52,4.1,4.1,0,0,0,0-3.15,5.18,5.18,0,0,0-2.26-2.46"/></g></g><g class="cls-2"><g class="cls-39"><path class="cls-5" d="M3504.93,167.63l-.51-.29q-5-2.72-9-1.24c-2.68,1-4.69,3.27-6.06,6.86a14.66,14.66,0,0,0-.65,9.82,11.75,11.75,0,0,0,5.62,6.66l.46.26a29.73,29.73,0,0,0,3.81,1.73,21.71,21.71,0,0,0,3.93,1l4.24-11.18-7.59-4.12-1.19,3.13,4.28,2.32-2.18,5.74a17.34,17.34,0,0,1-3.67-1.46l-.31-.18a8,8,0,0,1-3.86-4.65,11,11,0,0,1,.63-7.13c1-2.6,2.4-4.29,4.24-5.09a6.77,6.77,0,0,1,6.07.59l.33.19a15,15,0,0,1,4.22,3.79L3510,172a18.63,18.63,0,0,0-5.1-4.37"/><path class="cls-5" d="M3516.45,180.79l-3.32-1.8-6.38,16.84,3.31,1.8,6.39-16.84m.89-7.3-.08,0a1.65,1.65,0,0,0-2.63,1,2.34,2.34,0,0,0-.06,1.7,2.37,2.37,0,0,0,1.07,1.22l.12.06a1.84,1.84,0,0,0,1.56.22,1.9,1.9,0,0,0,1-1.18,2.4,2.4,0,0,0,.07-1.74,2.33,2.33,0,0,0-1.08-1.21"/><path class="cls-5" d="M3534.28,190.46l-3.53-1.91-6.88,8.08a25.78,25.78,0,0,0-2.5,3.44l-.12,0a22.23,22.23,0,0,0,.52-4.53l.55-11.51-3.5-1.91-.47,20.07,3.59,1.94,12.34-13.62"/><path class="cls-5" d="M3536.67,199.77a4.9,4.9,0,0,1,2.34-2.54,3.3,3.3,0,0,1,2.94.3l.16.09A4,4,0,0,1,3544,200a5.65,5.65,0,0,1-.27,3.66l-7.08-3.84m6.59-4.79-.29-.17a6.53,6.53,0,0,0-6.12-.47c-1.87.89-3.33,2.7-4.37,5.46a10.64,10.64,0,0,0-.34,7.42,9.58,9.58,0,0,0,4.46,5.17l.36.21a16.1,16.1,0,0,0,2.94,1.28,9.93,9.93,0,0,0,2.79.45l1.1-2.91a12.51,12.51,0,0,1-5.6-1.57l-.21-.12a5.39,5.39,0,0,1-2.55-3,6.83,6.83,0,0,1,.2-4.43L3546,208l.74-1.93a9.51,9.51,0,0,0,.32-6.55,8.21,8.21,0,0,0-3.83-4.51"/><path class="cls-5" d="M3561.84,205.06l-.32-.18a6.93,6.93,0,0,0-3.12-.9,4.33,4.33,0,0,0-2.71.76l-.17-.09.37-2.45-2.6-1.41-6.38,16.84,3.31,1.8,3.19-8.39c.8-2.11,1.69-3.42,2.67-4a3.65,3.65,0,0,1,3.59.33l.18.11a3.45,3.45,0,0,1,1.76,2.11,5.47,5.47,0,0,1-.37,3.3l-3.93,10.35,3.33,1.81,4.16-11q2.28-6-3-9"/></g></g><g class="cls-2"><g class="cls-40"><polyline class="cls-9" points="3598.29 295.77 3573.17 281.48 3571.14 286.52 3580.97 292.12 3568.53 323.08 3573.99 326.19 3586.43 295.23 3596.26 300.82 3598.29 295.77"/><path class="cls-9" d="M3633.22,326.42l-5.39-3.07-8.67,11.57a78.46,78.46,0,0,0-5,7.56l-.19-.1a33.88,33.88,0,0,0,1-4.22c.32-1.85.53-3.25.62-4.18l2-16.46-5.9-3.35-9.61,12.15c-.53.64-1.27,1.65-2.2,3s-1.73,2.62-2.36,3.73l-.14-.07c.64-2.54,1.27-5.68,1.87-9.41l2.17-15.26-5.49-3.12-3.85,31.27,5.94,3.38,8.44-10.75c1.27-1.55,3.23-4.31,5.9-8.23l.2.12q-1.39,8.25-1.62,10.6l-1.84,14.58,6,3.43,18.08-23.19"/><path class="cls-9" d="M3638.72,357.82q-6.34-3.7-2.58-13.07c1.2-3,2.64-5,4.29-6.05s3.62-.91,5.88.37l.1.06q6.32,3.69,2.6,12.95-3.8,9.44-10.2,5.79l-.09-.05m9.75-23.33-.17-.1q-5.73-3.25-10.39-1.34t-7.31,8.56a20,20,0,0,0-1.54,8.32,14.84,14.84,0,0,0,2.19,7.33,15.43,15.43,0,0,0,5.43,5.21l.14.08q5.67,3.22,10.36,1.29t7.36-8.61a18,18,0,0,0,.92-12.08,14.58,14.58,0,0,0-7-8.66"/><path class="cls-9" d="M3680.82,364.34l5.09-12.66,3.8,2.16.17.09a11,11,0,0,1,4.7,4.56,6.92,6.92,0,0,1-.11,5.63c-.89,2.23-2.2,3.51-3.94,3.81s-4-.35-6.81-1.94l-2.9-1.65m11.54-15-.31-.18-9.63-5.47-14.47,36,5.47,3.11,5.41-13.48,3.48,2q6.33,3.6,11,2.55t6.9-6.7a12.33,12.33,0,0,0,.14-9.9q-2-4.43-8-7.92"/><path class="cls-9" d="M3708.27,397.39q-6.32-3.69-2.56-13.05,1.82-4.51,4.29-6c1.67-1,3.62-.92,5.88.37l.11.07q6.3,3.67,2.59,12.94-3.79,9.42-10.2,5.78l-.11-.06m9.8-23.29-.2-.12q-5.73-3.25-10.39-1.34t-7.31,8.55a20.08,20.08,0,0,0-1.54,8.33,14.8,14.8,0,0,0,2.19,7.32,15.2,15.2,0,0,0,5.38,5.18l.19.11c3.78,2.15,7.23,2.59,10.36,1.29s5.57-4.16,7.36-8.61a18,18,0,0,0,.92-12.08,14.55,14.55,0,0,0-7-8.63"/><path class="cls-9" d="M3741.11,387.81l-5.38-3.05L3724.79,412l5.38,3.06,10.94-27.24m1.59-11.93,0,0a2.71,2.71,0,0,0-4.33,1.5,3.86,3.86,0,0,0-.15,2.78,4,4,0,0,0,1.87,2.11l0,0a2.72,2.72,0,0,0,4.27-1.48,3.68,3.68,0,0,0-1.65-4.91"/><path class="cls-9" d="M3762.32,399.28a1.18,1.18,0,0,0-.19-.11,11.49,11.49,0,0,0-5.08-1.6,7.11,7.11,0,0,0-4.46,1.16l-.27-.16.68-4-4.21-2.39-10.94,27.25,5.37,3.05,5.45-13.58c1.37-3.39,2.86-5.52,4.5-6.36s3.58-.62,5.85.66l.08.05a6,6,0,0,1,3,3.64,8.88,8.88,0,0,1-.72,5.37L3754.69,429l5.4,3.07,7.14-17.76q4-9.87-4.91-15"/><path class="cls-9" d="M3786.85,406.39l-3.32-1.89-4.14,4.72-4.56,0-1,2.55,3.45,2-5.89,14.68q-3.45,8.58,4,12.92l.16.1a17.2,17.2,0,0,0,3,1.37,11.63,11.63,0,0,0,2.59.61l1.75-4.36a14.36,14.36,0,0,1-4.21-1.57l-.07,0a4.57,4.57,0,0,1-2.07-2.41,5,5,0,0,1,.27-3.64l5.86-14.59,7.2,4.1,1.76-4.39-7.2-4.09,2.44-6.06"/><path class="cls-9" d="M3805.52,423.85l-.27-.15c-3-1.71-5.64-2.41-7.9-2.12a5.8,5.8,0,0,0-4.8,3.95,8.25,8.25,0,0,0-.35,5.6c.54,1.81,2,4.14,4.44,7a42,42,0,0,1,2.83,3.67,9.1,9.1,0,0,1,1.23,2.45,3.13,3.13,0,0,1-.15,2q-1.29,3.22-6.25.41l-.17-.1a25.52,25.52,0,0,1-7.25-6.84l-2,5a22.31,22.31,0,0,0,7.1,6.06l.35.2q5,2.87,8.59,2.27t5.15-4.58a8.58,8.58,0,0,0,.68-3.78,9.25,9.25,0,0,0-1.1-3.7,30.29,30.29,0,0,0-3.59-5,34,34,0,0,1-3.86-5.2,3.33,3.33,0,0,1-.23-2.8q1-2.61,5.3-.19l.07,0a23.61,23.61,0,0,1,6.07,5.7l3.5-3.38a25.49,25.49,0,0,0-7.39-6.59"/></g></g><g class="cls-2"><g class="cls-41"><path class="cls-5" d="M3401.24,654.1l-.1-.06a19.86,19.86,0,0,0-10.63-3,14.68,14.68,0,0,0-9.23,3.68,25.15,25.15,0,0,0-6.7,9.86q-4.14,10.08-1.91,18.05t10.42,12.72l.1.06a30.88,30.88,0,0,0,10.82,4l2.34-5.71q-2.76-.6-5.21-1.39a23.74,23.74,0,0,1-4.86-2.17l-.07,0a13.69,13.69,0,0,1-6.86-8.71q-1.35-5.53,1.71-13,2.94-7.14,7.65-9.45t10,.78l.07,0a17.7,17.7,0,0,1,4.1,3.29,44.35,44.35,0,0,1,3.35,4.05l4.49-4.25a29.83,29.83,0,0,0-9.52-8.74"/><path class="cls-5" d="M3411.61,705.63a6.27,6.27,0,0,1-2.9-3.07,5.05,5.05,0,0,1,.17-3.84,4.37,4.37,0,0,1,3.68-3.09c1.68-.16,4,.52,6.87,2.06l3.74,2-1.1,2.68c-1,2.39-2.4,3.86-4.29,4.41a7.63,7.63,0,0,1-6.12-1.08l0,0m13.54-25.41-.1-.06a25.43,25.43,0,0,0-5.5-2.34,21.62,21.62,0,0,0-5.9-1l0,5.81a32.82,32.82,0,0,1,4.55.6,15.3,15.3,0,0,1,4.5,1.74l0,0a6.78,6.78,0,0,1,3.33,3.73,7.6,7.6,0,0,1-.53,5.15l-.67,1.64-5-2.68c-4.54-2.45-8.24-3.49-11.09-3.15s-4.92,2.12-6.23,5.28a11.33,11.33,0,0,0-.47,8.3,11.81,11.81,0,0,0,5.53,6.23l0,0a14.22,14.22,0,0,0,5.79,2.08,11.1,11.1,0,0,0,5.73-1.41l.21.11-.54,5,4.34,2.51,8.49-20.74q2.26-5.48.52-9.64c-1.14-2.76-3.5-5.17-7.08-7.26"/><polyline class="cls-5" points="3455.52 682.98 3449.44 679.46 3431.7 722.76 3437.77 726.27 3455.52 682.98"/><path class="cls-5" d="M3471.37,706.94l-.06,0c-4.45-2.57-8.41-3.14-11.91-1.72s-6.3,4.72-8.41,9.89-2.57,9.64-1.43,13.66,3.83,7.24,8.12,9.74l.07,0a23.21,23.21,0,0,0,4.67,2.15,12.1,12.1,0,0,0,4.07.53l2.34-5.7a16.31,16.31,0,0,1-8.56-2.27l0,0a8.52,8.52,0,0,1-4.32-5.72q-.78-3.66,1.34-8.84,4.35-10.6,11.76-6.31l0,0a23.39,23.39,0,0,1,5.66,5.27l4-4.2a24,24,0,0,0-7.34-6.49"/><path class="cls-5" d="M3510.21,730.1l-6.1-3.53-6.29,15.34q-2.37,5.77-5.17,7.2c-1.87.95-4.08.7-6.63-.78l0,0a6.75,6.75,0,0,1-3.45-4.19,10.1,10.1,0,0,1,.82-6.08l7.78-19-6.12-3.54-8.25,20.11q-2.31,5.65-.89,9.92c.94,2.83,3.13,5.23,6.56,7.24l.05,0a12.66,12.66,0,0,0,5.84,1.86,8.09,8.09,0,0,0,5-1.28l.31.18-.79,4.53,4.77,2.76,12.62-30.77"/><polyline class="cls-5" points="3530.07 726.1 3524 722.58 3506.25 765.88 3512.33 769.39 3530.07 726.1"/><path class="cls-5" d="M3531.66,775.08a6.41,6.41,0,0,1-2.94-3.1,5.12,5.12,0,0,1,.17-3.85,4.38,4.38,0,0,1,3.68-3.08c1.68-.17,4,.51,6.87,2.06l3.74,2-1.1,2.66q-1.45,3.6-4.29,4.42a7.69,7.69,0,0,1-6.13-1.07m13.5-25.45-.09-.06a26.78,26.78,0,0,0-5.51-2.34,21.65,21.65,0,0,0-5.9-1l0,5.81a31.68,31.68,0,0,1,4.56.6,15,15,0,0,1,4.49,1.74l.05,0a6.77,6.77,0,0,1,3.32,3.73,7.65,7.65,0,0,1-.52,5.15l-.69,1.64-5-2.69c-4.55-2.44-8.24-3.49-11.1-3.14s-4.91,2.11-6.22,5.27a11.33,11.33,0,0,0-.47,8.3,11.78,11.78,0,0,0,5.49,6.21l.08.05a14.25,14.25,0,0,0,5.8,2.09,11,11,0,0,0,5.72-1.42l.21.12-.54,5,4.34,2.52,8.5-20.73q2.23-5.47.52-9.65t-7.09-7.26"/><path class="cls-5" d="M3573.79,758.41l-3.74-2.17-4.74,5.32-5.17,0-1.19,2.89,3.91,2.26-6.8,16.58q-4,9.76,4.55,14.75l.07,0a20.5,20.5,0,0,0,3.42,1.58,12.07,12.07,0,0,0,2.92.71l2-4.92a16.23,16.23,0,0,1-4.75-1.82l0,0a5.26,5.26,0,0,1-2.38-2.78,5.62,5.62,0,0,1,.34-4.12l6.75-16.47,8.14,4.7,2-4.95-8.15-4.71,2.81-6.84"/><path class="cls-5" d="M3584.8,788.25q1.89-3.59,4.44-4.55a6.15,6.15,0,0,1,5.46.7l0,0a7.73,7.73,0,0,1,3.71,4.58,10.48,10.48,0,0,1-.66,6.75l-13-7.5m12-8.76-.07,0q-6.09-3.53-11.36-1.23t-8.34,9.83q-3,7.35-1,13.71a18.07,18.07,0,0,0,8.6,10.15l.11.07a31.43,31.43,0,0,0,5.39,2.53,19.26,19.26,0,0,0,5.16,1l2.18-5.31a25.72,25.72,0,0,1-5.39-1,24,24,0,0,1-4.93-2.21l-.07-.05a10.21,10.21,0,0,1-4.92-5.81,12.49,12.49,0,0,1,.58-8.19l19,11,1.45-3.53a17.29,17.29,0,0,0,.89-12.09,15.43,15.43,0,0,0-7.35-8.83"/></g></g><g class="cls-2"><g class="cls-42"><path class="cls-5" d="M3874.56,860.67l-.15-.09q-7.78-4.5-14.06-3.16t-9.14,8.36a18.38,18.38,0,0,0-1,11.26q1.28,5.69,7.13,12.89c3.78,4.66,6.11,8.13,7,10.44a8.72,8.72,0,0,1,0,6.6,6.34,6.34,0,0,1-4.68,4.16q-3.26.69-8.3-2.24l-.08,0a39.6,39.6,0,0,1-7-5.3,51.63,51.63,0,0,1-6.39-7.21l-3.55,8.66q4.35,6.12,13,11.17l.21.13q8.82,5.1,15.58,3.75t9.82-8.82a17.79,17.79,0,0,0,1.46-7.31,18.54,18.54,0,0,0-1.86-7.28,52.85,52.85,0,0,0-6.43-9.64,64.55,64.55,0,0,1-5.56-7.72,12.28,12.28,0,0,1-1.6-4.55,8.67,8.67,0,0,1,.67-4.23,6,6,0,0,1,4.23-3.88c2-.46,4.3.09,7.06,1.69l.08.05q5.4,3.15,11,10.25l5.76-5.91a45.6,45.6,0,0,0-13.28-12"/><polyline class="cls-5" points="3908.76 876.98 3900.39 872.15 3875.97 931.75 3884.33 936.59 3908.76 876.98"/><path class="cls-5" d="M3915.24,946.31q-10-5.82-4-20.46c1.92-4.66,4.17-7.8,6.78-9.39s5.66-1.37,9.17.67l.06,0q9.94,5.8,4,20.28-6,14.68-16,8.91l-.07,0m15.22-36.4-.11-.06q-8.92-5.16-16.2-2.22t-11.5,13.25a31.07,31.07,0,0,0-2.5,13,23.1,23.1,0,0,0,3.35,11.46,24.06,24.06,0,0,0,8.55,8.27l.1,0q8.82,5.11,16.16,2.14t11.58-13.34q4.11-10,1.56-18.84a22.89,22.89,0,0,0-11-13.67"/><path class="cls-5" d="M3961.49,973.06q-5.1-3-5.95-7.73t2.32-12.52l.54-1.34q2.83-6.9,6.41-8.7t8.56,1.06h0a10.44,10.44,0,0,1,5.32,7.61q.84,5-2.09,12.13t-6.82,9.56a7.45,7.45,0,0,1-8.26,0l-.06,0m17.15-35.28-.09,0q-7.82-4.51-14.37-.36l-.42-.24q.94-5,1.15-6.35l-6.77-3.91-25.08,61.21,8.36,4.83,7.11-17.35c.31-.76,1-3,2.17-6.79l.49.28a18.45,18.45,0,0,0,9.17,12.46l.06,0q7.36,4.25,13.94.85t10.82-13.78q4.25-10.38,2.5-18.51a18.24,18.24,0,0,0-9-12.33"/><path class="cls-5" d="M4003.09,973.53q2.61-4.93,6.12-6.27a8.47,8.47,0,0,1,7.5,1l.07,0a10.53,10.53,0,0,1,5.08,6.27c.79,2.68.48,5.78-.9,9.31l-17.87-10.33m16.52-12-.11-.06q-8.39-4.87-15.63-1.7t-11.49,13.54q-4.14,10.11-1.33,18.87t11.85,14l.14.08a42.44,42.44,0,0,0,7.42,3.49,25.81,25.81,0,0,0,7.1,1.35l3-7.3a34.74,34.74,0,0,1-7.42-1.39,33.64,33.64,0,0,1-6.79-3l-.07,0a14.09,14.09,0,0,1-6.79-8q-1.56-5,.79-11.27l26.23,15.16,2-4.86q3.66-8.93,1.23-16.64a21.26,21.26,0,0,0-10.11-12.14"/><path class="cls-5" d="M4036.54,1011.54l0,0a5.3,5.3,0,0,0-4.52-.76,5.67,5.67,0,0,0-3.11,3.5,7.42,7.42,0,0,0-.42,5.11,6.59,6.59,0,0,0,3.23,3.81l0,0a5.16,5.16,0,0,0,4.58.69,5.9,5.9,0,0,0,3.13-3.51,7.32,7.32,0,0,0,.39-5,6.73,6.73,0,0,0-3.28-3.82M4050,978.83l0,0q-5.26-3-7.63,2.74a7.49,7.49,0,0,0-.43,5.11,6.65,6.65,0,0,0,3.24,3.81l0,0a5.17,5.17,0,0,0,4.58.69,5.82,5.82,0,0,0,3.14-3.52,7.39,7.39,0,0,0,.43-5,6.81,6.81,0,0,0-3.32-3.82"/></g></g><g class="cls-2"><g class="cls-43"><path class="cls-5" d="M4128,1069.39q-13.68-8-14.19-25.63t13-50.6q13.48-32.89,25.58-43.46t25.89-2.57l.11.07q13.68,8,14.15,26.06t-12.81,50.51q-13.29,32.46-25.55,43.06t-26,2.63l-.11-.07m59.39-143.79-.25-.14q-25.65-14.84-46.43-1.89t-38.25,55.52q-16.63,40.59-12.37,69.06,4.24,28.32,29,42.75l.23.12q25.74,14.89,46.6,1.78t38-55q16.68-40.69,12.47-69.26t-29-42.91"/><path class="cls-5" d="M4231.23,1120.67l-23.6-13.65a547.6,547.6,0,0,1-33.16,49.14l17.67,10.22q26.29-24.68,39.59-42.29l-.5-3.42"/><path class="cls-5" d="M4303.33,1170.82q-13.69-8-14.21-25.65t13-50.61q13.48-32.88,25.58-43.44t25.9-2.59l.09.06q13.69,8,14.15,26.08t-12.8,50.51q-13.29,32.44-25.54,43.06t-26,2.63l-.1,0M4362.7,1027l-.25-.14Q4336.8,1012,4316,1025t-38.23,55.52q-16.65,40.61-12.38,69t28.94,42.73a2,2,0,0,0,.25.14q25.74,14.89,46.6,1.79t38-55q16.68-40.7,12.47-69.27t-29-42.9"/><path class="cls-5" d="M4424.68,1241.27q-12-7-15.49-22.09t2.9-30.65a22.34,22.34,0,0,1,9-10.52,24.86,24.86,0,0,1,14.32-3.82,32.92,32.92,0,0,1,15.78,4.7l.15.08q12.43,7.26,15.45,18.74t-2.65,25.42q-6.53,15.94-16.75,20.66t-22.56-2.44l-.14-.08M4503.49,1109l-.43-.25q-71.42-41.3-110.11,53.09-9.15,22.34-9.28,41.92t8.32,34.75a64,64,0,0,0,24.26,24.31l.22.13q22.7,13.11,41.84,6t29.52-32.41q9.42-23,3.58-43t-25.92-31.6l-.25-.15q-11.74-6.79-22.44-6.92a31.18,31.18,0,0,0-19.15,6l-1.22-.72q13.56-30,31.29-36.87t41.75,7l.29.18a78.62,78.62,0,0,1,16.7,12.65l8.83-21.56a106,106,0,0,0-17.8-12.62"/></g></g><g class="cls-2"><g class="cls-44"><path class="cls-5" d="M3696.35,515.63l3.12-7.74,2.32,1.32.11.06a6.59,6.59,0,0,1,2.87,2.79,4.24,4.24,0,0,1-.07,3.45,3.33,3.33,0,0,1-2.42,2.32,6.64,6.64,0,0,1-4.16-1.2l-1.77-1m7.08-9.19-.2-.12-5.88-3.36-8.89,22,3.34,1.9,3.32-8.23,2.13,1.21c2.58,1.48,4.81,2,6.71,1.57s3.3-1.79,4.23-4.09a7.47,7.47,0,0,0,.1-6.05,11.07,11.07,0,0,0-4.86-4.85"/><path class="cls-5" d="M3713.14,535.88q-3.9-2.26-1.58-8a7.42,7.42,0,0,1,2.64-3.71,3.34,3.34,0,0,1,3.59.24l.06,0q3.86,2.25,1.58,7.92c-1.55,3.85-3.64,5-6.24,3.53l-.05,0m6-14.26-.1-.06c-2.34-1.34-4.46-1.61-6.35-.83s-3.4,2.52-4.49,5.22a12.2,12.2,0,0,0-1,5.09,9,9,0,0,0,1.34,4.49,9.33,9.33,0,0,0,3.35,3.22l.05,0c2.31,1.32,4.42,1.58,6.34.8s3.42-2.54,4.51-5.26a11.08,11.08,0,0,0,.58-7.39,9,9,0,0,0-4.28-5.3"/><path class="cls-5" d="M3733.22,530l-3.29-1.87-6.72,16.65,3.29,1.88,6.72-16.66m1-7.31a1.92,1.92,0,0,0-1.59-.27,1.89,1.89,0,0,0-1.07,1.19,2.37,2.37,0,0,0-.09,1.69,2.32,2.32,0,0,0,1.13,1.28l0,0a1.86,1.86,0,0,0,1.56.24,1.8,1.8,0,0,0,1.06-1.14,2.39,2.39,0,0,0,.11-1.73,2.48,2.48,0,0,0-1.14-1.29"/><path class="cls-5" d="M3746.16,537.06l-.09,0a7.1,7.1,0,0,0-3.1-1,4.34,4.34,0,0,0-2.73.7l-.17-.09.41-2.44-2.57-1.47-6.72,16.65,3.29,1.88,3.35-8.3q1.26-3.12,2.76-3.89a3.62,3.62,0,0,1,3.57.41l.08,0a3.62,3.62,0,0,1,1.84,2.21,5.47,5.47,0,0,1-.45,3.29l-4.13,10.24,3.3,1.88,4.38-10.86q2.45-6-3-9.23"/><path class="cls-5" d="M3761.19,541.46l-2-1.16-2.53,2.89h-2.79l-.64,1.58,2.12,1.2-3.62,9q-2.13,5.25,2.44,7.91l.08,0a11,11,0,0,0,1.86.85,6.89,6.89,0,0,0,1.58.37l1.07-2.66a8.68,8.68,0,0,1-2.57-1l0,0a2.79,2.79,0,0,1-1.28-1.48,3.05,3.05,0,0,1,.17-2.23l3.6-8.91,4.4,2.51,1.08-2.69-4.41-2.51,1.5-3.7"/><path class="cls-5" d="M3783,551.46l-.13-.07a10.46,10.46,0,0,0-3.69-1.32,11.32,11.32,0,0,0-4.2.31l.84,3.35a10.21,10.21,0,0,1,3.22-.23,6.37,6.37,0,0,1,2.45.83l.08,0a4.1,4.1,0,0,1,1.88,2.13,3.79,3.79,0,0,1-.11,2.82,5.45,5.45,0,0,1-1.18,1.83,7.81,7.81,0,0,1-1.92,1.4,43.47,43.47,0,0,1-4.57,1.88l-7.58,2.7-1.08,2.68,13.85,7.91,1.26-3.12-9.7-5.53.06-.16,5-1.67a31.91,31.91,0,0,0,5-1.91,10,10,0,0,0,2.63-1.89,7.52,7.52,0,0,0,1.64-2.54,6.71,6.71,0,0,0,0-5.29,8.61,8.61,0,0,0-3.8-4.15"/></g></g><path class="cls-45" d="M3573.09,457c-2.05,3.07-49,126.64-49,126.64"/><path class="cls-27" d="M4181.88,687.29l-98.15-57.66,107.59-31.77C4197.45,616.9,4198.91,646,4181.88,687.29Z"/><polygon class="cls-46" points="4675.05 455 4521.86 887 4181.88 687.29 4083.73 629.63 4191.31 597.86 4675.05 455"/><g class="cls-2"><g class="cls-47"><path class="cls-5" d="M4624.07,371.37l-2.93-1.67a17.05,17.05,0,0,0-5.7,4.4,24.67,24.67,0,0,0-4.18,7,27.15,27.15,0,0,0-1.93,8.12,23.51,23.51,0,0,0,.74,7.93l2.89,1.65a28.29,28.29,0,0,1-.44-8.08,27.68,27.68,0,0,1,1.88-7.87,25.12,25.12,0,0,1,4-6.73,20.07,20.07,0,0,1,5.66-4.74"/><polyline class="cls-5" points="4638.18 386.15 4634.38 383.99 4628.36 387.86 4627.17 379.86 4623.34 377.68 4625.28 389.02 4616.22 394.53 4620.02 396.7 4626.47 392.55 4627.79 401.14 4631.59 403.31 4629.52 391.44 4638.18 386.15"/><path class="cls-5" d="M4638,403.51l-.08,0a6.15,6.15,0,0,0-2.2-.79,6.63,6.63,0,0,0-2.49.19l.49,2a6.11,6.11,0,0,1,1.92-.14,3.77,3.77,0,0,1,1.46.49l0,0a2.42,2.42,0,0,1,1.12,1.26,2.31,2.31,0,0,1-.07,1.69,3.56,3.56,0,0,1-.69,1.09,4.93,4.93,0,0,1-1.16.82,23.75,23.75,0,0,1-2.71,1.12l-4.5,1.61-.64,1.59,8.23,4.71.75-1.86-5.77-3.3,0-.08,3-1a21.1,21.1,0,0,0,3-1.12,6.47,6.47,0,0,0,1.56-1.13,4.68,4.68,0,0,0,1-1.52,4,4,0,0,0,0-3.15,5.11,5.11,0,0,0-2.25-2.46"/><path class="cls-5" d="M4641.62,419.3l-1.92-1.1a48,48,0,0,1-2.67,4l1.44.82a29.15,29.15,0,0,0,3.19-3.45l0-.28"/><path class="cls-5" d="M4676.34,407.94l-3.62-2.06c-4.95,5.58-7.69,8.71-8.25,9.39a16.54,16.54,0,0,0-1.3,1.78l-.11-.07a22.64,22.64,0,0,0,.59-4.43l.68-11.46-3.65-2.09-.52,20.61-1.23,1.27q-2.2,2.46-4.64,1.07l-.12-.06a10.05,10.05,0,0,1-1.53-1.1l-1.15,2.85a11.63,11.63,0,0,0,2,1.45l.09.06q4.29,2.44,8.28-1.8l14.51-15.41"/><path class="cls-5" d="M4675.48,424.91l0,0a6.3,6.3,0,0,0-2.2-.77,6.68,6.68,0,0,0-2.5.18l.5,2a6.45,6.45,0,0,1,1.92-.14,3.89,3.89,0,0,1,1.46.49,2.5,2.5,0,0,1,1.16,1.3,2.24,2.24,0,0,1-.07,1.68,3.56,3.56,0,0,1-.69,1.09,4.87,4.87,0,0,1-1.15.83,27.32,27.32,0,0,1-2.72,1.12l-4.51,1.61-.64,1.59,8.24,4.7.75-1.85-5.77-3.3,0-.09,3-1a18.64,18.64,0,0,0,2.95-1.12,6.1,6.1,0,0,0,1.57-1.13,4.48,4.48,0,0,0,1-1.51,4,4,0,0,0,0-3.16,5.14,5.14,0,0,0-2.29-2.48"/><path class="cls-5" d="M4692.06,410.19l-2.92-1.67a28.74,28.74,0,0,1-1.48,16.15,24.38,24.38,0,0,1-4,6.66,20.15,20.15,0,0,1-5.58,4.65l2.89,1.66a16.33,16.33,0,0,0,5.64-4.25,24.16,24.16,0,0,0,4.14-6.9,27.69,27.69,0,0,0,2-8.23,23.84,23.84,0,0,0-.68-8.07"/></g></g><g class="cls-2"><g class="cls-48"><path class="cls-5" d="M4043,621.57l-2.92-1.66a17.05,17.05,0,0,0-5.7,4.4,24.44,24.44,0,0,0-4.18,7,27.07,27.07,0,0,0-1.93,8.13,23,23,0,0,0,.73,7.92l2.9,1.65a27.54,27.54,0,0,1-.44-8.07,27.17,27.17,0,0,1,1.87-7.88,25.1,25.1,0,0,1,4-6.74,20.55,20.55,0,0,1,5.65-4.74"/><polyline class="cls-5" points="4057.07 636.37 4053.28 634.2 4047.26 638.08 4046.05 630.08 4042.24 627.9 4044.17 639.22 4035.12 644.74 4038.92 646.91 4045.36 642.76 4046.69 651.35 4050.49 653.51 4048.41 641.65 4057.07 636.37"/><path class="cls-5" d="M4058.4,654.81l-1.63-.93-4.8,1,.44,1.9,2.54-.58a5,5,0,0,0,.65-.21c-.28.57-.62,1.36-1,2.36l-3.41,8.46,2,1.12,5.28-13.1"/><path class="cls-5" d="M4060.51,669.51l-1.92-1.09a46.33,46.33,0,0,1-2.67,4l1.44.82a29.23,29.23,0,0,0,3.19-3.45l0-.28"/><path class="cls-5" d="M4095.23,658.16l-3.62-2.08c-4.94,5.59-7.69,8.71-8.24,9.39a17.17,17.17,0,0,0-1.3,1.78l-.12-.06a21.21,21.21,0,0,0,.59-4.42l.68-11.47-3.65-2.09-.53,20.61-1.22,1.27c-1.47,1.64-3,2-4.63,1.08a9.69,9.69,0,0,1-1.66-1.18l-1.15,2.87a12.06,12.06,0,0,0,2,1.44l.11.05q4.29,2.46,8.27-1.79l14.51-15.4"/><path class="cls-5" d="M4095.92,676.24l-1.63-.93-4.8,1,.44,1.9,2.53-.58c.26-.08.48-.14.67-.21-.29.56-.63,1.35-1,2.36l-3.42,8.46,2,1.11,5.29-13.09"/><path class="cls-5" d="M4111,660.4l-2.92-1.67a28.19,28.19,0,0,1,.43,8.21,27.78,27.78,0,0,1-1.91,7.94,24.35,24.35,0,0,1-4,6.66,20.56,20.56,0,0,1-5.59,4.66l2.89,1.64a16.39,16.39,0,0,0,5.64-4.24,24,24,0,0,0,4.15-6.9,28,28,0,0,0,2-8.23,23.84,23.84,0,0,0-.68-8.07"/></g></g><g class="cls-2"><g class="cls-49"><path class="cls-5" d="M4376.14,514.29a4.17,4.17,0,0,1-2.15-3,9.2,9.2,0,0,1,.81-4.84,7.87,7.87,0,0,1,2.74-3.86,3,3,0,0,1,3.34,0l.07.05a4.65,4.65,0,0,1,2.42,3,9,9,0,0,1-.86,5.11l-.21.51q-1.17,2.81-2.61,3.51a3.69,3.69,0,0,1-3.52-.46l0,0M4392,497.12l-3.37-1.93-2.5,6.19a25.94,25.94,0,0,0-.92,3l-.18-.1a7.21,7.21,0,0,0-3.64-5.12l-.09-.05a5.47,5.47,0,0,0-5.58-.32c-1.75.91-3.18,2.76-4.31,5.54a12.64,12.64,0,0,0-.95,7.42,7.23,7.23,0,0,0,3.59,4.88l.09.05a5.3,5.3,0,0,0,5.74.17l.16.08-.32,2.57,2.63,1.5,9.65-23.91"/></g></g><g class="cls-2"><g class="cls-50"><path class="cls-5" d="M4211.61,651.17a3.94,3.94,0,0,1-2-3.54q-.09-2.48,1.77-7.06c1.23-3.07,2.41-5.09,3.53-6.08a2.85,2.85,0,0,1,3.6-.39l0,0a4,4,0,0,1,2,3.62,19,19,0,0,1-1.74,7c-1.22,3-2.4,5-3.53,6a2.88,2.88,0,0,1-3.62.38l-.05,0m8.24-20-.08,0c-2.39-1.36-4.54-1.44-6.46-.22s-3.69,3.8-5.29,7.76c-1.52,3.79-2.08,7-1.67,9.64a7.91,7.91,0,0,0,4,5.9l.08.05c2.4,1.37,4.56,1.43,6.49.21s3.68-3.81,5.26-7.71,2.08-7,1.68-9.66a7.89,7.89,0,0,0-4-5.92"/></g></g><g class="cls-2"><g class="cls-51"><path class="cls-5" d="M4589.86,657.71l-3.62-2.08q-7.41,8.39-8.24,9.4a15.27,15.27,0,0,0-1.3,1.78l-.12-.07a21.87,21.87,0,0,0,.6-4.43l.67-11.46-3.65-2.08-.52,20.61-1.23,1.25c-1.47,1.66-3,2-4.63,1.09a9.57,9.57,0,0,1-1.65-1.17l-1.16,2.86a12,12,0,0,0,2,1.44l.1.06q4.29,2.45,8.27-1.8l14.51-15.4"/></g></g><g class="cls-2"><g class="cls-52"><path class="cls-5" d="M4346.14,741.58l-3.79-2.17-6,3.89-1.19-8-3.83-2.18,1.94,11.33-9.05,5.52,3.79,2.17,6.46-4.15,1.32,8.58,3.79,2.17-2.07-11.86,8.66-5.29"/></g></g><polygon class="cls-53" points="4529 653.47 4557.6 668.79 4563.72 625.21 4529 653.47"/><polygon class="cls-53" points="4289.51 733.04 4318.11 748.36 4324.23 704.79 4289.51 733.04"/><line class="cls-53" x1="4209.34" y1="639.6" x2="4221.6" y2="647.26"/><path class="cls-54" d="M1239.72,1729.27c18-10.42,53.59-31.73,81.61-44.27,18.17,10.35,34.3,20.45,31.81,22.41-5.17,4-28.68,15-79.42,41.4a22.74,22.74,0,0,1-16.41,1.76,42.31,42.31,0,0,1-4.41-1.38c-6.63-2.74-15.87-7.29-25.3-12.38C1231.31,1734.34,1235.33,1731.8,1239.72,1729.27Z"/><path d="M1473.93,1770.53l-203.36,118.58s-18.63,9.41-37.09,10.62-34.5-7-45.7-12.12-37-20-42.37-25-20-15.57-5.51-29.81,252.24-137.61,271.5-138.39,78,48.48,79.46,57C1492.27,1759.65,1484.78,1764.26,1473.93,1770.53Z"/><path class="cls-55" d="M1135.14,1807.38c-.73-8.06-.68-18.66,2-24.1C1140.67,1783.87,1135.14,1807.38,1135.14,1807.38Z"/><path class="cls-56" d="M1136.37,1791.54a15.17,15.17,0,0,1,5.2-14.42c5-3.88,1.41,9.4-.34,12.14A5.14,5.14,0,0,1,1136.37,1791.54Z"/><path class="cls-14" d="M1486.85,1705.73c-.47-2.27-1.32-3.9-8.06-11.07s-31.24-15.61-31.24-15.61l25.81,38Z"/><polygon class="cls-57" points="1467.52 1758.13 1444.32 1742.6 1402.76 1768.09 1305.79 1846.45 1282.94 1831.41 1239.1 1859.94 1234.33 1756.81 1477.63 1696.38 1467.52 1758.13"/><polygon class="cls-58" points="1275.54 1813.55 1295.73 1825.19 1263.76 1879.49 1243.53 1867.8 1250.22 1831.84 1275.54 1813.55"/><polygon class="cls-58" points="1436.89 1720.36 1457.07 1732.01 1425.39 1786.48 1405.15 1774.79 1413.36 1738.27 1436.89 1720.36"/><path class="cls-56" d="M1381,1644.46c-.15,1.29,1.17,3.44,3.13,5.82,4.73,5.8,13.16,13,13.16,13l78.67,28.44,2.42.87q-1.08-1.08-2.31-2.19c-15.25-13.85-46.46-32.13-68.95-40.94-2-.78-3.92-1.49-5.76-2.11a58.26,58.26,0,0,0-17.32-4.19C1382,1643,1381.13,1643.5,1381,1644.46Z"/><path class="cls-56" d="M1142.71,1825.48c3.86,1.89,2.35.87,10.24-3.69l2.24-1.29v-10c0-16.5,11.66-36.58,26-44.88s26-1.66,26,14.83v10l109.34-63.13v-10c0-16.49,11.65-36.57,26-44.87s26-1.66,26,14.83v17.12l5.79-3.34s14.86-9.76,20.68-19.14c1.11-1.8,5.26-26,3.69-30.7s-7.66-7.58-18.41-8.44c-8.85-.68-44.29,10.78-44.29,10.78s-31.83-9.63-52.36-.56c-23.64,10.43-106.37,55.55-112,61-11.13,10.83-26.5,42.51-29,50.83-.1.33-2.47,20.53-2.78,21.86-1.13,4.75-2.39,3.37-3.15,6.85S1138.87,1823.58,1142.71,1825.48Z"/><path class="cls-59" d="M1181.21,1727.31s-13.37,11.8-27.19,15.89c5.18-11.28,11.73-23.38,17.68-29.17,5.64-5.49,88.36-50.61,112-61,20.53-9.06,52.36.57,52.36.57l-6.35,3.75Z"/><path class="cls-55" d="M1136.14,1791.67c.76-3.49,2.7-.2,3.83-5,.28-1.17,2.14-17,2.66-21,9.27-5.38,26.34-18.54,37.75-24.49,15.22-7.91,59-27.79,67.66-31.83s63.37-26.24,85.25-40.16,38.7-9.75,42.08-9.34,14.55-3.75,23.4-8.74c1.57,4.69-2.58,28.9-3.69,30.7-5.82,9.38-20.68,19.14-20.68,19.14l-5.79,3.34v-17.12c0-16.49-11.65-23.12-26-14.83s-26,28.38-26,44.87v10l-109.34,63.13v-10c0-16.49-11.65-23.12-26-14.83s-26,28.38-26,44.88v10l-2.24,1.29c-7.89,4.56-10.51,4.12-13.45,1C1132.54,1815.38,1136,1794.45,1136.14,1791.67Z"/><ellipse class="cls-60" cx="1342.59" cy="1702.3" rx="31.52" ry="18.19" transform="matrix(0.5, -0.86, 0.86, 0.5, -804.59, 2002.23)"/><ellipse class="cls-60" cx="1181.21" cy="1795.47" rx="31.52" ry="18.19" transform="translate(-964.96 1909.06) rotate(-59.69)"/><path class="cls-59" d="M1139.94,1787.32a.39.39,0,0,0,.06.13.45.45,0,0,0,.1.13.78.78,0,0,0,.18.11c1.07.36,4.18-1.89,5-6.38,0-.17.06-.32.08-.48s.07-.43.11-.63a52.17,52.17,0,0,0,.29-7c0-.71.06-1.5.17-2.42,0,0,0,0,0,0a71.29,71.29,0,0,1,1.23-7.63c2.45-11.72,22.61-43.14,25.44-47,2.68-3.64,26-18.31,28.2-19.7-15.39,8.63-27.15,15.61-29.14,17.54-9,8.75-20.4,29-25.76,40.82a.11.11,0,0,0,0,.05c-1,2.1-1.71,3.92-2.22,5.38-.19.52-.35,1-.46,1.4a45.84,45.84,0,0,0-1.29,6.16c-.06.35-.11.7-.16,1.06-.13,1-.25,1.94-.34,2.92s-.18,1.82-.26,2.71c-.38,4.34-.57,8.4-1,11.06-.07.4-.13.78-.22,1.14A1.15,1.15,0,0,0,1139.94,1787.32Z"/><path class="cls-56" d="M1313.2,1719.26v10l3.37-2v-10c0-16.49,11.65-36.57,26-44.87s26-1.66,26,14.83v17.12l3.37-1.94v-17.13c0-18.62-13.16-26.11-29.39-16.74S1313.2,1700.63,1313.2,1719.26Z"/><path class="cls-56" d="M1151.82,1812.43v10c.36-.18.75-.39,1.13-.61l2.24-1.29v-10c0-16.5,11.66-36.58,26-44.88s26-1.66,26,14.83v10l3.37-1.94v-10c0-18.62-13.15-26.12-29.38-16.75S1151.82,1793.81,1151.82,1812.43Z"/><path class="cls-59" d="M1141.89,1771.72c.18-1.47.35-2.83.49-4h0c.1-.82.18-1.5.25-2l5.41-3.13c1.24-.68-.26-3.14,1.31-4.05l8.19-4.72,8.19-4.61a39,39,0,0,1-2.16,4.88c-1.55,2.19-10,11-12.69,12.57C1148.83,1767.89,1144,1770.56,1141.89,1771.72Z"/><path class="cls-60" d="M1329.72,1657.3s-26.67,21.36-29.87,23.2-89.25,42.8-89.25,42.8l-29.39,4s12.17-22.2,16.11-25.26c3.4-2.64,70.47-39,89.4-47C1304.94,1651,1329.72,1657.3,1329.72,1657.3Z"/><polygon class="cls-59" points="1249.7 1673.39 1250.49 1704.17 1242.7 1707.89 1246.17 1675.25 1249.7 1673.39"/><polygon class="cls-59" points="1288.16 1654.73 1309.91 1672.97 1301.92 1679.31 1285.09 1655.72 1288.16 1654.73"/><path class="cls-55" d="M1139.5,1822.78s10,9.24,13.42,11.71c11.69,8.36,37.13,22,49.9,28.55,8.77,4.52,35.24,15.64,35.24,15.64s10.1-32.4-3-39.12-95-52.84-95-52.84Z"/><path class="cls-56" d="M1336.07,1653.55l43.13,48.72,25.15,28.41,69.39-24.07.9-.32,10.84-3.76h0c-.25-.39-4.86-7.9-7.06-9.89-.26-.25-.53-.48-.81-.73-2.37-2.1-5.18-4.35-8.32-6.68h0l-.17-.13s0,0-.06,0c-18.48-13.7-48-30.15-65.19-35.42-2.76-.85-18-6.15-18-6.15Z"/><path class="cls-5" d="M1431.82,1703c23.43-7.8,42-1.91,45.81-6.63.17-.49-1.7-4.12-1.63-4.62a7.34,7.34,0,0,0,.11-1.15.48.48,0,0,0,0-.17c-15.25-13.85-46.46-32.13-68.95-40.94-1.23,0-5-2.3-6.27-2.29a104.36,104.36,0,0,0-12.53.64c-12.38,1-30.95,4.67-35.46,7.66C1345.19,1660.61,1400.15,1687.29,1431.82,1703Z"/><path class="cls-61" d="M1435,1710.65s-6.56-11.76-9.06-14.27c-15-15-42.4-30.32-62.87-37.62-5.92-2.11-36.88-7.55-36.88-7.55s-16.89-3.68-31.77,0-102.64,51.09-102.64,51.09L1173.7,1719l93.61,57.63Z"/><path class="cls-59" d="M1371.25,1692.65l8.35,6.3a94.76,94.76,0,0,1,21-.25c7.78.76,16.91,2.36,22.17,3.36a2.25,2.25,0,0,0,2.45-3.17l-1.76-3.77-11.79-9.3a52.21,52.21,0,0,0-5.75-3.94l-23.75-14a50.78,50.78,0,0,0-8.53-4c-4.59-1.68-11.5-4.23-14.44-5.38-4.59-1.8-21.78-5.31-21.78-5.31s7.18.89,9.21,1.08,14.76,1.76,17,2.66,24.89,9.87,41.65,20.44,22.9,16.33,24,18.22c5.8,10,5.8,15.12,5.8,15.12-5.41-1.81-27.27-7.3-41.1-8.35-6.59-.25-14.69,0-14.69,0Z"/><path class="cls-62" d="M1288.16,1654.73l-3.06,1c.57-.25,1.11-.49,1.62-.7,18.22-4,43,2.28,43,2.28s-11.08,8.87-19.81,15.67Z"/><path class="cls-59" d="M1379.47,1702.21s-5.79-7.55-8.22-9.56c-15.39-12.76-50.39-33.35-69.25-40-2.71-1-11.28-2-11.28-2l-10.59,4L1201,1696.38,1171.7,1714l99.28,58Z"/><path class="cls-55" d="M1229.94,1847.33s-11.59-3-15.24-4.57c-10.29-4.44-41-21.64-41-21.64s-25.69-13.95-32.94-21c-1.35-1.33-3.94-6.5-3.94-6.5l3.15-6.85,93.11,53.77Z"/><path class="cls-59" d="M1233.08,1840.48c-1.49.49-15.16-1.44-26.52-7.88-17-9.61-40.18-23.82-55.54-33.35-9.63-6-11-12.53-11-12.53s3.63-.74,4.12-5.46.72-18,1.74-20.77S1171.7,1714,1171.7,1714l88.85,51.29s-13,23.31-17.87,38.44S1240.16,1827.24,1233.08,1840.48Z"/><path class="cls-14" d="M1233.26,1877c-.2-.1,13.51,4.81,18.6,1.87l2.25-1.3v-10c0-16.49,11.65-36.58,26-44.87s26-1.66,26,14.83l-.35,8.9,109.34-63.13.35-8.9c0-16.49,11.65-36.57,26-44.87s26-1.66,26,14.83v13.75L1473,1755s9.32-7.85,12.22-18.5c.55-2,3.23-26.07,1.66-30.75s-5,.9-15.6-1.26c-8.69-1.76-36.27,6.18-36.27,6.18s-46.16-13.38-62.42-6.37c-23.74,10.23-106.38,55.56-112,61-11.14,10.82-22.24,45-24.68,53.29-.1.33-2.47,20.53-2.79,21.86-1.12,4.75-2.39,3.37-3.14,6.85S1229.42,1875.12,1233.26,1877Z"/><path class="cls-5" d="M1280.13,1784.42s-18.42,8.89-32.24,13c5.19-11.28,6.71-26.29,12.66-32.08,5.64-5.49,88.25-50.85,112-61,17.18-7.38,62.43,6.37,62.43,6.37l-6.36,3.76Z"/><path class="cls-55" d="M1229.94,1847.33c.75-3.48,2-2.1,3.14-6.85.28-1.17,2.15-17,2.66-21,9.28-5.38,32.14-15.19,43.56-21.14,15.21-7.92,59-27.79,67.66-31.83s55.27-26.41,77.19-40.27c24.73-15.64,34.73-14.33,47.48-11.13,3.3.83,12.63,6.89,15.22-9.43,1.57,4.68.87,23,.32,25.07-2.9,10.65-14.2,24.18-14.2,24.18l-5.45,3.15v-13.75c0-16.49-11.65-23.13-26-14.83s-26,28.38-26,44.87l-.35,8.9-109.34,63.13.35-8.9c0-16.49-11.65-23.12-26-14.83s-26,28.38-26,44.87v10l-2.25,1.3c-5.09,2.94-18.8-2-18.6-1.87C1229.42,1875.12,1229.75,1850.11,1229.94,1847.33Z"/><path class="cls-63" d="M1139.5,1822.79l0,0a9.88,9.88,0,0,0,1.24,1.14l0,0c2.83,2.59,9.42,8.57,12.11,10.49,11.7,8.35,37.13,22,49.89,28.55,7.06,3.63,24.77,13,32.32,14.89.81.24,1.68.48,2.6.67a1.07,1.07,0,0,0,.3.06h0c3.86.77,8.82,3.1,13.81.22l2.23-1.28v-10c0-16.49,11.67-36.59,26-44.89s26-1.65,26,14.84l-.35,8.9,106-61.19,3.37-1.94.36-8.89c0-16.49,11.63-36.59,26-44.88s26-1.66,26,14.82v13.76l3.37-2,2.08-1.2s10-8.53,12.9-19.19a35.39,35.39,0,0,0,1.3-5c-4.21,5.09-10.12,8.79-14.35,11.48-.66-6.63-1.8-25.7-18.88-23.32s-33.61,15.61-39.79,35-3.26,23.51-3.8,25.47-84.21,48.15-88.45,49.45-11.62-.4-13.5-5.69-10.24-15.86-24.8-9.41-33.66,24.54-39.19,30.17a19.11,19.11,0,0,1-3.75,3,17.65,17.65,0,0,1-10.78,2c-.83-.06-1.66-.17-2.49-.27-5.64-.76-16.6-5.21-40.78-16.7a225.7,225.7,0,0,1-31.42-18.08c-6.23-4.29-10.57-7.75-13-9.63a26,26,0,0,1-2.47-2.39c-2.57-2.66-3.84-4.77-3.94-7.49C1135.09,1801.5,1133.93,1816.84,1139.5,1822.79Z"/><path class="cls-56" d="M1309.4,1832.7c-2.42-19.06-14.12-25.1-30.06-20.31s-32.27,19.58-27.55,47.55c9.11-29.06,28.21-44.13,45.7-41.85C1302.48,1818.74,1309.4,1832.7,1309.4,1832.7Z"/><path class="cls-56" d="M1314.08,1828.48c1.41,1,9.57,1.67,12.87-.25,19-11.09,77.23-42.81,78.74-44.23,8.55-8-57.2,24.81-68.25,29.8C1327.06,1818.49,1311.72,1826.76,1314.08,1828.48Z"/><path class="cls-56" d="M1466.75,1727.56c-30.91-11.86-46.75,19.14-54.52,45.72,0-33,14-46.76,29.66-53.78C1461.24,1710.85,1466.75,1727.56,1466.75,1727.56Z"/><ellipse class="cls-60" cx="1441.5" cy="1759.4" rx="31.52" ry="18.19" transform="translate(-804.9 2115.91) rotate(-59.69)"/><ellipse class="cls-60" cx="1280.13" cy="1852.57" rx="31.52" ry="18.19" transform="translate(-965.27 2022.73) rotate(-59.69)"/><path class="cls-64" d="M1311.51,1840.62l1-.54c21.78-12.29,92.88-52.59,93.65-55.11.83-2.75,5.11-44.3,4.82-46.8s-8.9-10.7-10.63-12.32l-.82.88c3.86,3.63,10.06,10,10.25,11.58.26,2.27-4,43.81-4.78,46.31-1.69,2.29-55.68,33.29-92.16,53.89,0-3.73-.43-16.09-7-22.71a14.38,14.38,0,0,0-11.28-4.16c-1.72.12-5-1.76-8.38-4.87s-6.2-6.83-6.2-8.37c0-11.88,4-35.74,4.06-36l-1.19-.21c0,.25-4.08,24.2-4.08,36.19,0,2.23,3.31,6.26,6.59,9.26,1.8,1.65,6.31,5.45,9.28,5.19a13.15,13.15,0,0,1,10.35,3.81c7.29,7.31,6.66,22.72,6.65,22.87Z"/><path class="cls-64" d="M1346.15,1820.65l.84-6.26c.83-6.13.72-46.09.57-47.89s-2.17-8.11-2.25-8.38l-1.15.36a73.34,73.34,0,0,1,2.2,8.12c.15,1.79.26,41.53-.56,47.63l-.85,6.26Z"/><path class="cls-59" d="M1233.08,1840.49c1.13-4.75.34-13.57,2.79-21.88s13.55-42.46,24.68-53.29c1.45-1.42,18.89-16,28.28-21.42,3.59-2.07,6.5-.05,1,3.78,0,0-22.73,16-25.87,21.38-2.41,4.09-21.4,36.08-23.66,47.84-1.61,8.32-1.61,9.84-2.74,15.61A13.16,13.16,0,0,1,1233.08,1840.49Z"/><path class="cls-59" d="M1141.24,1772.65c0,.66.47,1.13,1.17,1.47a10.64,10.64,0,0,0,3.36.68c.85.06,1.47,0,1.47,0-3.12-4.35-4.84-7.45-4-13.17-.5,2-.89,3.68-1.19,5.15-.34,1.64-.56,3-.69,4.14h0C1141.31,1771.59,1141.25,1772.14,1141.24,1772.65Z"/><path class="cls-55" d="M1412.12,1776.36l-.36,8.9,3.37-1.94.36-8.89c0-16.49,11.63-36.59,26-44.88s26-1.66,26,14.82v13.76l3.37-2v-13.74c0-18.63-13.16-26.12-29.39-16.75S1412.12,1757.74,1412.12,1776.36Z"/><path class="cls-55" d="M1250.74,1869.54v10c.36-.18.74-.39,1.12-.61l2.25-1.3v-10c0-16.49,11.65-36.58,26-44.87s26-1.66,26,14.83l-.35,8.9,3.37-2,.35-8.9c0-18.62-13.15-26.12-29.38-16.75S1250.74,1850.91,1250.74,1869.54Z"/><path class="cls-59" d="M1228.3,1871.43c-2.16-.47-6.89-3.51-8.64-4.37-3.85-1.9.65-3.65.84-6.42h0c4.8.86,6.24,5,8,8.07C1230.06,1871.45,1228.54,1871.43,1228.3,1871.43Z"/><path class="cls-59" d="M1428.63,1714.41s-27.39,20.47-29.86,23.2c-3.87,4.26-92.59,42.69-92.16,41.13l-26.48,5.68s2.09-28,6-31.07c3.41-2.64,70.47-39.06,89.4-47C1393.79,1702.29,1428.63,1714.41,1428.63,1714.41Z"/><path class="cls-61" d="M1307.46,1776.56c10.25-3.49,85.64-36.19,89.88-40.28,2.1-2.31,19.7-15.61,27.11-21.18-7.63-2.38-26.06-7.65-40.24-7.65a38.92,38.92,0,0,0-8,.73c-18.93,8-85.23,43.94-88.8,46.71-1.83,1.53-4,14.74-5.08,27.07Z"/><polygon class="cls-59" points="1338.55 1724.69 1349.35 1759.99 1341.57 1763.71 1335.01 1726.55 1338.55 1724.69"/><polygon class="cls-59" points="1383.51 1705.86 1411.17 1726.32 1403.18 1732.66 1380.44 1706.85 1383.51 1705.86"/><path class="cls-59" d="M1149.74,1826.23c-2.16-.47-2.11.59-3.65-.61-6.51-5.1-6.51-8.47-6.8-11,0-1.7.77-2.51,1.82-1.76,3.32,2.37,5.86,7.08,7.3,9.62C1150,1825.2,1149.74,1826.56,1149.74,1826.23Z"/><path class="cls-59" d="M1142.24,1814.94s6,8,8.9,10.15c10.28,7.45,16.59,13,52.38,30.37,5.81,2.82,17,5.17,17,5.17s12.22,11.7,7.16,10.75-42.75-21-53.78-27.23c-21.17-12-29.83-20.3-29.83-20.3Z"/><path class="cls-61" d="M1153,1764.29a11.88,11.88,0,0,0,1,1.49c6.6,6.26,24.52,16.86,39.94,25.17,8.63,4.64,16.48,8.57,21.14,10.63,1.77.79,7.44,2.25,7.44,2.25a12.58,12.58,0,0,0,6.35.25l.19,0h0a12.57,12.57,0,0,0,5.94-3.29s8.86-20,13.33-31.52a6.17,6.17,0,0,0-3.54-8c-6.2-2.4-15.83-6.16-19.93-8-2.72-1.21-5.35-2.5-7.92-3.84-9.83-5.1-18.8-11.06-28.14-17.53-2.17-1.51-7.17-5-10.19-8.38-1.94-2.15-8.06-3-10.09-1-8.73,8.9-16.5,25.18-17,26.18l0,.06c-.12.34-.24.67-.34,1a.29.29,0,0,0,0,.16C1150.08,1754.05,1150.9,1761.12,1153,1764.29Z"/><path class="cls-61" d="M1160.23,1776.59c1.18,1.08,18.68,12.23,31.46,19.25,3.67,2,6.93,3.68,9.33,4.67,8.78,3.63,16.53,6.91,27.87,3.57l.19,0s-13.94-11.27-30-23.69c-21.19-16.36-46.07-34.68-47.52-31.67l0,.06c-.12.34-.24.67-.34,1a.29.29,0,0,0,0,.16C1147.41,1761.48,1151.15,1768.21,1160.23,1776.59Z"/><path class="cls-54" d="M1191.54,1823.88c2.5-8.12.88-16.84,1-20.67.16-4.23,11.88-43,20.34-47,3.9-1.88,15.83-3.47,26.38-3.14l17.42,10.06a12.75,12.75,0,0,1-1,1.54c-11.7,15.27-20.93,40.18-22,44.41s-2.2,16.27-3.84,19c-.82,1.38-2.48,6.74-4.35,11.49a68.85,68.85,0,0,1-18.93-7C1201.93,1830,1196.82,1827,1191.54,1823.88Z"/><path class="cls-54" d="M1194,1797.06c2.75,1.46,5.18,2.67,7.07,3.45,8.78,3.63,16.53,6.91,27.87,3.57l.19,0a12.77,12.77,0,0,0,5.93-3.3s8.86-20,13.33-31.52a6.17,6.17,0,0,0-3.54-8c-5.83-2.25-14.71-5.72-19.15-7.64h0c-5.69.57-10.51,1.55-12.73,2.61-4.34,2.1-9.55,13.33-13.6,24.34-1.44,3.92-2.74,7.81-3.8,11.25C1194.9,1793.71,1194.38,1795.5,1194,1797.06Z"/><path class="cls-55" d="M1178.14,1815.86s37.86,20.47,47.7,20.23c6-.15,13-10.61,13-10.61l3.16,13.21-9.31,3.3s-21.06-4.11-24.47-5.58S1178.14,1815.86,1178.14,1815.86Z"/><path class="cls-55" d="M1140.77,1778.62s-.08,9.6,4.42,14.32c5.15,5.4,14.7,11.79,14.7,11.79s-7.45-1.94-10.59-2.8-10.38-8.24-9.8-14.21A85.45,85.45,0,0,1,1140.77,1778.62Z"/><path class="cls-65" d="M1474.07,1692.63c1.25,5.67-3.12,10.06-2.82,11.84.06.37,1.08,1.19,2.49,2.14,1.57,1.05,3.63,2.29,5.36,3.29a3.64,3.64,0,0,0,5.21-1.85,14,14,0,0,0,1.17-5.52h0c-.25-.39-4.86-7.9-7.06-9.89-.26-.25-.53-.48-.81-.73-2.37-2.1-5.18-4.35-8.32-6.68A32.54,32.54,0,0,1,1474.07,1692.63Z"/><path class="cls-66" d="M1471.25,1704.47c-.27-1.62,3.31-5.4,3-10.35a47.25,47.25,0,0,1,2.3,7.81c.18,1.19,1.2,4.14-.36,6.24-.87-.53-1.72-1.07-2.46-1.56C1472.33,1705.66,1471.31,1704.84,1471.25,1704.47Z"/><path class="cls-67" d="M1258.6,1765.77c-8.82,8.5-16,13.76-21.27,13.33s-25-8.68-40.64-17.9-29.52-19.06-33-24-1.65-7.71,2.28-11,12.79-11,12.79-11,6.18,10.87,15.7,18,38.15,23.42,43.79,25.59,12.19,4.06,16.32,4.45C1255.89,1763.49,1258.6,1765.77,1258.6,1765.77Z"/><path class="cls-59" d="M1267.42,1760.68c-16,9.25-24.82,12.83-30.09,12.4s-25-8.68-40.64-17.9-31.1-20.85-34.6-25.75-1.65-7.71,2.28-11,14.37-9.18,14.37-9.18,6.18,10.87,15.7,18,38.15,23.42,43.79,25.59,15.44,6.08,19.54,6.73S1267.42,1760.68,1267.42,1760.68Z"/><path class="cls-61" d="M1275.59,1660.19c-15.14,6.56-39.56,18.85-84.91,46.92-2,1.24-2.22,3.21-.71,5a35.85,35.85,0,0,0,5,4.71c13.22,10,42.57,26,57.89,32.36a42.31,42.31,0,0,0,4.41,1.38,22.74,22.74,0,0,0,16.41-1.76c50.74-26.35,74.25-37.35,79.42-41.4C1358.56,1703.15,1275.59,1660.19,1275.59,1660.19Z"/><path class="cls-62" d="M1247.49,1674.56l-.87.45Z"/><path class="cls-62" d="M1190,1712.17c1.9-3.08,3.79-6,5.3-7.92,10.68-6.55,20.14-12.2,28.55-17.08,7-3.77,14.66-7.89,22.31-11.92l-3.47,32.64,7.79-3.72-.79-30.77c9.43-4.94,18.56-9.62,25.89-13.21,0,0,8.77,4.55,20.4,10.81l5.82,8.16c-.91.66-1.59,1.13-2,1.34-3.19,1.85-89.25,42.8-89.25,42.8l-5.07.7c-4-2.57-7.66-5-10.52-7.17A36.24,36.24,0,0,1,1190,1712.17Z"/><path class="cls-59" d="M1223.85,1687.17l41.87-21.79c4.82-2.36,10.48-2.38,16-.14,17.55,7.11,49.85,26.18,64.9,37.47,3.27,2.45,5,5.58,2.38,7.33l-12.78,6.79,8.4-2.34,18-7.82-88.41-49.15-21.81,11.73Z"/><path class="cls-56" d="M1210.05,1833.73c12,4.23,19.55,5.72,23.79,3.77,3.11-1.43,12.47-6.13,8.13,1.19-3.89,6.56-11.13,8.94-15.48,7.72s-12.94-3.41-36.56-14.88-40.76-23.42-46.39-28.3-8.17-10.49-6.82-13.18,3.63-9.11,3.63-9.11-1.46,5.9,3.9,13.18,29.21,21.29,37.75,25.78S1210.05,1833.73,1210.05,1833.73Z"/><path class="cls-68" d="M1419.15,1772.31c0,14.17,10,19.87,22.35,12.74s22.36-24.39,22.36-38.56-10-19.87-22.36-12.74S1419.15,1758.14,1419.15,1772.31Z"/><path class="cls-69" d="M1420.54,1772.05c0,13.63,9.63,19.12,21.51,12.26s21.5-23.46,21.5-37.09-9.63-19.12-21.5-12.26S1420.54,1758.42,1420.54,1772.05Z"/><path class="cls-70" d="M1423.58,1770.36c0,11.61,8.2,16.28,18.31,10.44s18.31-20,18.31-31.58-8.2-16.28-18.31-10.44S1423.58,1758.76,1423.58,1770.36Z"/><path class="cls-71" d="M1424.15,1769.15c0,11,7.77,15.44,17.36,9.9s17.35-18.94,17.35-29.94-7.77-15.43-17.35-9.89S1424.15,1758.16,1424.15,1769.15Z"/><path class="cls-72" d="M1457.62,1752.44a37.16,37.16,0,0,1-8.89,19.25c-5,5.72-10.64,8.6-15.17,8.32a7.81,7.81,0,0,1-5.18-2.29,7.34,7.34,0,0,1-1.24-1.54c-.07-.12-.14-.22-.2-.34a8.14,8.14,0,0,1-.66-1.36,13,13,0,0,1-.62-2,18,18,0,0,1-.42-4q0-1,.09-2c0-.34.06-.66.11-1s0-.45.08-.67a6.17,6.17,0,0,1,.11-.62c.1-.63.22-1.27.38-1.91.08-.31.15-.6.24-.92a6.82,6.82,0,0,1,.23-.77c.1-.37.22-.76.35-1.13s.18-.56.28-.83a35.54,35.54,0,0,1,1.52-3.58l.36-.73c.41-.8.84-1.59,1.32-2.38l.36-.58c.22-.35.46-.71.68-1a37.56,37.56,0,0,1,2.93-3.85c.53-.61,1.07-1.19,1.62-1.72.25-.27.51-.52.77-.76l.24-.22c.2-.2.43-.39.63-.57a21.63,21.63,0,0,1,7.73-4.51c4.4-1.33,8.34-.3,10.59,3.29.08.11.15.23.21.33a11.56,11.56,0,0,1,1,2.38A19,19,0,0,1,1457.62,1752.44Z"/><path class="cls-68" d="M1436.16,1747.16,1436,1752c-1.83-.14-3.64-.32-5.33-.55.22-.35.46-.71.68-1a37.56,37.56,0,0,1,2.93-3.85c.53-.61,1.07-1.19,1.62-1.72.25-.27.51-.52.77-.76l.24-.22c.2-.2.43-.39.63-.57a21.63,21.63,0,0,1,7.73-4.51c4.4-1.33,8.34-.3,10.59,3.29C1443.25,1737.77,1436.16,1747.16,1436.16,1747.16Z"/><path class="cls-68" d="M1456.58,1752.36s-4.21,5.57-8.53,7-12.69,11.59-12.69,11.59l.64-19C1445.88,1752.78,1456.58,1752.36,1456.58,1752.36Z"/><path class="cls-73" d="M1447.92,1749.09a31.89,31.89,0,0,1-7.64,16.54,23.22,23.22,0,0,1-7.37,5.85v0a11.69,11.69,0,0,1-5.65,1.28,1.9,1.9,0,0,1-.4,0,5.3,5.3,0,0,1-1.2-.22,18,18,0,0,1-.42-4q0-1,.09-2c0-.34.06-.66.11-1s0-.45.08-.67a6.17,6.17,0,0,1,.11-.62c.1-.63.22-1.27.38-1.91.08-.31.15-.6.24-.92a6.82,6.82,0,0,1,.23-.77c.1-.37.22-.76.35-1.13s.18-.56.28-.83a35.54,35.54,0,0,1,1.52-3.58l.36-.73c.41-.8.84-1.59,1.32-2.38.33-.55.68-1.1,1-1.63a37.56,37.56,0,0,1,2.93-3.85c.53-.61,1.07-1.19,1.62-1.72.25-.27.51-.52.77-.76l.24-.22c.2-.2.43-.39.63-.57a21.63,21.63,0,0,1,7.73-4.51,7.62,7.62,0,0,1,1.32,1.7,9.59,9.59,0,0,1,.88,2,14.73,14.73,0,0,1,.56,3.45A20.44,20.44,0,0,1,1447.92,1749.09Z"/><path class="cls-74" d="M1435.43,1758.2l.41,3.8v0l-.41-3.82-3-1.72-2.15-4.42c.33-.55.68-1.1,1-1.63a37.56,37.56,0,0,1,2.93-3.85c.53-.61,1.07-1.19,1.62-1.72.25-.27.51-.52.77-.76l.24-.22c.57.34,1,.64,1.08.67l-3.71,4.26Z"/><path class="cls-75" d="M1435.43,1758.2l.41,3.8v0l-2.93,9.46-1.31,4.27c-.44.93.88,3.06.27,2.94a21.36,21.36,0,0,1-4.73-2.51c-.07-.12-.14-.22-.2-.34a8.14,8.14,0,0,1-.66-1.36,2.44,2.44,0,0,1,.22-.68l.36-1.07,5.35-15.75.25-.5Z"/><path class="cls-76" d="M1453.31,1744.05a1,1,0,0,0-1,.11l-14.2,6-.4.23V1758l3.15-1.81,11.77-4.62a3.07,3.07,0,0,0,1.38-2.29c.08-1.67,2.64-2,2.33-3.47A19.81,19.81,0,0,0,1453.31,1744.05Z"/><path class="cls-77" d="M1438.37,1764.23l-6.17-12.68a2.31,2.31,0,0,1,.45-2.26c.58-.79,1.2-1.56,1.85-2.31s1.32-1.44,2-2.09,1.35-.68,1.66-.16l6.17,12.69Z"/><path class="cls-77" d="M1440.72,1759.74v-7.63l.4-.22,14.2-6c.64-.36,1.2-.18,1.34.46a17.74,17.74,0,0,1,.35,4.68,3,3,0,0,1-1.38,2.3l-11.77,4.61Z"/><path class="cls-77" d="M1429.52,1777.46c-.41-.32-.43-1.13,0-1.94l5.71-16.82.24-.5,5.29,1.54-1.91,4-4.24,13.75c-.44.92-1.26,1.55-1.87,1.43A7.38,7.38,0,0,1,1429.52,1777.46Z"/><path class="cls-78" d="M1432.69,1777a1.62,1.62,0,0,0,.23-.35l4.35-14,5.42-6.22,12-4.77a1.34,1.34,0,0,0,.46-.79,17.22,17.22,0,0,0-.08-2.81l-14.65,6.27-3.26-7.62c-.45.45-.89.92-1.31,1.41-.61.7-1.21,1.44-1.77,2.2a1.32,1.32,0,0,0-.21.45l3.35,7.79s-6.14,17.71-6.15,17.72A5.72,5.72,0,0,0,1432.69,1777Z"/><path class="cls-68" d="M1257.77,1865.48c0,14.17,10,19.87,22.36,12.75s22.35-24.4,22.35-38.56-10-19.88-22.35-12.75S1257.77,1851.31,1257.77,1865.48Z"/><path class="cls-69" d="M1259.16,1865.22c0,13.63,9.63,19.12,21.51,12.26s21.5-23.46,21.5-37.09-9.62-19.12-21.5-12.26S1259.16,1851.59,1259.16,1865.22Z"/><path class="cls-70" d="M1262.2,1863.53c0,11.61,8.2,16.28,18.31,10.45s18.32-20,18.32-31.59-8.2-16.28-18.32-10.44S1262.2,1851.93,1262.2,1863.53Z"/><path class="cls-71" d="M1262.77,1862.33c0,11,7.77,15.43,17.36,9.89s17.36-18.94,17.36-29.94-7.77-15.43-17.36-9.89S1262.77,1851.33,1262.77,1862.33Z"/><path class="cls-79" d="M1296.24,1845.61a37.14,37.14,0,0,1-8.88,19.25c-5,5.72-10.64,8.6-15.17,8.32a7.79,7.79,0,0,1-5.19-2.29,7,7,0,0,1-1.23-1.54,3.13,3.13,0,0,1-.21-.34,8.1,8.1,0,0,1-.65-1.36,11.94,11.94,0,0,1-.63-2,18,18,0,0,1-.41-4c0-.64,0-1.29.08-1.94,0-.35.06-.67.11-1l.09-.67c0-.21.06-.41.1-.62.11-.63.22-1.27.39-1.9.07-.32.15-.61.24-.93a6.77,6.77,0,0,1,.22-.77c.1-.37.22-.76.36-1.13a8.09,8.09,0,0,1,.28-.83,35.44,35.44,0,0,1,1.51-3.58l.36-.73c.42-.8.85-1.59,1.32-2.38l.36-.58c.22-.35.46-.71.68-1.05a37.56,37.56,0,0,1,2.93-3.85c.53-.61,1.07-1.19,1.62-1.72.25-.27.52-.52.77-.76l.24-.22c.21-.2.43-.39.64-.57a21.6,21.6,0,0,1,7.72-4.51c4.4-1.33,8.34-.3,10.6,3.29l.21.33a11.53,11.53,0,0,1,1,2.38A18.83,18.83,0,0,1,1296.24,1845.61Z"/><path class="cls-68" d="M1274.79,1840.33l-.17,4.87c-1.82-.14-3.64-.32-5.33-.55.22-.35.46-.71.68-1.05a37.56,37.56,0,0,1,2.93-3.85c.53-.61,1.07-1.19,1.62-1.72.25-.27.52-.52.77-.76l.24-.22c.21-.2.43-.39.64-.57a21.6,21.6,0,0,1,7.72-4.51c4.4-1.33,8.34-.3,10.6,3.29C1281.87,1830.94,1274.79,1840.33,1274.79,1840.33Z"/><path class="cls-68" d="M1295.2,1845.53s-4.2,5.57-8.53,7-12.69,11.59-12.69,11.59l.64-19C1284.5,1846,1295.2,1845.53,1295.2,1845.53Z"/><path class="cls-80" d="M1286.54,1842.26a31.81,31.81,0,0,1-7.64,16.54,23.22,23.22,0,0,1-7.37,5.85v0a11.67,11.67,0,0,1-5.64,1.28,1.92,1.92,0,0,1-.41,0,5.4,5.4,0,0,1-1.2-.22,18,18,0,0,1-.41-4c0-.64,0-1.29.08-1.94,0-.35.06-.67.11-1l.09-.67c0-.21.06-.41.1-.62.11-.63.22-1.27.39-1.9.07-.32.15-.61.24-.93a6.77,6.77,0,0,1,.22-.77c.1-.37.22-.76.36-1.13a8.09,8.09,0,0,1,.28-.83,35.44,35.44,0,0,1,1.51-3.58l.36-.73c.42-.8.85-1.59,1.32-2.38.33-.55.69-1.1,1-1.63a37.56,37.56,0,0,1,2.93-3.85c.53-.61,1.07-1.19,1.62-1.72.25-.27.52-.52.77-.76l.24-.22c.21-.2.43-.39.64-.57a21.6,21.6,0,0,1,7.72-4.51,8,8,0,0,1,1.33,1.7,10.1,10.1,0,0,1,.87,2,14.81,14.81,0,0,1,.57,3.45A20.48,20.48,0,0,1,1286.54,1842.26Z"/><path class="cls-81" d="M1274.05,1851.37l.41,3.8v0l-.41-3.82-3-1.72-2.16-4.42c.33-.55.69-1.1,1-1.63a37.56,37.56,0,0,1,2.93-3.85c.53-.61,1.07-1.19,1.62-1.72.25-.27.52-.52.77-.76l.24-.22c.58.34,1,.64,1.08.67l-3.71,4.26Z"/><path class="cls-82" d="M1274.05,1851.37l.41,3.8v0l-2.93,9.46-1.31,4.27c-.44.93.88,3.06.27,2.94a20.69,20.69,0,0,1-4.72-2.51,3.13,3.13,0,0,1-.21-.34,8.1,8.1,0,0,1-.65-1.36,2.15,2.15,0,0,1,.22-.68l.35-1.07,5.35-15.75.26-.5Z"/><path class="cls-83" d="M1291.94,1837.22a1,1,0,0,0-1,.11l-14.2,6-.4.23v7.62l3.15-1.81,11.77-4.61a3.07,3.07,0,0,0,1.38-2.3c.08-1.67,2.65-2,2.33-3.47A19.71,19.71,0,0,0,1291.94,1837.22Z"/><path class="cls-77" d="M1277,1857.4l-6.16-12.68a2.31,2.31,0,0,1,.44-2.26q.88-1.18,1.86-2.31c.65-.75,1.31-1.44,2-2.09s1.36-.68,1.66-.16l6.17,12.69Z"/><path class="cls-77" d="M1279.34,1852.91l0-7.62.39-.23,14.21-6c.64-.36,1.2-.18,1.33.46a17.74,17.74,0,0,1,.35,4.68,3.06,3.06,0,0,1-1.37,2.3l-11.77,4.61Z"/><path class="cls-77" d="M1268.14,1870.63c-.41-.32-.43-1.13,0-1.94l5.71-16.82.24-.5,5.29,1.54-1.9,4-4.24,13.75c-.45.92-1.27,1.55-1.88,1.43A7.48,7.48,0,0,1,1268.14,1870.63Z"/><path class="cls-78" d="M1271.32,1870.19a1.82,1.82,0,0,0,.22-.34l4.35-14,5.43-6.22,12-4.77a1.27,1.27,0,0,0,.46-.79,17.22,17.22,0,0,0-.08-2.81l-14.65,6.27-3.26-7.62c-.44.45-.88.92-1.31,1.41-.61.7-1.2,1.44-1.76,2.2a1.33,1.33,0,0,0-.22.46l3.35,7.78-6.14,17.72A5.72,5.72,0,0,0,1271.32,1870.19Z"/><path class="cls-84" d="M1477.61,1691.9c.28.25.55.48.81.73,2.2,2,6.81,9.5,7.06,9.89,0,0-4.39-5.61-6.79-8s-9.4-9.25-9.4-9.25C1472.43,1687.55,1475.24,1689.8,1477.61,1691.9Z"/><path class="cls-85" d="M1473.73,1698.11a10.5,10.5,0,0,0,.34-5.48,32.54,32.54,0,0,0-4.78-7.41c3.14,2.33,6,4.58,8.32,6.68l.53.48c.76,1.63,1.2,3.21.59,4-1.57,2-5,1.74-5,1.74Z"/><path class="cls-66" d="M1471.72,1688.43a2.42,2.42,0,0,1,.37.58h0Z"/><path class="cls-12" d="M1480.73,1709.23a3,3,0,0,0,2.88-1.75l.12-.27c.79-1.75,2.63-5.86-.07-14.72l-2.49.76c2.42,7.92.85,11.41.19,12.9l-.14.29c-.11.26-.65.18-.93.12l-1.85-1.43-1.59,2.06,2.23,1.73.21.07A4.35,4.35,0,0,0,1480.73,1709.23Z"/><path class="cls-86" d="M1206.68,1813.68c1.41.56,7.3,2.72,17.61,3.92,3.25.37,14.11-.79,18.6-2.66s18.12-7.76,18.12-7.76l-.92,4.26s-12.7,5.89-17.2,7.76-15.35,3-18.6,2.66c-11.93-1.39-18-4-18-4Z"/><path class="cls-86" d="M1142.06,1766.83c-.34,1.64-.56,3-.69,4.14h0a15,15,0,0,0,1,3.14c0,.13.12.26.18.39a21.39,21.39,0,0,0,2.5,4.61c1.62,2,4.45,4.47,9.52,8.85.1,0,.32-4,.32-4-3.37-3.22-5.88-5.39-7.47-7.1a17.07,17.07,0,0,1-1.69-2.1,32,32,0,0,1-2.52-4.91A18.2,18.2,0,0,1,1142.06,1766.83Z"/><path class="cls-54" d="M1219.1,1742.73l.77-.55a218.88,218.88,0,0,1,19.85-12.91c24.36-14.1,80.9-48.14,107.34-53.42h0c13.29-2.65,31.52-2.5,47.36-.74,3.17.34,6.24.76,9.16,1.24.55.32,1.07.64,1.59,1,16.77,10.58,22.9,16.33,24,18.21,5.73,9.89,5.77,15,5.77,15.13l-.6-.18c-6.21-2-27.09-7.15-40.48-8.18-1.16,0-2.37-.07-3.58-.09-2.4-.11-4.71-.12-6.91,0-2,0-3.49,0-4,.07l-.56.36a25.45,25.45,0,0,0-6.28,1.66c-23.76,10.19-106.37,55.55-112,61-.13.13-.25.28-.37.41l-.86-.5c-11,5.89-17.69,8.2-22,7.85-4.78-.4-21.48-7.21-36.2-15.39A170.19,170.19,0,0,1,1219.1,1742.73Z"/><path class="cls-54" d="M1239.72,1729.27c17.78-10.29,52.71-31.21,80.57-43.81,10.27,6.15,19.89,12.41,26.34,17.25,3.26,2.45,5,5.57,2.39,7.32l0,0-12.71,6.75c-12.84,6.6-33.1,16.71-62.54,32a22.74,22.74,0,0,1-16.41,1.76,42.31,42.31,0,0,1-4.41-1.38c-6.63-2.74-15.87-7.29-25.3-12.38C1231.31,1734.34,1235.33,1731.8,1239.72,1729.27Z"/><path class="cls-87" d="M1428.32,1622.78a54.18,54.18,0,0,1-8.59,2.5,50.45,50.45,0,0,1-28.3-2.43,63.93,63.93,0,0,1-10.63-5.23c-28.17-17.13-72-59.66-94.8-82.59a63.61,63.61,0,0,0-36.55-18.21l-92.08-12.56,80.41,78.79a91.62,91.62,0,0,1,26.15,49.39c2.13,12,3.7,26,2.9,38.85-1.06,17.29-6.37,32.64-20.21,38.86-39.28,17.64-71.77-17.16-71.77-17.16s-9,98.19-99.94,41.43c0,0-5.2,45.09-36.22,46-11.13.34-41-10.13-74.64-23.7-60.11-24.25-132.48-58.36-132.48-58.36L663.15,1580.07s-777.25-301.72-904.84-423.5S-369,1033.33-368.3,924.07-211.9-163.29-211.9-163.29l463.59,46.88,91.1,22L153.36,611.27,102.21,801.16A78,78,0,0,0,128.44,882c98.9,80,356.91,286,457.21,339.06,82.8,43.82,150.82,77.25,187.42,94.88a125.45,125.45,0,0,0,61,12.26l7.8-.41,199.29-10.48a206.32,206.32,0,0,1,95.76,18l130.19,58.82a206.3,206.3,0,0,1,84.95,70.95l67.08,97.36,19.09,27.7C1446.21,1601.72,1441.42,1617.81,1428.32,1622.78Z"/><path class="cls-7" d="M841.91,1327.82c-141.77,97-580-230-754.51-368.9A149.23,149.23,0,0,1,34.62,809.65c26.45-118.57,193.67-821,217.07-926.06l91.1,22L153.36,611.27,102.21,801.16A77.94,77.94,0,0,0,128.44,882c98.89,80,356.91,286,457.21,339.06,82.8,43.82,150.81,77.25,187.42,94.88a125.47,125.47,0,0,0,61,12.26Z"/><path class="cls-7" d="M1246.62,1710.15c-39.28,17.64-71.77-17.16-71.77-17.16s-9,98.19-99.94,41.43c0,0-5.2,45.09-36.22,46-11.13.34-41-10.13-74.64-23.7,22.89,2.65,47.11,1.8,60.83-9.6,31.35-26.05-46-118.92-46-118.92s3.33-10.58,16.8,7.77,53.34,71.19,76.79,81.43,59.54,19.12,84.23-9.41-79.92-128.35-79.92-128.35,5.62-7,20.93,7.65,72.39,96.91,97.81,107.58c18.1,7.6,52.75,3.69,71.34-23.62C1265.77,1688.58,1260.46,1703.93,1246.62,1710.15Z"/><path class="cls-7" d="M1391.43,1622.85a63.93,63.93,0,0,1-10.63-5.23c-28.17-17.13-72-59.66-94.8-82.59a63.61,63.61,0,0,0-36.55-18.21l-92.08-12.56s-29.85-16.25-27.92-48.71l133.81,22.73a44.25,44.25,0,0,1,27.3,16.23Z"/><path class="cls-88" d="M1428.32,1622.78a54.18,54.18,0,0,1-8.59,2.5c-8-8.25-15.52-19.47-20.92-28.38a17.79,17.79,0,0,1,5.1-23.88l15.27-10.54,19.09,27.7C1446.21,1601.72,1441.42,1617.81,1428.32,1622.78Z"/><path class="cls-8" d="M333.31-374.85A98.18,98.18,0,0,1,419.93-262c-17.3,110.28-49.2,288.16-92.46,421.87C281.17,303,252.22,476.42,238.62,571a98.21,98.21,0,0,1-84.72,83.4c-120,15.44-354,19.8-486.15-148.45a98.53,98.53,0,0,1-20.83-68.41l60-777.44A98.21,98.21,0,0,1-184.78-430Z"/><path d="M455.51,2508.23c42.8-4.16,86.39-8.28,128.46.57,32.69,6.88,63.19,21.33,94.52,32.88,197,72.55,436.29,34.56,601.51,164a1990.42,1990.42,0,0,0-252.41,61.24c-82.42,25.8-163.09,57-245.6,82.46-262.09,81-538.11,103.92-811.67,124.46-24.46,1.83-53.39,1.74-68-18-13.2-17.82-7.78-42.74-1.79-64.1q44.37-158.16,88.75-316.3c6.81-24.42,15-23.36,39.84-25.78l81.95-8,162.62-15.81,92.19-9C395.29,2514.09,426,2508.23,455.51,2508.23Z"/><path d="M193.07,2155.65c77.53-22.23,155.5-44.56,235.64-53.7,219.91-25.07,437.52,50.15,646.08,124.23a578.86,578.86,0,0,0-201.14,85.39l32.41,47c-58.63,99-210.43,77-307.34,139-61.9,39.64-96,110.52-149.38,161-131.18,124-340.33,99.37-509.28,163-97.77,36.79-181.07,103.18-262.57,168.52Q-354,2800.63-385.4,2611.19c-14.33-86.31-39.75-249.54,47.95-309,29.14-19.77,70.25-17.37,103.48-24.76,67.13-14.94,133.26-37.51,199.35-56.46Z"/><path class="cls-89" d="M-122.55,1357.1S24.94,1262.27,77.2,1165.5s133.54-89,160.63-121.93,31-102.58,89-139.35,137.41-180,340.63-73.54c0,0-112.26-13.55-164.51,75.48s-91,96.77-141.28,176.12-75.48,133.54-147.09,191.6-36.77,151-102.58,203.21-234.58,255.47-234.58,255.47Z"/><path class="cls-90" d="M1162.94,1533.22s-40.73,6.08-93.57,13.48c-41.46,5.79-90.34,12.39-132.87,17.49-96.76,11.61-449,211-449,211l-605.78,412.22-1.63-163-2.64-224.06,149.42-94.83,71.62,116.12L61.71,1684.18S282.35,1541,388.79,1525.48l36.78,96.76,5.79-110.3s38.71,25.15,100.64,17.41,251.6-89,391-46.45S1162.94,1533.22,1162.94,1533.22Z"/><path class="cls-91" d="M1069.37,1546.7c-41.46,5.79-90.34,12.39-132.87,17.49-96.76,11.61-449,211-449,211l-605.78,412.22-1.63-163L-8,1920.3l108.38,19.35L54,1885.45s180-112.25,265.14-147.08S524.27,1661,555.24,1637.73s87.08-61.93,87.08-61.93V1661l58.07-92.89s54.18,3.86,118.06,3.86,118-36.76,207.08-31A323.53,323.53,0,0,1,1069.37,1546.7Z"/><path class="cls-91" d="M1294.55,1982.23s89,48.38,29,238.05c0,0-216.76-253.54-497.39-228.38Z"/><path class="cls-89" d="M-122.55,2092.54l269.42-195.47,151,79.35-91-116.12s123.86-42.58,257.4-48.39,311.6-9.67,311.6-9.67,79.35,92.89,133.54,100.64,385.14,79.35,385.14,79.35-414.17,23.22-532.23,61.93-151,106.44-243.86,143.22-641,240-641,240Z"/><path class="cls-90" d="M547.16,2817.5l8.08,14.36,0,0c-4.34,1.62-285.73,106.79-492.67,104.46-67.9-.77-148-.94-187.48-32.32l2.41-457.3s50.73-108.39,170.72-145.15,406.43,1.93,406.43,1.93L443,2624.78l91-309.67s524.49,232.25,661.89,209L503,2739Z"/><path class="cls-91" d="M503,2739s172.25-100,172.25-262.57c0,0,233.53-15.48,336.75-3.87s183.86,51.62,183.86,51.62Z"/></g></g></g></svg>