<svg id="Layer_1" data-name="Layer 1" xmlns="http://www.w3.org/2000/svg" xmlns:xlink="http://www.w3.org/1999/xlink" viewBox="0 0 4500 2500"><defs><style>.cls-1{fill:none;}.cls-2{fill:#aed3f0;}.cls-3{fill:#c3dcf3;}.cls-10,.cls-11,.cls-12,.cls-13,.cls-14,.cls-15,.cls-16,.cls-17,.cls-18,.cls-19,.cls-20,.cls-21,.cls-22,.cls-23,.cls-24,.cls-25,.cls-26,.cls-28,.cls-3,.cls-30,.cls-31,.cls-32,.cls-33,.cls-34,.cls-35,.cls-36,.cls-37,.cls-38,.cls-39,.cls-45,.cls-46,.cls-47,.cls-5,.cls-50,.cls-6,.cls-7,.cls-8,.cls-9{fill-rule:evenodd;}.cls-4{clip-path:url(#clip-path);}.cls-5{fill:url(#linear-gradient);}.cls-6{fill:url(#linear-gradient-2);}.cls-7{fill:#f7fbff;}.cls-8{fill:#d9edff;}.cls-9{fill:#8ebbe5;}.cls-10{fill:#cce6ff;}.cls-11{fill:#dfecf9;}.cls-12{fill-opacity:0.1;}.cls-13{fill:#ff87b8;}.cls-14{fill:#ffdfec;}.cls-15,.cls-16,.cls-45{fill:#ec6198;}.cls-15{fill-opacity:0.45;}.cls-16{fill-opacity:0.55;}.cls-17,.cls-36,.cls-48{fill:#fff;}.cls-18,.cls-31,.cls-40{fill:#4067b1;}.cls-19{fill:#33528d;}.cls-20,.cls-29{fill:#2d4584;}.cls-21{fill:#e8f6ff;}.cls-22{fill:url(#linear-gradient-3);}.cls-23{fill-opacity:0.36;}.cls-24{fill:url(#linear-gradient-4);}.cls-25{fill:#f9f2d4;}.cls-26{fill:#ebd063;}.cls-27{clip-path:url(#clip-path-2);}.cls-28{fill:gray;fill-opacity:0;}.cls-30{fill-opacity:0.2;}.cls-31,.cls-32,.cls-33{fill-opacity:0.96;}.cls-32{fill:#0d6198;}.cls-33{fill:#37548c;}.cls-34{fill:#d0edff;}.cls-35{fill:#a5ddff;}.cls-36{fill-opacity:0.38;}.cls-37{fill-opacity:0.23;}.cls-38{fill-opacity:0.17;}.cls-39{fill:#bee6ff;}.cls-41{fill:#3fa092;}.cls-42{fill:#0e847c;}.cls-43{fill:url(#linear-gradient-5);}.cls-44{fill:url(#linear-gradient-6);}.cls-46{fill-opacity:0.21;}.cls-47{fill-opacity:0.16;}.cls-49{fill:#a93a66;}.cls-50{fill:#234f4c;}</style><clipPath id="clip-path"><rect class="cls-1" width="4500" height="2500"/></clipPath><linearGradient id="linear-gradient" x1="1290.19" y1="1790.25" x2="1291.38" y2="1790.24" gradientTransform="matrix(82.43, -2803.25, -2636.12, -93.2, 4616715.32, 3785872.3)" gradientUnits="userSpaceOnUse"><stop offset="0" stop-opacity="0"/><stop offset="0.56" stop-opacity="0.2"/><stop offset="1"/></linearGradient><linearGradient id="linear-gradient-2" x1="1289.56" y1="1791.13" x2="1290.74" y2="1791.13" gradientTransform="matrix(1031.3, -482.79, -482.79, -1031.29, -462048.07, 2470699.1)" gradientUnits="userSpaceOnUse"><stop offset="0" stop-opacity="0"/><stop offset="0.65" stop-opacity="0.14"/><stop offset="1"/></linearGradient><linearGradient id="linear-gradient-3" x1="1290.29" y1="1790.64" x2="1291.47" y2="1790.64" gradientTransform="matrix(280.95, -1762.98, -1762.98, -280.95, 2796404.84, 2779346.35)" gradientUnits="userSpaceOnUse"><stop offset="0" stop-opacity="0"/><stop offset="1"/></linearGradient><linearGradient id="linear-gradient-4" x1="1290.57" y1="1790.21" x2="1291.75" y2="1790.21" gradientTransform="matrix(-1230.7, -1698.49, -1698.5, 1230.7, 4631275.24, -9827.17)" gradientUnits="userSpaceOnUse"><stop offset="0" stop-color="#fff" stop-opacity="0"/><stop offset="1" stop-color="#fff"/></linearGradient><clipPath id="clip-path-2"><polygon class="cls-1" points="1684.94 333.4 2615 256.04 2806.07 1160.69 1876.01 1238.05 1684.94 333.4"/></clipPath><linearGradient id="linear-gradient-5" x1="1288.93" y1="1791.55" x2="1290.12" y2="1791.55" gradientTransform="matrix(697.89, -324.77, -324.77, -697.9, -317564.17, 1671353.64)" xlink:href="#linear-gradient-3"/><linearGradient id="linear-gradient-6" x1="1288.36" y1="1791.88" x2="1289.55" y2="1791.88" gradientTransform="matrix(573.55, -181.66, -181.66, -573.55, -413107.38, 1264117.22)" gradientUnits="userSpaceOnUse"><stop offset="0" stop-opacity="0"/><stop offset="0.44" stop-opacity="0.3"/><stop offset="1"/></linearGradient></defs><g id="c45"><rect class="cls-2" width="4500" height="2500"/><path class="cls-3" d="M0,2127.58c35.63,1.64,71.23,4.73,106.19,7.23,159.3,11.3,346.16,19.91,498.19,71.27C772.2,2262.81,934.66,2333.51,1107,2376.6c382.56,95.64,843.16,51.13,1189.21-140.69,163.75-90.77,316.27-198.81,442.64-337.53,265-290.87,309.65-505.54,712-653.87,185.79-68.5,395.06-124.44,593.6-132.91,149.28-6.35,307.47,12.72,455.57,37.92V2500H0ZM4500,432.69c-139.92,67.58-294.28,109.59-441,101.2-224.45-12.83-353-126.38-537.79-232.83C3273.68,158.47,3014.6,86.15,2726.91,115.68c-381.94,39.21-681.1,291-1018.68,443.58C1163.32,805.64,518.24,884.36,0,641.9V0H4500Z"/><rect class="cls-1" width="4500" height="2500"/><g class="cls-4"><path class="cls-5" d="M4340.09-173.8,3277.55-76.37V1460.47l17.34,4.25,5.23,9,13.46,2.63,12,12.31,9.29,3.09,8.09,3.33,9.66,9.43L4340.09,1363Z"/><path class="cls-6" d="M4340.09-173.8,3277.55-76.37V1390l17.34,4,5.23,8.54,13.46,2.45,12,11.7,9.29,2.91,8.09,3.14,9.66,9,987.46-139.11Z"/><path class="cls-7" d="M4365.76-123,3303.22-25.55V1321.77l17.35,3.53,5.22,7.81,13.46,2.15,12,10.66,9.29,2.6,8.08,2.83,9.66,8.15,987.46-135.17Z"/><polygon class="cls-8" points="3390.34 109.18 4275.95 27.97 4275.95 133.75 3390.34 214.96 3390.34 109.18"/><polygon class="cls-9" points="3447.41 262.7 4187.8 194.8 4187.8 879.8 3447.41 947.69 3447.41 262.7"/><path class="cls-8" d="M3516.65,868.75l-61.42,5.63v61.31l61.42-5.63Zm366.69-33.63-61.42,5.63v61.31l61.42-5.63ZM3590,862l-61.42,5.63V929l61.42-5.63Zm366.69-33.63L3895.29,834v61.3l61.42-5.63Zm-293.31,26.9L3602,860.92v61.31l61.43-5.63Zm366.68-33.63-61.42,5.64v61.31l61.42-5.64Zm-293.31,26.9-61.43,5.63V915.5l61.43-5.63Zm366.68-33.62L4042,820.57v61.31l61.41-5.63Zm-293.31,26.89-61.43,5.64v61.31l61.43-5.64Zm366.68-33.62-61.41,5.63v61.31l61.41-5.63Zm0-75.59-61.41,5.63v61.29l61.41-5.63Zm-366.68,33.62-61.43,5.63v61.3l61.43-5.63Zm293.31-26.9L4042,745v61.29l61.41-5.63ZM3736.77,773l-61.43,5.63v61.3l61.43-5.64Zm293.31-26.9-61.42,5.63V813l61.42-5.63ZM3663.4,779.7,3602,785.33v61.29L3663.4,841Zm293.31-26.9-61.42,5.63v61.3l61.42-5.63ZM3590,786.43l-61.42,5.63v61.29l61.42-5.63Zm293.32-26.9-61.42,5.63v61.3l61.42-5.64Zm-366.69,33.62-61.42,5.64v61.29l61.42-5.63Zm0-75.59-61.42,5.63v61.3l61.42-5.63Zm366.69-33.63-61.42,5.64v61.29l61.42-5.63ZM3590,710.83l-61.42,5.63v61.3l61.42-5.63Zm366.69-33.62-61.42,5.63v61.3l61.42-5.64ZM3663.4,704.1,3602,709.74V771l61.43-5.63Zm366.68-33.62-61.42,5.63v61.3l61.42-5.64Zm-293.31,26.9L3675.34,703V764.3l61.43-5.63Zm366.68-33.63L4042,669.38v61.3l61.41-5.63Zm-293.31,26.9-61.43,5.63v61.3l61.43-5.64ZM4176.82,657l-61.41,5.63V724l61.41-5.63Zm-366.68-42-61.43,5.63V682l61.43-5.63Zm293.31-26.9L4042,593.78v61.31l61.41-5.64Zm-366.68,33.63-61.43,5.63v61.31l61.43-5.63Zm293.31-26.9-61.42,5.64v61.3l61.42-5.63ZM3663.4,628.5,3602,634.13v61.31l61.43-5.63Zm293.31-26.9-61.42,5.63v61.31l61.42-5.63ZM3590,635.23l-61.42,5.63v61.31l61.42-5.63Zm293.32-26.9L3821.92,614v61.31l61.42-5.63ZM3516.65,642l-61.42,5.64V708.9l61.42-5.64Zm660.17-60.53-61.41,5.63v61.31l61.41-5.63Zm0-73.9-61.41,5.64v61.31l61.41-5.64Zm-660.17,60.54-61.42,5.63V635l61.42-5.63Zm366.69-33.62-61.42,5.63v61.31l61.42-5.63ZM3590,561.33,3528.6,567v61.31l61.42-5.64Zm366.69-33.62-61.42,5.63v61.31l61.42-5.63Zm-293.31,26.9L3602,560.24v61.31l61.43-5.64ZM4030.08,521l-61.42,5.63v61.31l61.42-5.63Zm-293.31,26.9-61.43,5.63v61.31l61.43-5.63Zm366.68-33.63L4042,519.88v61.31l61.41-5.63Zm-293.31,26.9-61.43,5.63v61.31l61.43-5.63Zm0-75.59-61.43,5.63v61.3l61.43-5.64Zm293.31-26.9L4042,444.29v61.3l61.41-5.63Zm-366.68,33.62-61.43,5.64v61.29l61.43-5.63Zm293.31-26.89L3968.66,451v61.3l61.42-5.64ZM3663.4,479,3602,484.65v61.29l61.43-5.63Zm293.31-26.89-61.42,5.63V519l61.42-5.63ZM3590,485.74l-61.42,5.63v61.3L3590,547Zm293.32-26.9-61.42,5.64v61.29l61.42-5.63Zm-366.69,33.63-61.42,5.63v61.3l61.42-5.63Zm660.17-60.54-61.41,5.63v61.3l61.41-5.63Zm0-75.6L4115.41,362v61.31l61.41-5.64ZM3810.14,390l-61.43,5.63v61.31l61.43-5.63Zm293.31-26.9L4042,368.69V430l61.41-5.63Zm-366.68,33.63-61.43,5.63v61.31l61.43-5.63Zm293.31-26.9-61.42,5.63v61.31l61.42-5.63ZM3663.4,403.41,3602,409v61.31l61.43-5.63Zm293.31-26.9-61.42,5.63v61.31l61.42-5.63ZM3590,410.14l-61.42,5.63v61.31l61.42-5.64Zm293.32-26.9-61.42,5.63v61.31l61.42-5.63Zm-366.69,33.62-61.42,5.64v61.3l61.42-5.63Zm660.17-136.13-61.41,5.63v61.31l61.41-5.63Zm-366.68,33.63L3748.71,320V381.3l61.43-5.63Zm293.31-26.9L4042,293.09V354.4l61.41-5.63Zm-366.68,33.63-61.43,5.63V388l61.43-5.64Zm293.31-26.9-61.42,5.63v61.31l61.42-5.63ZM3663.4,327.81,3602,333.45v61.31l61.43-5.64Zm293.31-26.89-61.42,5.63v61.31l61.42-5.63ZM3590,334.54l-61.42,5.63v61.31l61.42-5.63Zm293.32-26.9-61.42,5.64v61.31l61.42-5.64Zm-366.69,33.63-61.42,5.63v61.31l61.42-5.63Zm660.17-136.13-61.41,5.63v61.3l61.41-5.63Zm-366.68,33.62-61.43,5.64v61.29l61.43-5.63Zm293.31-26.89L4042,217.5v61.3l61.41-5.64Zm-366.68,33.62-61.43,5.64v61.29l61.43-5.63Zm293.31-26.89-61.42,5.63v61.29l61.42-5.63ZM3663.4,252.22,3602,257.85v61.3l61.43-5.63Zm293.31-26.9L3895.29,231v61.29l61.42-5.63ZM3590,259l-61.42,5.63v61.3l61.42-5.63Zm293.32-26.9-61.42,5.64V299l61.42-5.63Zm-366.69,33.63-61.42,5.63v61.3l61.42-5.64Z"/><polygon class="cls-10" points="3390.34 109.18 3612.9 88.77 3612.9 194.55 3390.34 214.96 3390.34 109.18"/><polygon class="cls-9" points="4179.21 937.99 3845.06 968.63 3845.06 981.92 4179.21 951.28 4179.21 937.99"/><polygon class="cls-9" points="4179.21 1024.33 3845.06 1054.97 3845.06 1068.26 4179.21 1037.62 4179.21 1024.33"/><polygon class="cls-9" points="3760.63 975.31 3398.05 1008.56 3398.05 1021.85 3760.63 988.6 3760.63 975.31"/><polygon class="cls-9" points="4036.24 1080.19 3845.07 1097.72 3845.07 1111.01 4036.24 1093.48 4036.24 1080.19"/><path class="cls-10" d="M3374,13.59l-20.57,1332.56,17.09,6.14L3405.48,5.34Z"/><path class="cls-10" d="M3347.91,10.52l-4.84,1329.08,5.5,4.06L3354.11,1.31Z"/><path class="cls-10" d="M3330.81,10.39l-4.19,1323.67,6.17-.22,5.69-1332.6Z"/><polygon class="cls-7" points="3376.14 11.82 4438.69 -85.62 4438.69 1261.7 3376.14 1359.14 3376.14 11.82"/><path class="cls-10" d="M3376.51,1181s14.64,97.63,60,129.29c0,0,106.54,30.07,167.37,28l-227.56,20.26Z"/><path class="cls-10" d="M3443.45,1243.19s52.36,56.32,142.7,71.27Z"/><polygon class="cls-8" points="3463.26 146.55 4348.87 65.34 4348.87 171.12 3463.26 252.33 3463.26 146.55"/><polygon class="cls-9" points="3520.32 300.07 4260.73 232.18 4260.73 917.17 3520.32 985.07 3520.32 300.07"/><path class="cls-8" d="M3589.57,906.12l-61.42,5.63v61.31l61.42-5.63Zm366.7-33.63-61.43,5.63v61.31l61.43-5.63Zm-293.33,26.9L3601.52,905v61.31l61.42-5.63Zm366.69-33.63-61.42,5.64v61.31l61.42-5.64Zm-293.31,26.9-61.43,5.63V959.6l61.43-5.63ZM4103,859l-61.42,5.63V926l61.42-5.64Zm-293.31,26.89-61.43,5.63v61.31l61.43-5.63Zm366.68-33.62L4115,857.94v61.31l61.41-5.63ZM3883.06,879.2l-61.43,5.64v61.31l61.43-5.64Zm366.68-33.62-61.41,5.63v61.31l61.41-5.63Zm0-75.59-61.41,5.63v61.29l61.41-5.63Zm-366.68,33.62-61.43,5.63v61.3l61.43-5.63Zm293.31-26.9L4115,782.35v61.29l61.41-5.63Zm-366.68,33.63L3748.26,816v61.3l61.43-5.64ZM4103,783.44l-61.42,5.64v61.29l61.42-5.63Zm-366.68,33.63-61.43,5.63V884l61.43-5.64Zm293.31-26.9-61.42,5.63v61.3l61.42-5.63ZM3662.94,823.8l-61.42,5.63v61.29l61.42-5.63Zm293.33-26.9-61.43,5.63v61.3l61.43-5.64Zm-366.7,33.62-61.42,5.64v61.29l61.42-5.63Zm0-75.59-61.42,5.63v61.3l61.42-5.63Zm366.7-33.62-61.43,5.63v61.29l61.43-5.63ZM3662.94,748.2l-61.42,5.64v61.29l61.42-5.63Zm366.69-33.62-61.42,5.63v61.3l61.42-5.64Zm-293.31,26.89-61.43,5.64V808.4l61.43-5.63ZM4103,707.85l-61.42,5.63v61.3l61.42-5.63Zm-293.31,26.9-61.43,5.63v61.29l61.43-5.63Zm366.68-33.63L4115,706.75v61.3l61.41-5.63ZM3883.06,728l-61.43,5.63V795l61.43-5.64Zm366.68-33.63L4188.33,700v61.29l61.41-5.63Zm-366.68-42L3821.63,658v61.31l61.43-5.63Zm293.31-26.89L4115,631.15v61.31l61.41-5.64Zm-366.68,33.62-61.43,5.63v61.31l61.43-5.63ZM4103,632.24l-61.42,5.64v61.31l61.42-5.64Zm-366.68,33.63-61.43,5.63v61.31l61.43-5.63ZM4029.63,639l-61.42,5.63v61.31l61.42-5.63ZM3662.94,672.6l-61.42,5.63v61.31l61.42-5.63Zm293.33-26.9-61.43,5.63v61.31l61.43-5.63Zm-366.7,33.63L3528.15,685v61.31l61.42-5.64Zm660.17-60.54-61.41,5.63v61.31l61.41-5.63Zm0-73.89-61.41,5.63v61.31l61.41-5.64Zm-660.17,60.53-61.42,5.64v61.3l61.42-5.63Zm366.7-33.62-61.43,5.63v61.31l61.43-5.63Zm-293.33,26.9-61.42,5.63v61.31l61.42-5.64Zm366.69-33.63-61.42,5.63V632l61.42-5.63ZM3736.32,592l-61.43,5.63v61.31l61.43-5.63ZM4103,558.35,4041.58,564v61.31l61.42-5.63Zm-293.31,26.9-61.43,5.63v61.31l61.43-5.63Zm366.68-33.63L4115,557.25v61.31l61.41-5.63Zm-293.31,26.9-61.43,5.63v61.31l61.43-5.63Zm0-75.59-61.43,5.63v61.3l61.43-5.64ZM4176.37,476,4115,481.66V543l61.41-5.63Zm-366.68,33.63-61.43,5.63v61.29l61.43-5.63ZM4103,482.76l-61.42,5.63v61.3l61.42-5.64Zm-366.68,33.62L3674.89,522v61.29l61.43-5.63Zm293.31-26.89-61.42,5.63v61.3l61.42-5.64Zm-366.69,33.62-61.42,5.63V590l61.42-5.63Zm293.33-26.9-61.43,5.64v61.29l61.43-5.63Zm-366.7,33.63-61.42,5.63v61.3l61.42-5.63Zm660.17-60.54-61.41,5.63v61.3l61.41-5.63Zm0-75.6-61.41,5.63v61.31l61.41-5.63Zm-366.68,33.62L3821.63,433v61.31l61.43-5.63Zm293.31-26.9L4115,406.06v61.31l61.41-5.64Zm-366.68,33.63-61.43,5.63V501l61.43-5.63ZM4103,407.15l-61.42,5.64v61.3l61.42-5.63Zm-366.68,33.63-61.43,5.63v61.31l61.43-5.63Zm293.31-26.9-61.42,5.63v61.31l61.42-5.63Zm-366.69,33.63-61.42,5.63v61.31l61.42-5.63Zm293.33-26.9-61.43,5.63v61.31l61.43-5.63Zm-366.7,33.62-61.42,5.64v61.31l61.42-5.64ZM4249.74,318.1l-61.41,5.64V385l61.41-5.63Zm-366.68,33.63-61.43,5.63v61.31l61.43-5.63Zm293.31-26.9L4115,330.46v61.31l61.41-5.63Zm-366.68,33.63-61.43,5.63V425.4l61.43-5.63ZM4103,331.56l-61.42,5.63V398.5l61.42-5.63Zm-366.68,33.62-61.43,5.64v61.31l61.43-5.64Zm293.31-26.89-61.42,5.63v61.31l61.42-5.63Zm-366.69,33.62-61.42,5.64v61.3l61.42-5.63ZM3956.27,345l-61.43,5.63V412l61.43-5.64Zm-366.7,33.62-61.42,5.63v61.31l61.42-5.63Zm660.17-136.13-61.41,5.63v61.3l61.41-5.63Zm-366.68,33.63-61.43,5.63v61.29l61.43-5.63Zm293.31-26.9L4115,254.87v61.3l61.41-5.64Zm-366.68,33.62-61.43,5.64v61.29l61.43-5.63ZM4103,256l-61.42,5.63v61.3l61.42-5.64Zm-366.68,33.62-61.43,5.63v61.3l61.43-5.63Zm293.31-26.9-61.42,5.64v61.29l61.42-5.63Zm-366.69,33.63L3601.52,302v61.3l61.42-5.63Zm293.33-26.9-61.43,5.64v61.29l61.43-5.63Zm-366.7,33.63-61.42,5.63V370l61.42-5.64Z"/><polygon class="cls-10" points="3463.26 146.55 3685.82 126.14 3685.82 231.92 3463.26 252.33 3463.26 146.55"/><polygon class="cls-9" points="4252.13 975.36 3917.98 1006 3917.98 1019.29 4252.13 988.65 4252.13 975.36"/><polygon class="cls-9" points="4252.13 1061.7 3917.98 1092.34 3917.98 1105.63 4252.13 1074.99 4252.13 1061.7"/><polygon class="cls-9" points="3833.55 1012.68 3470.97 1045.93 3470.97 1059.22 3833.55 1025.97 3833.55 1012.68"/><polygon class="cls-9" points="4109.16 1117.56 3917.99 1135.09 3917.99 1148.38 4109.16 1130.85 4109.16 1117.56"/><path class="cls-11" d="M-261.25,1910.53l4905.67-450.69,209,1151.34-4995.2,75.6Z"/><path class="cls-12" d="M4625.37,1604.73,3293.65,1730.44a30,30,0,0,0-12.74,55.34l545.81,334.72a145.68,145.68,0,0,0,89.87,20.87l1372.57-129.56Z"/><path class="cls-13" d="M4632.54,1580.69l-1331.72,125.7a30,30,0,0,0-12.73,55.34l545.81,334.73a145.7,145.7,0,0,0,89.86,20.86l1372.57-129.56Z"/><path class="cls-14" d="M4636.87,1569.29,3305.15,1695a30,30,0,0,0-12.74,55.34l545.81,334.72a145.68,145.68,0,0,0,89.87,20.87l1372.57-129.56Z"/><polygon class="cls-15" points="3424.92 1769.45 5203.12 1613.38 5210.79 1617.75 3432.59 1773.82 3424.92 1769.45"/><polygon class="cls-15" points="3496.12 1809.97 5274.32 1653.89 5281.99 1658.26 3503.79 1814.33 3496.12 1809.97"/><polygon class="cls-15" points="3567.31 1850.48 5345.51 1694.41 5353.19 1698.77 3574.99 1854.85 3567.31 1850.48"/><polygon class="cls-15" points="3638.51 1890.99 5416.71 1734.92 5424.39 1739.29 3646.19 1895.36 3638.51 1890.99"/><polygon class="cls-15" points="3709.71 1931.51 5487.91 1775.44 5495.59 1779.8 3717.39 1935.88 3709.71 1931.51"/><polygon class="cls-15" points="3780.91 1972.02 5559.11 1815.95 5566.78 1820.32 3788.58 1976.39 3780.91 1972.02"/><polygon class="cls-15" points="3852.11 2012.54 5630.31 1856.46 5637.98 1860.83 3859.78 2016.9 3852.11 2012.54"/><polygon class="cls-16" points="3464.63 1714.7 3474.5 1713.84 4069.48 2052.4 4059.61 2053.26 3464.63 1714.7"/><polygon class="cls-16" points="3580.72 1704.51 3590.59 1703.65 4185.56 2042.21 4175.69 2043.08 3580.72 1704.51"/><polygon class="cls-16" points="3696.8 1694.33 3706.67 1693.46 4301.65 2032.02 4291.78 2032.89 3696.8 1694.33"/><polygon class="cls-16" points="3812.89 1684.14 3822.76 1683.27 4417.74 2021.83 4407.87 2022.7 3812.89 1684.14"/><polygon class="cls-16" points="3928.98 1673.95 3938.85 1673.08 4533.82 2011.64 4523.95 2012.51 3928.98 1673.95"/><polygon class="cls-16" points="4045.06 1663.76 4054.93 1662.89 4649.91 2001.45 4640.04 2002.32 4045.06 1663.76"/><polygon class="cls-16" points="4161.15 1653.57 4171.02 1652.7 4766 1991.27 4756.13 1992.13 4161.15 1653.57"/><polygon class="cls-16" points="4277.24 1643.38 4287.11 1642.51 4882.09 1981.08 4872.21 1981.94 4277.24 1643.38"/><polygon class="cls-16" points="4393.32 1633.19 4403.19 1632.33 4998.17 1970.89 4988.3 1971.75 4393.32 1633.19"/><path class="cls-17" d="M-111.43,1948.28,4693.21,1496l10.51-50-4855,444.25Z"/><path class="cls-18" d="M2334.09,1951.43l-627.46,53.69-27.78-19.36a41,41,0,0,1-13.15-52c32.19-64.11,101.94-203.06,101.94-203.06l544.88-38.34s-60.08,127.63-86.59,183.93a25.75,25.75,0,0,0,15,35.37l82.82,28Z"/><path class="cls-19" d="M2274,1774.16l-603.89,171.15a71.48,71.48,0,0,1,7.57-35.42l89.94-179.16,544.88-38.34Z"/><path class="cls-20" d="M1786.69,1739.92l-94.36,196.64a14.86,14.86,0,0,1-1.32,2.33,62.26,62.26,0,0,0-7.46,19.09c-1,5.23-1.55,11.25,1.47,16.61,3.68,6.56,11.74,11.17,25.13,14.45l603.55-51.41a21.22,21.22,0,0,1,3.56,42.3l-606.8,51.68a21.09,21.09,0,0,1-6.29-.38c-31.64-6.89-47.75-21.12-56-35.75-8.36-14.87-9-31.34-6.13-45.82a109,109,0,0,1,12.62-32.48s93.9-195.67,93.9-195.67a21.17,21.17,0,1,1,38.13,18.41Z"/><path class="cls-20" d="M659.63,539.42c-6.22-29.35,39.83-88.57,69.75-91.13L2738.86,308.87c29.92-2.56,75.7,31.25,81.92,60.6l272,1256.7c6.21,29.35-46.14,75.61-76.07,78.18L1036.82,1885.61c-13.1,1.12-31.26,1.78-54.26-6.8-24.72-9.22-42.57-25.43-46.06-41.94Z"/><path class="cls-21" d="M695.64,499.69c-6.18-29.15,13.09-54.9,43-57.46L2756.31,269.59c29.92-2.56,59.22,19,65.4,48.18L3093,1598.08c6.18,29.16-13.09,54.91-43,57.47L1032.29,1828.19c-29.91,2.56-59.21-19-65.38-48.2Z"/><path class="cls-22" d="M2585.11,284.24,1532.23,374.33l201,951.58c3.79,17.88,21.79,31.16,40.2,29.63l986.71-82.08c18.41-1.53,30.29-17.28,26.51-35.17Z"/><path class="cls-23" d="M2569.43,284.24,1558.59,371.63l193,923.11c3.63,17.34,20.92,30.22,38.6,28.73l947.31-79.61c17.67-1.49,29.07-16.77,25.44-34.12Z"/><path class="cls-24" d="M1294.19,397.15,738.6,444.69c-29.91,2.56-49.13,28.51-42.9,57.93l28.4,134Q802.57,691.35,880.32,747c451.76,323.44,882,669.74,1353.34,965.47q19.23,12.07,38.85,24.84l780.08-66.75c29.91-2.56,49.14-28.51,42.91-57.92l-16.76-79.11c-129.33-83.71-249.9-170-298.41-202.18C2293,1007.51,1806.45,680,1294.19,397.15Zm347.89-29.76c121.79,57,239.21,123.65,359.76,183.11,330.52,163,658.53,333.45,978.17,517.11l-63.37-299.09q-9-5.91-17.95-11.79c-113.39-74.22-229.07-145-344.77-215.51-86.37-52.62-175-102.44-262.42-153.45-38.61-22.55-77.51-44.42-116.57-66Z"/><path class="cls-25" d="M2605.56,125.77c-3.78-17.88-21.78-31.15-40.19-29.62l-986.72,82.07c-18.4,1.53-30.27,17.29-26.5,35.17L1776,1273.08c3.78,17.88,21.78,31.16,40.18,29.63l986.73-82.08c18.4-1.53,30.27-17.29,26.49-35.17Z"/><path class="cls-26" d="M1562.05,260.37l1053.41-87.62-9.92-47c-3.77-17.89-21.77-31.16-40.19-29.63l-986.7,82.07c-18.41,1.53-30.29,17.29-26.52,35.18Z"/><polygon class="cls-1" points="1684.94 333.4 2615 256.04 2806.07 1160.69 1876.01 1238.05 1684.94 333.4"/><g class="cls-27"><g id="Photo.png"><polygon class="cls-28" points="1563.2 189.97 2638.7 100.52 2854.7 1123.22 1779.2 1212.68 1563.2 189.97"/></g></g><path class="cls-18" d="M924.34,1628.63l34.17,161.27c6.24,29.43,35.7,51.22,65.75,48.65l2027.05-173.44c30.05-2.57,49.39-28.54,43.15-58l-34.17-161.28Z"/><ellipse class="cls-29" cx="1163.35" cy="1706.27" rx="46.35" ry="54.37" transform="translate(-754.72 940.93) rotate(-33.96)"/><path class="cls-30" d="M3549.28,2576.94c-13.62-7.58-151.89-68.87-151.89-68.87l-194.55-155.19S4202.94,2217.49,4267.73,2208a12.33,12.33,0,0,1,7.76,1.51l347.7,193.38c4.24,2.36,6.88,6.82,6.57,11.17a9,9,0,0,1-8,8.33L3557.05,2578.45A12.35,12.35,0,0,1,3549.28,2576.94Z"/><path class="cls-31" d="M3205.88,2356.46c-4.25-2.36-6.88-6.82-6.57-11.17a8.9,8.9,0,0,1,8-8.33L4272,2180.89a12.35,12.35,0,0,1,7.77,1.51l347.7,193.38c4.24,2.36,6.88,6.82,6.57,11.17a9,9,0,0,1-8,8.33L3561.34,2551.35a12.36,12.36,0,0,1-7.77-1.51Z"/><path class="cls-32" d="M3200.46,2341.39a13.14,13.14,0,0,0,5.9,6.75L3554,2541.5a12.36,12.36,0,0,0,7.81,1.53L4626.6,2387a9.27,9.27,0,0,0,6.79-4.42,10.66,10.66,0,0,1,.67,4.42,9,9,0,0,1-8,8.33L3561.33,2551.36a12.34,12.34,0,0,1-7.81-1.54c-32.66-18.15-266.67-148.32-347.65-193.35-4.26-2.39-6.91-6.85-6.62-11.2A8.93,8.93,0,0,1,3200.46,2341.39Z"/><path class="cls-33" d="M3419.78,2311.07l288.57-42.3a535.31,535.31,0,0,1,139.76,61.95l13.66,4.41c16.16,3,31.1,21,40.92,33.32,12.26,15.36,30,35.4,30.46,54.79.47,22.81-25.6,42-43.32,51.78-102.44,56.62-258.9,18.26-368.61-42.5-37.85-21-92-52-101.24-96.31C3418,2326.69,3418.08,2318.36,3419.78,2311.07Z"/><path class="cls-34" d="M3929.84,2369c22.88-37.61-45.59-95.62-84.84-117.95-72.95-41.46-153.58-57.15-231.22-58.33-36.77-.57-82.49,6.7-114.9,20.19-17,7.06-30.8,16.55-44.42,28-7.8,6.53-12.78,15.15-19.19,22.9-24.85,29.95,17.19,79.85,26.68,86.8,33.63,24.63,70.94,47.73,110.25,61.42,94.07,32.73,182.22,37.66,271.65,14.68C3878.12,2417.88,3905.66,2408.73,3929.84,2369Z"/><path class="cls-35" d="M3566.39,2195.71c18.85,12,49.88,32.4,30.51,51a58.42,58.42,0,0,1-11.5,8,68.86,68.86,0,0,1-17.92,6.63c-30,6.75-65.26,7-97,6.23-11.14-.26-23.7-2.9-35.48-3.47-24.31,30,17.47,79.6,26.93,86.53,33.63,24.63,70.94,47.73,110.25,61.42,94.07,32.73,182.22,37.66,271.65,14.68,34.27-8.79,61.81-17.94,86-57.71a31.56,31.56,0,0,0,4.47-19.32c-.82.84-1.61,1.68-2.46,2.5-18.32,18-44.06,30.21-70.86,35.22-48.45,9-100.84,8-151.73,1.08-51.4-7-107.32-11.52-156.39-36-20.37-10.17-43.53-27.88-27.29-47.06,2.43-2.88,6.74-4.75,10.09-6.53,8.71-4.65,20.51-7.23,30.19-10.21,16.74-5.19,33.44-14.54,47.24-24.12,8.68-6,22-14.79,24.84-25.67,2.08-8.05-6.47-13.42-12.76-17.43-17-10.87-37.23-19.32-56.28-26l-1,.14Z"/><path class="cls-36" d="M3739,2217.46c16.73,2.4,32.91,9.21,49.06,14.85,25.67,8.94,51.36,19.36,73.29,36.65,17,13.38,38.83,40.22,9.7,46.65a56.47,56.47,0,0,1-13.36,1.69c-12.91-.33-26.62-5.82-39.12-10-35.72-12.11-71.89-30-103.16-52.23-7.42-5.26-15.83-12.4-20.39-20.16-11.36-19.47,19.82-23.23,31.47-21"/><path class="cls-36" d="M3555.49,2210.35c8.82-2.77,20.78,2.31,27.08,10.15,4.56,5.68,5.28,13.55-2.39,15-11.27,2.07-27.7-2.65-38.57-8.17-10.27-5.17-4.19-12.81,3.29-15.23,3.4-1.13,6.89-2,10.39-2.88"/><path class="cls-35" d="M3629.3,2204.86c9.3-.91,20.9,11,24.59,18.85,2.13,4.57.07,11.07-5.57,11-1.21,0-3.81-11.43-4.64-13.14-1.18-2.36-4.34-7.47-6.75-9s-6.18-2.44-8-4.64"/><path class="cls-37" d="M1019,2110.52a12.74,12.74,0,0,0,5,.5l1692.18-165a9.93,9.93,0,0,0,1.77-19.41L2657.13,1909a9.91,9.91,0,0,0-3.67-.34L967,2068.87a12.78,12.78,0,0,0-2.52,24.93Z"/><path class="cls-38" d="M1605.49,2384.17l1807.58-165.72c13.16-1.15,14.07-25.52,6.7-29.6l-358.26-198.19c-7.3-4-23.78-6.39-36.81-5.28L1222.41,2141.1c-13,1.11-10.42,26.33-3.12,30.37l349,207.38C1575.7,2382.93,1592.34,2385.29,1605.49,2384.17Z"/><path class="cls-20" d="M1638.4,2362.5,3446,2196.78c13.16-1.15,14.07-25.52,6.69-29.6L3094.43,1969c-7.3-4-23.78-6.39-36.81-5.28L1255.33,2119.43c-13,1.12-10.42,26.33-3.12,30.37l349,207.39C1608.62,2361.26,1625.26,2363.63,1638.4,2362.5Z"/><path class="cls-39" d="M1640.38,2332.28l1801.83-155.66c13.16-1.15,17.85-5.36,10.47-9.44L3094.43,1969c-7.3-4-23.78-6.39-36.81-5.28L1255.33,2119.43c-13,1.12-17.68,5.31-10.37,9.34L1603.23,2327C1610.6,2331,1627.24,2333.4,1640.38,2332.28Z"/><path class="cls-40" d="M3001.51,2017.43l68.14-5.88c6.64-.58,9-2.71,5.29-4.76l-22-12.17c-3.72-2.06-12.1-3.26-18.73-2.69l-68.15,5.89c-6.62.57-9,2.7-5.27,4.76l22,12.17c3.71,2,12.1,3.25,18.73,2.68"/><path class="cls-40" d="M2881.36,2027.83l68.15-5.89c6.63-.57,9-2.7,5.28-4.76l-22-12.17c-3.71-2-12.1-3.25-18.73-2.68l-68.14,5.88c-6.64.58-9,2.71-5.28,4.76l22,12.17c3.71,2.06,12.09,3.26,18.72,2.69"/><path class="cls-40" d="M2761.2,2038.2l68.15-5.89c6.63-.57,9-2.7,5.28-4.75l-22-12.18c-3.71-2.05-12.09-3.25-18.72-2.68l-68.15,5.89c-6.62.57-9,2.7-5.28,4.75l22,12.18c3.72,2,12.1,3.25,18.73,2.68"/><path class="cls-40" d="M2641,2048.57l68.14-5.88c6.64-.58,9-2.71,5.29-4.76l-22-12.17c-3.72-2.06-12.1-3.26-18.73-2.69l-68.15,5.89c-6.62.57-9,2.7-5.28,4.76l22,12.17c3.71,2,12.1,3.26,18.73,2.68"/><path class="cls-40" d="M2520.88,2059l68.14-5.89c6.64-.57,9-2.7,5.29-4.75l-22-12.18c-3.71-2.05-12.09-3.25-18.72-2.68l-68.15,5.89c-6.62.57-9,2.7-5.28,4.75l22,12.18c3.71,2.05,12.1,3.25,18.73,2.68"/><path class="cls-40" d="M2400.74,2069.34l68.14-5.89c6.63-.57,9-2.7,5.28-4.75l-22-12.18c-3.71-2-12.1-3.25-18.72-2.68l-68.15,5.89c-6.63.57-9,2.7-5.28,4.76l22,12.17c3.71,2.05,12.09,3.25,18.73,2.68"/><path class="cls-40" d="M2280.58,2079.74l68.14-5.89c6.63-.57,9-2.7,5.29-4.76l-22-12.17c-3.71-2.06-12.1-3.26-18.72-2.68l-68.15,5.88c-6.63.57-9,2.71-5.28,4.76l22,12.17c3.71,2.06,12.09,3.26,18.73,2.69"/><path class="cls-40" d="M2160.41,2090.11l68.15-5.89c6.63-.57,9-2.7,5.28-4.75l-22-12.18c-3.71-2.05-12.1-3.25-18.73-2.68L2125,2070.5c-6.64.57-9,2.7-5.29,4.75l22,12.18c3.72,2.05,12.11,3.25,18.73,2.68"/><path class="cls-40" d="M2040.27,2100.48l68.15-5.89c6.63-.57,9-2.7,5.28-4.75l-22-12.18c-3.71-2-12.1-3.25-18.73-2.68l-68.14,5.89c-6.63.57-9,2.7-5.29,4.75l22,12.18c3.72,2,12.11,3.25,18.73,2.68"/><path class="cls-40" d="M1920.11,2110.88l68.15-5.89c6.63-.57,9-2.7,5.28-4.76l-22-12.17c-3.71-2.06-12.09-3.26-18.72-2.68l-68.15,5.88c-6.62.57-9,2.71-5.28,4.76l22,12.17c3.72,2.06,12.11,3.26,18.73,2.69"/><path class="cls-40" d="M1800,2121.25l68.15-5.89c6.63-.57,9-2.7,5.28-4.75l-22-12.18c-3.72-2-12.1-3.25-18.73-2.68l-68.15,5.89c-6.62.57-9,2.7-5.28,4.75l22,12.18c3.71,2,12.1,3.25,18.73,2.68"/><path class="cls-40" d="M1679.79,2131.62l68.15-5.89c6.62-.57,9-2.7,5.27-4.75l-22-12.18c-3.71-2.05-12.1-3.25-18.74-2.68l-68.14,5.89c-6.63.57-9,2.7-5.28,4.76l22,12.17c3.71,2,12.1,3.25,18.73,2.68"/><path class="cls-40" d="M1532.09,2144.37l95.7-8.24c6.63-.57,9-2.7,5.27-4.76l-22-12.17c-3.71-2.06-12.1-3.26-18.72-2.68l-95.72,8.24c-6.62.57-9,2.7-5.27,4.76l22,12.17c3.71,2.06,12.1,3.26,18.73,2.68"/><path class="cls-40" d="M1383.82,2157.2l96.25-8.34c6.63-.58,9-2.7,5.28-4.76l-22-12.17c-3.7-2.06-12.09-3.26-18.71-2.68l-96.26,8.33c-6.62.58-9,2.71-5.27,4.76l22,12.17c3.71,2.06,12.1,3.26,18.72,2.69"/><path class="cls-40" d="M3281.49,2172.31l68.15-5.88c6.63-.58,9-2.71,5.28-4.76l-54.33-30.05c-3.72-2.06-12.11-3.26-18.73-2.69l-68.15,5.89c-6.63.57-9,2.7-5.28,4.76l54.34,30.05c3.71,2.06,12.09,3.26,18.72,2.68"/><path class="cls-40" d="M3161.34,2182.71l68.14-5.89c6.64-.57,9-2.7,5.28-4.76l-54.33-30c-3.72-2.06-12.09-3.25-18.73-2.68l-68.14,5.89c-6.64.57-9,2.7-5.29,4.75l54.34,30.06c3.71,2,12.09,3.25,18.73,2.68"/><path class="cls-40" d="M3041.18,2193.08l68.14-5.89c6.64-.57,9-2.7,5.29-4.75l-54.34-30.06c-3.71-2.05-12.09-3.25-18.73-2.68l-68.14,5.89c-6.63.57-9,2.7-5.29,4.75l54.34,30.06c3.71,2,12.1,3.25,18.73,2.68"/><path class="cls-40" d="M2921,2203.45l68.14-5.88c6.64-.58,9-2.71,5.28-4.76l-54.33-30.06c-3.72-2.05-12.09-3.25-18.73-2.68l-68.15,5.89c-6.62.57-9,2.7-5.27,4.76l54.33,30.05c3.71,2.05,12.1,3.26,18.73,2.68"/><path class="cls-40" d="M2440.39,2245,2869,2208c6.64-.57,9-2.7,5.29-4.76l-54.33-30c-3.71-2.05-12.1-3.26-18.73-2.68l-428.62,37c-6.62.57-9,2.7-5.27,4.75l54.33,30.06c3.71,2.05,12.1,3.25,18.72,2.68"/><path class="cls-40" d="M2320.24,2255.36l68.15-5.89c6.63-.57,9-2.7,5.28-4.75l-54.34-30c-3.71-2.06-12.09-3.26-18.72-2.69l-68.15,5.89c-6.63.57-9,2.7-5.28,4.75l54.33,30.06c3.72,2.05,12.11,3.25,18.73,2.68"/><path class="cls-40" d="M2200.09,2265.75l68.16-5.89c6.62-.57,9-2.7,5.27-4.75l-54.33-30.06c-3.72-2.05-12.1-3.25-18.73-2.68l-68.15,5.89c-6.63.57-9,2.7-5.27,4.76l54.33,30.05c3.71,2,12.1,3.26,18.72,2.68"/><path class="cls-40" d="M2079.94,2276.13l68.15-5.89c6.63-.57,9-2.7,5.28-4.75L2099,2235.43c-3.72-2.06-12.09-3.25-18.73-2.68l-68.13,5.88c-6.64.58-9,2.71-5.29,4.76l54.33,30.06c3.71,2.05,12.1,3.25,18.73,2.68"/><path class="cls-40" d="M1805.55,2299.83l77.35-6.69c6.63-.57,9-2.7,5.28-4.75l-12.62-7c-3.71-2.06-12.1-3.26-18.72-2.68l-77.36,6.68c-6.62.57-9,2.7-5.28,4.75l12.62,7c3.72,2.06,12.1,3.26,18.73,2.69"/><path class="cls-40" d="M1673.39,2311.25l77.35-6.69c6.63-.57,9-2.7,5.28-4.75l-12.62-7c-3.71-2.06-12.1-3.25-18.72-2.68l-77.36,6.68c-6.62.57-9,2.7-5.27,4.76l12.61,7c3.71,2,12.1,3.25,18.73,2.68"/><path class="cls-40" d="M1937.71,2288.4l77.35-6.68c6.63-.57,9-2.7,5.28-4.76l-12.62-7c-3.72-2.06-12.1-3.26-18.73-2.69l-77.35,6.69c-6.63.57-9,2.7-5.28,4.75l12.62,7c3.71,2.05,12.1,3.26,18.73,2.68"/><path class="cls-40" d="M1763.82,2276.76l77.36-6.68c6.63-.57,9-2.7,5.27-4.75l-12.61-7c-3.72-2.06-12.1-3.26-18.73-2.68l-77.35,6.68c-6.63.57-9,2.7-5.28,4.75l12.62,7c3.71,2.06,12.1,3.26,18.72,2.68"/><path class="cls-40" d="M3067.46,2053.92l68.15-5.88c6.63-.58,9-2.71,5.28-4.76l-38.17-21.11c-3.71-2.06-12.1-3.26-18.73-2.69l-68.14,5.89c-6.64.57-9,2.7-5.29,4.76l38.18,21.11c3.71,2.06,12.09,3.26,18.72,2.68"/><path class="cls-40" d="M2947.31,2064.3l68.14-5.89c6.64-.57,9-2.7,5.29-4.76l-38.18-21.11c-3.71-2-12.09-3.26-18.73-2.69l-68.14,5.89c-6.63.58-9,2.7-5.28,4.76l38.17,21.11c3.71,2.06,12.09,3.26,18.73,2.69"/><path class="cls-40" d="M2827.15,2074.69l68.14-5.88c6.63-.58,9-2.71,5.29-4.76l-38.17-21.11c-3.72-2.06-12.1-3.26-18.74-2.69l-68.14,5.89c-6.63.57-9,2.7-5.28,4.75l38.17,21.12c3.71,2,12.1,3.25,18.73,2.68"/><path class="cls-40" d="M2707,2085.06l68.15-5.88c6.63-.58,9-2.71,5.28-4.76l-38.17-21.12c-3.71-2.05-12.09-3.25-18.73-2.68l-68.14,5.89c-6.64.57-9,2.7-5.29,4.76l38.18,21.11c3.71,2,12.09,3.26,18.72,2.68"/><path class="cls-40" d="M2586.84,2095.44l68.15-5.89c6.63-.57,9-2.7,5.28-4.76l-38.17-21.11c-3.72-2-12.1-3.26-18.73-2.68l-68.15,5.88c-6.63.58-9,2.71-5.28,4.76l38.18,21.12c3.71,2,12.09,3.25,18.72,2.68"/><path class="cls-40" d="M2466.68,2105.83l68.15-5.88c6.63-.58,9-2.71,5.28-4.76l-38.18-21.12c-3.71-2.05-12.09-3.25-18.72-2.68l-68.15,5.89c-6.63.57-9,2.7-5.27,4.75l38.16,21.12c3.71,2,12.1,3.26,18.73,2.68"/><path class="cls-40" d="M2346.52,2116.21l68.15-5.89c6.63-.57,9-2.7,5.28-4.76l-38.17-21.11c-3.72-2.06-12.1-3.26-18.73-2.68l-68.15,5.88c-6.62.57-9,2.71-5.28,4.76l38.18,21.11c3.71,2.06,12.09,3.26,18.72,2.69"/><path class="cls-40" d="M2226.38,2126.6l68.15-5.89c6.62-.57,9-2.7,5.27-4.75l-38.17-21.12c-3.71-2.05-12.09-3.25-18.73-2.68l-68.14,5.89c-6.63.57-9,2.7-5.28,4.75l38.16,21.12c3.71,2,12.11,3.25,18.74,2.68"/><path class="cls-40" d="M2106.22,2137l68.14-5.88c6.63-.58,9-2.71,5.29-4.76l-38.18-21.11c-3.71-2.06-12.09-3.26-18.73-2.69l-68.14,5.89c-6.63.57-9,2.7-5.28,4.75l38.17,21.12c3.71,2.05,12.1,3.25,18.73,2.68"/><path class="cls-40" d="M1986.08,2147.34l68.14-5.88c6.63-.58,9-2.71,5.28-4.76l-38.17-21.12c-3.71-2-12.09-3.25-18.73-2.68l-68.14,5.89c-6.64.57-9,2.7-5.28,4.76l38.17,21.11c3.71,2.05,12.1,3.26,18.73,2.68"/><path class="cls-40" d="M1865.91,2157.74l68.15-5.89c6.63-.57,9-2.7,5.28-4.75L1901.17,2126c-3.71-2.05-12.1-3.25-18.73-2.68l-68.14,5.89c-6.64.57-9,2.7-5.28,4.75l38.17,21.12c3.71,2.05,12.1,3.25,18.72,2.68"/><path class="cls-40" d="M1745.75,2168.11l68.15-5.88c6.63-.58,9-2.71,5.28-4.76L1781,2136.35c-3.71-2-12.09-3.25-18.72-2.68l-68.14,5.89c-6.64.57-9,2.7-5.28,4.75l38.16,21.12c3.71,2.05,12.11,3.25,18.73,2.68"/><path class="cls-40" d="M1598,2180.84l95.71-8.24c6.63-.57,9-2.7,5.28-4.76l-38.17-21.11c-3.72-2.06-12.1-3.26-18.73-2.68l-95.7,8.24c-6.63.57-9,2.7-5.28,4.76l38.17,21.11c3.71,2.05,12.1,3.26,18.72,2.68"/><path class="cls-40" d="M1449.77,2193.69l96.25-8.34c6.63-.57,9-2.7,5.28-4.76l-38.17-21.11c-3.71-2.05-12.1-3.25-18.73-2.68l-96.24,8.33c-6.64.58-9,2.71-5.28,4.76l38.17,21.12c3.71,2,12.09,3.25,18.72,2.68"/><path class="cls-40" d="M3074.93,2095.52l126.63-11c6.63-.58,9-2.71,5.29-4.76l-38.17-21.11c-3.72-2.06-12.1-3.26-18.73-2.68l-126.64,11c-6.63.58-9,2.71-5.28,4.76l38.17,21.12c3.71,2,12.1,3.25,18.73,2.68"/><path class="cls-40" d="M2893.11,2111.18l126.78-10.9c6.62-.57,9-2.7,5.28-4.76L2987,2074.41c-3.71-2.06-12.09-3.26-18.72-2.68l-126.78,10.9c-6.63.57-9,2.7-5.28,4.75l38.17,21.12c3.72,2.05,12.1,3.25,18.73,2.68"/><path class="cls-40" d="M2773,2121.56l68.14-5.89c6.63-.57,9-2.7,5.29-4.76l-38.18-21.11c-3.71-2.05-12.09-3.26-18.73-2.68l-68.14,5.88c-6.63.58-9,2.71-5.28,4.76l38.17,21.11c3.71,2.06,12.09,3.26,18.73,2.69"/><path class="cls-40" d="M2652.8,2131.93,2721,2126c6.63-.57,9-2.7,5.28-4.76l-38.17-21.11c-3.71-2.05-12.09-3.26-18.73-2.68l-68.14,5.88c-6.63.58-9,2.71-5.28,4.76l38.17,21.11c3.71,2.06,12.1,3.26,18.72,2.69"/><path class="cls-40" d="M2532.64,2142.32l68.15-5.88c6.63-.58,9-2.71,5.28-4.76l-38.16-21.11c-3.72-2.06-12.11-3.26-18.74-2.69l-68.14,5.89c-6.63.57-9,2.7-5.28,4.75l38.17,21.12c3.71,2.05,12.1,3.25,18.72,2.68"/><path class="cls-40" d="M2412.48,2152.7l68.15-5.89c6.63-.57,9-2.7,5.28-4.76l-38.17-21.11c-3.72-2.06-12.1-3.26-18.73-2.68l-68.15,5.88c-6.62.57-9,2.71-5.27,4.76l38.16,21.11c3.72,2.06,12.11,3.26,18.73,2.69"/><path class="cls-40" d="M2292.32,2163.07l68.15-5.89c6.63-.57,9-2.7,5.28-4.75l-38.17-21.12c-3.71-2-12.1-3.25-18.73-2.68l-68.14,5.88c-6.63.58-9,2.71-5.29,4.76l38.17,21.12c3.71,2.05,12.1,3.25,18.73,2.68"/><path class="cls-40" d="M2172.18,2173.46l68.15-5.88c6.63-.58,9-2.71,5.28-4.76l-38.17-21.12c-3.72-2-12.09-3.25-18.73-2.68l-68.14,5.89c-6.63.57-9,2.7-5.29,4.75l38.17,21.12c3.71,2,12.1,3.25,18.73,2.68"/><path class="cls-40" d="M2052,2183.84l68.14-5.89c6.63-.57,9-2.7,5.29-4.76l-38.18-21.11c-3.71-2-12.09-3.26-18.73-2.68l-68.14,5.88c-6.63.57-9,2.71-5.29,4.76l38.18,21.11c3.71,2.06,12.09,3.26,18.73,2.69"/><path class="cls-40" d="M1931.85,2194.21l68.15-5.89c6.63-.57,9-2.7,5.28-4.75l-38.17-21.12c-3.71-2-12.1-3.25-18.73-2.68l-68.14,5.89c-6.64.57-9,2.7-5.28,4.75l38.16,21.12c3.72,2,12.1,3.25,18.73,2.68"/><path class="cls-40" d="M1811.71,2204.6l68.15-5.88c6.63-.58,9-2.71,5.28-4.76L1847,2172.85c-3.71-2.06-12.1-3.26-18.73-2.69l-68.14,5.89c-6.64.57-9,2.7-5.28,4.75l38.17,21.12c3.71,2,12.1,3.25,18.72,2.68"/><path class="cls-40" d="M1694,2214.67l68.16-5.88c6.62-.58,9-2.71,5.27-4.76l-38.17-21.11c-3.71-2.06-12.09-3.26-18.73-2.69l-68.14,5.89c-6.63.57-9,2.7-5.28,4.75L1675.3,2212c3.71,2.05,12.1,3.25,18.72,2.68"/><path class="cls-40" d="M1515.73,2230.16l124.55-10.85c6.63-.58,9-2.71,5.28-4.76l-38.17-21.12c-3.71-2-12.1-3.25-18.73-2.68l-124.55,10.86c-6.63.57-9,2.7-5.27,4.76l38.16,21.11c3.72,2.06,12.11,3.26,18.73,2.68"/><path class="cls-40" d="M3079.22,2137.29l188.3-16.27c6.63-.57,9-2.7,5.28-4.75l-38.17-21.12c-3.71-2.06-12.1-3.26-18.72-2.68l-188.31,16.26c-6.63.58-9,2.71-5.28,4.76l38.17,21.11c3.71,2.06,12.1,3.26,18.73,2.69"/><path class="cls-40" d="M2959.05,2147.65l68.15-5.88c6.63-.58,9-2.71,5.28-4.76l-38.18-21.11c-3.71-2.06-12.09-3.26-18.72-2.69l-68.15,5.89c-6.62.57-9,2.7-5.27,4.76l38.16,21.11c3.71,2.05,12.11,3.26,18.73,2.68"/><path class="cls-40" d="M2838.91,2158.05l68.15-5.89c6.63-.57,9-2.7,5.28-4.76l-38.18-21.11c-3.71-2.06-12.09-3.26-18.72-2.68l-68.15,5.88c-6.62.57-9,2.71-5.28,4.76l38.17,21.11c3.72,2.06,12.1,3.26,18.73,2.69"/><path class="cls-40" d="M2718.75,2168.42l68.15-5.89c6.63-.57,9-2.7,5.28-4.75L2754,2136.66c-3.71-2-12.1-3.25-18.74-2.68l-68.14,5.89c-6.63.57-9,2.7-5.27,4.75l38.16,21.12c3.71,2.05,12.11,3.25,18.73,2.68"/><path class="cls-40" d="M2598.6,2178.79l68.15-5.89c6.63-.57,9-2.7,5.28-4.75L2633.86,2147c-3.71-2.05-12.09-3.25-18.73-2.68l-68.14,5.89c-6.64.57-9,2.7-5.28,4.75l38.17,21.12c3.71,2,12.09,3.25,18.72,2.68"/><path class="cls-40" d="M2478.45,2189.19l68.14-5.89c6.64-.57,9-2.7,5.28-4.76l-38.17-21.11c-3.71-2-12.1-3.26-18.73-2.68l-68.14,5.88c-6.64.57-9,2.71-5.28,4.76l38.17,21.11c3.71,2.06,12.1,3.26,18.73,2.69"/><path class="cls-40" d="M2358.28,2199.56l68.15-5.89c6.63-.57,9-2.7,5.28-4.75l-38.18-21.12c-3.71-2.05-12.09-3.25-18.72-2.68l-68.14,5.88c-6.64.58-9,2.71-5.28,4.76l38.16,21.12c3.72,2,12.11,3.25,18.73,2.68"/><path class="cls-40" d="M2238.12,2209.93l68.16-5.88c6.62-.58,9-2.71,5.27-4.76l-38.18-21.11c-3.71-2.06-12.09-3.26-18.72-2.69l-68.14,5.89c-6.64.57-9,2.7-5.28,4.76l38.16,21.11c3.71,2.05,12.11,3.26,18.73,2.68"/><path class="cls-40" d="M2118,2220.33l68.15-5.89c6.63-.57,9-2.7,5.28-4.76l-38.18-21.11c-3.71-2.06-12.09-3.26-18.72-2.68l-68.14,5.88c-6.64.57-9,2.71-5.29,4.76l38.17,21.11c3.72,2.06,12.1,3.26,18.73,2.69"/><path class="cls-40" d="M1997.82,2230.7l68.15-5.89c6.63-.57,9-2.7,5.28-4.75l-38.17-21.12c-3.72-2.05-12.1-3.25-18.74-2.68l-68.13,5.88c-6.64.58-9,2.71-5.28,4.76l38.16,21.12c3.71,2.05,12.11,3.25,18.73,2.68"/><path class="cls-40" d="M1877.65,2241.07l68.15-5.89c6.62-.57,9-2.7,5.28-4.75l-38.17-21.12c-3.71-2-12.1-3.25-18.74-2.68l-68.13,5.89c-6.64.57-9,2.7-5.29,4.75l38.17,21.12c3.71,2.05,12.1,3.25,18.73,2.68"/><path class="cls-40" d="M1581.7,2266.66l244-21.08c6.63-.57,9-2.7,5.28-4.76l-38.16-21.11c-3.71-2.05-12.11-3.26-18.73-2.68l-244,21.07c-6.63.58-9,2.71-5.28,4.76L1563,2264c3.71,2.06,12.11,3.26,18.74,2.69"/><path class="cls-41" d="M362.2,1284.28s59.45,91.59-44.87,139.4S26.7,1373.55-88.86,1505.11C-60,1322.25,8.3,1245,113.36,1206.33c127.1-46.73,287.88-1.88,248.84,78"/><path class="cls-42" d="M275.12,1271.54c-74.37,16.57-109.24,96.36-104.82,164,14.73.9,29.22,1.77,43.29,2.22-6.25-59.63,11.68-132.91,61.53-166.25"/><path class="cls-42" d="M105.8,1291.85c-65,24.44-73,85.2-87.58,149.27a285.48,285.48,0,0,1,39-6.44c-5.25-55.32,16-102,48.6-142.83"/><path class="cls-42" d="M171.13,1271.54c-13.48-33.83-37.47-46.61-63.78-62.9a305.24,305.24,0,0,0-52.59,26.09c39.07.25,79.85,18.49,116.37,36.81"/><path class="cls-42" d="M587.27,1741.32c6.9-41.24,6.45-85.08,1.75-127.46a510,510,0,0,0-30.13-124.76,476.25,476.25,0,0,0-61.08-112.63c-13.19-16.62-29.12-31-46.27-43.57A278.61,278.61,0,0,0,396,1301.32c-39.22-17.23-81.76-26.76-124.62-29.87a407,407,0,0,0-128.18,11c-41.78,10.44-82,28.28-116.69,54.12a276.65,276.65,0,0,0-46.8,44.78,271.44,271.44,0,0,0-33.86,55.4,272.06,272.06,0,0,1,33-56.08,278.24,278.24,0,0,1,46.34-45.82c34.53-26.64,74.83-45.35,116.91-56.61a412.77,412.77,0,0,1,129.68-13.27c43.57,2.43,87.07,11.39,127.61,28.39a287.3,287.3,0,0,1,57.84,31.61c18,12.76,34.86,27.44,49,44.65A486.46,486.46,0,0,1,571,1484.34,523.94,523.94,0,0,1,604.07,1612c5.5,43.88,6.93,87.87.21,132.65Z"/><path class="cls-41" d="M685.12,1333.19s-27.12,105.86,87,117.68,259.38-140.78,410.8-53.21c-85.68-164-175-215.32-286.86-218.19-135.32-3.48-273.35,90.61-210.91,153.72"/><path class="cls-42" d="M1029.08,1306.31c24.22-24.3,48.44-27.36,75.62-27a358.21,358.21,0,0,0-30.87-31.4c-24.15,10.88-44.75,28.45-44.75,58.41"/><path class="cls-42" d="M734.43,1315c14.49,50.87,41,89.62,49.35,136.5a161.37,161.37,0,0,0,29-2.6c4.57-57.63-53.14-91.7-78.38-133.9"/><path class="cls-42" d="M857.25,1297.6c12.61-65.12,81.23-97.37,143.59-96.79-30.12-12.85-61.77-19.19-95.44-20.92-49.61,16.58-86.48,61.86-100,119.76,29.88,37.72,59.36,81.89,66.22,132.53,16.77-6.18,33.95-13.27,51.49-20.4-7.17-45.49-33.2-84.9-65.82-114.18"/><path class="cls-42" d="M890.42,1294c52.72,13.23,75.33,55.24,79.34,99.61,15-5.4,30.23-10.31,45.63-14.19-19.9-50.86-41.38-102.08-125-85.42"/><path class="cls-42" d="M486,1723.9a668.48,668.48,0,0,1,11.59-123.22c7.63-40.47,19-80.45,36-118.21s40.07-73.23,71.09-101.13a251.5,251.5,0,0,1,51-35.36,377.29,377.29,0,0,1,56.53-24.45c38.73-13.51,78.94-22,119.43-26.93a659.28,659.28,0,0,1,122.11-3.53c40.61,2.72,81.21,9.25,119.78,22.56,19.23,6.68,38,15.16,54.85,26.61s31.82,26.12,41.15,44.32c-9.65-18-24.85-32.38-41.75-43.41s-35.73-19.16-54.93-25.47c-38.54-12.53-79-18.29-119.35-20.26a652.84,652.84,0,0,0-121,5.64c-40,5.64-79.58,14.72-117.35,28.65S641,1362.2,612,1389.35c-29.15,27.15-50.8,61.68-66.55,98.42s-26.22,76-33,115.6a652,652,0,0,0-9.19,120Z"/><path class="cls-41" d="M483.17,1128.78s11.4,77.55-108.58,70.09c-178.28-11.11-124.31-246.83-163.88-362S69.3,699.91,69.3,699.91s311.08,32.6,425.27,186.92,75.32,265.12-11.4,241.95"/><path class="cls-42" d="M388.08,797.17q-15.78-9-32.26-17c-10.72,18.28-19.86,59.78.49,111.5-9.63-56.9,16.33-83.79,31.77-94.48"/><path class="cls-42" d="M233.22,1001.79c1.77,17.76,3.94,35.37,6.95,52.36,32.36-12.7,114.93-34.55,221.07,16C468.33,981,498.74,927.78,510.71,910c-5-7.6-10.33-15.28-16.14-23.12a256.36,256.36,0,0,0-19.71-23.31C455.72,884,414.55,936,424.61,996.59c-60.91-19.16-153.08-17.63-191.39,5.2"/><path class="cls-42" d="M509.29,1741.23c8.55-43.83,13.88-89,17.64-134s5.21-90.27,4.75-135.47c-.9-90.41-10.88-180.81-31.49-268.89a978.36,978.36,0,0,0-41.1-129.14c-16.67-42.06-37.73-82.26-61.52-120.71L379,924.69l-20.39-27.11C352,888.33,344.4,880,337,871.42c-7.6-8.38-14.46-17.47-22.76-25.17l-24.08-24c-8.18-7.82-17.06-14.87-25.56-22.35l-12.9-11.06c-4.42-3.52-9.08-6.75-13.61-10.15L210.7,758.6l27.7,19.7c4.59,3.32,9.3,6.48,13.8,9.94l13.08,10.87c8.63,7.34,17.65,14.27,26,22l24.51,23.64c8.46,7.6,15.49,16.59,23.24,24.89,7.59,8.46,15.38,16.75,22.11,25.93l20.94,26.93,19.16,28.23c24.53,38.3,46.4,78.47,63.88,120.56a983.93,983.93,0,0,1,43.49,129.55c22.21,88.48,33.73,179.53,36.09,270.73q1.79,68.43-2.63,136.84c-3.11,45.61-7.67,90.86-15.79,136.33Z"/><path class="cls-41" d="M625.44,1240.07S614,1317.61,734,1310.16c178.28-11.11,124.32-246.84,163.89-362s141.4-136.93,141.4-136.93S728.22,843.79,614,998.11s-75.32,265.13,11.41,242"/><path class="cls-42" d="M886.67,997.29c2.68-17.86,6.19-34.5,11.23-49.17.64-1.84,1.33-3.59,2-5.39-34.74-8.09-75.94-4-113.19,14.64,7.17-43.13,34.76-79,65.62-105.29-32.73,10.44-66.71,23.33-99.25,39.15C728.29,931,734,987.9,720.11,1036.5c54.43-39,105.87-51.35,166.56-39.21"/><path class="cls-42" d="M630.44,1202q108,12,193.74,68.72c17.44-19,28.83-43.56,36.55-71.18C782.33,1189.41,710,1170,630.44,1202"/><path class="cls-42" d="M673.76,1106.35c70.32,0,140.59-6.89,198.22,36.32,1.84-13.75,3.3-27.74,4.56-41.75-64.87-26.47-143.35-39.29-202.78,5.43"/><path class="cls-42" d="M671.93,940.54c-22.18,17-42,36.08-57.9,57.57-1,1.41-2,2.8-3,4.21,1.11,48.6,19.11,95,54.09,130.11,0-64,.09-127.92,6.83-191.89"/><path class="cls-42" d="M535.11,1767.47c-1-44.67.7-88.73,3.62-132.94s7.55-88.18,13.83-132,14.25-87.31,24.09-130.43a1294.44,1294.44,0,0,1,36.64-127.45,903.15,903.15,0,0,1,52-121.91c9.79-19.85,21.39-38.69,32.72-57.64l18.55-27.46c6.05-9.25,13.33-17.62,19.93-26.46,27.6-34.38,58.34-66.55,93.68-93a495.1,495.1,0,0,1,115-64A494.45,494.45,0,0,0,831.45,920c-34.74,26.88-64.76,59.36-91.58,93.93-6.41,8.9-13.49,17.3-19.35,26.58l-18,27.55c-10.94,19-22.13,37.86-31.51,57.71a894.59,894.59,0,0,0-49.55,121.76,1283.15,1283.15,0,0,0-34.28,127q-13.61,64.41-21.78,129.8c-10.78,87-15.85,175.21-13,262.39Z"/><path class="cls-41" d="M423.16,1605.76s37.56,115.7-108.32,100.48S7,1588.82-129.46,1680.12c184.15-195.62,275.27-248.7,439.24-228.18,151.66,19,139,127.23,113.38,153.82"/><path class="cls-42" d="M228.94,1448.38c-35.48,1.89-68.33,9-101,22.44,57.07-3.46,128.78,8.5,166.66,52.84,0-41-34-58.8-65.68-75.28"/><path class="cls-42" d="M145.11,1513.34c-29.69,0-68-4.08-97.71,3.21-51.7,36.88-107.7,90.1-176.87,163.57,46.69-31.22,96.34-39.78,147.31-36.95,14.08-62.93,77.85-101.5,127.27-129.83"/><path class="cls-42" d="M68.07,1649.18c24.72,4.34,49.61,10.42,74.5,17.08,27.22-78.66,113.07-110,184.55-133.91-101.05-21.72-214.07,29-259,116.83"/><path class="cls-42" d="M508,1769.46c-12.09-40.62-31.33-80.49-55.18-116.32-24.08-35.8-53.65-68.38-89.38-92.84a297.46,297.46,0,0,0-57.07-30.6,314.85,314.85,0,0,0-62.84-16.58c-43.15-5.81-87.4-2.82-130.16,6.62,42.42-10.84,86.75-15.37,130.72-10.93a319.87,319.87,0,0,1,64.55,14.78,305.4,305.4,0,0,1,59.6,29.47c37.6,24,69.22,56.54,95.25,92.63,25.9,36.43,46.75,75.86,61.19,119Z"/><ellipse class="cls-43" cx="327.13" cy="2341.74" rx="424.67" ry="108.51" transform="translate(-400.48 92) rotate(-9.97)"/><ellipse class="cls-44" cx="522.22" cy="2271.83" rx="214.77" ry="79.19" transform="matrix(0.99, -0.13, 0.13, 0.99, -299.36, 90.33)"/><path class="cls-45" d="M269.5,1758.15,372,2258.93s150,98.74,366.61-8l56-487.42S428.07,1849.63,269.5,1758.15Z"/><path class="cls-46" d="M456.2,1799.78a671.6,671.6,0,0,1-69.24-5.66c-1.95,4.86-4.06,9.53-6.36,14l-58.68-17.19c13.94,71.56,34.44,168.94,101.17,210,9.28,5.71,22.88,27.4,33.31,28.7,3.44.44-2-6.7-2.62-10.13-1.37-7.51-2.81-15.1-4-22.62-3.24-20.67-5-41.14-6.17-62C440.93,1888.53,444.2,1843.5,456.2,1799.78Zm311.73,195.61,26.63-231.84s-81.27,19.09-183.85,29.74c4.47.14,8.91.39,13.38.77,1.25.11-2.32,6.91-2.52,7.94-1.23,6.54-1,15-.43,21.61,1.14,13.37,13.4,27.79,22.31,36.87C698.94,1917,735.65,1930.47,767.93,1995.39Z"/><path class="cls-47" d="M744.72,2197.73,738.6,2251c-216.58,106.7-366.61,8-366.61,8L269.5,1758.15c19,10.93,40.87,19.32,64.76,25.63,17.48,42.65,43,83.75,63.14,123.75C450.05,2012,519.21,2139.94,637,2180.31,672.31,2192.42,708.37,2197,744.72,2197.73Z"/><ellipse class="cls-48" cx="544.62" cy="1750.01" rx="273.67" ry="97.98"/><ellipse class="cls-49" cx="545.33" cy="1747.42" rx="251.05" ry="81.77"/><path class="cls-50" d="M312.08,1777.68c36.24-30.65,127.55-52.43,234.37-52.43,105.76,0,196.31,21.35,233.27,51.52-36.23,30.64-127.57,52.41-234.38,52.41C439.6,1829.18,349,1807.85,312.08,1777.68Z"/><path class="cls-41" d="M724.09,1520.53S601.55,1608.22,692.54,1743s181,172.85,159.25,335.84c114.46-248.7,143.62-398.67,93.29-496.48s-176.22-135.71-221-61.81"/><path class="cls-42" d="M769.09,1532.36c-43.28,9.64-81.18,38.08-104.89,74.81-7.16,25.35-8.07,55.59,4.48,89.86,10.44-64.94,43.9-129.25,100.41-164.67"/><path class="cls-42" d="M919.19,1544.15c-35.37-12.74-73.83-11.8-115.43,14.29,55.18,0,110.29,5.6,148,38.52-2-5-4.23-9.88-6.67-14.61a195,195,0,0,0-25.89-38.2"/><path class="cls-42" d="M873.09,1819.26c0,41.44-16.44,77.38-40.57,112.22a212.44,212.44,0,0,1,18.87,57.33c13.57-55.11,25.62-110.56,21.7-169.55"/><path class="cls-42" d="M838.42,1628c-7.56,68.3-35,143.22-93.69,184.3,20.34,24.83,39.35,46.68,55.74,68.47,41.37-49.25,76.1-111.88,55.28-174.52C905,1720.33,937,1763,952,1811.12a618.34,618.34,0,0,0,12.86-65.88C941,1689.53,901.08,1640.55,838.42,1628"/><path class="cls-42" d="M872.11,1768.26c-3.26-33-8.68-65.79-17.39-97.89s-20.22-63.6-37.2-92.63c-8.71-14.36-18.78-28.11-31.39-39.77-12.49-11.5-28.14-21.36-46.29-23.14-2.23-.19-4.48-.46-6.72-.57l-6.75.51c-4.57,0-8.8,1.76-13.2,2.66a121.2,121.2,0,0,0-12.29,5.23c-3.7,2.36-7.71,4.38-11.14,7.08s-7,5.38-10,8.26l-9.09,8.65c-6.19,5.63-11.94,11.71-17.6,17.87a426.3,426.3,0,0,0-59.37,81c-10.93,19.6-30.9,78.08-38.56,99.3h17.56c6.56-18.35,25.11-74.77,34.27-91.93a412.72,412.72,0,0,1,55.71-79.57c5.36-6.09,10.81-12.12,16.7-17.72L688,1547c2.88-2.86,5.94-5.06,8.89-7.65,12.09-9.66,27-15.15,41.9-13.69,15,1,29.09,9.22,40.87,19.62s21.82,23.36,30.49,37a336.68,336.68,0,0,1,22.17,43.49,454.83,454.83,0,0,1,16.17,46.37c9.28,31.49,15.38,63.93,19.35,96.62,7.85,65.41,6.88,131.89-1,197.46,9.3-65.39,11.75-132,5.29-198"/><path class="cls-41" d="M543.23,1447.82s-51.46-90.79-152.55-38.63-66.85,352.11,48.18,523.09c32.7-124.61,87.08-254.17,187.72-324.87s14.33-180.38-83.35-159.59"/><path class="cls-42" d="M356.62,1746.43a729.64,729.64,0,0,0,34.05,96.76c7.65-72.26,29.9-136.58,57.77-206.51-43.4,21.77-80.65,61.75-91.82,109.75"/><path class="cls-42" d="M436,1745.17c-17.71,47.38-23.37,95.3-25,140.11a516.23,516.23,0,0,0,27.88,47c6.68-25.42,14.4-51,23.1-76.27-10.64-36.59-27-73-26-110.83"/><path class="cls-42" d="M509.11,1488.89c-31.52-47.44-113.1-44.45-166.75-10.85-11.49,38.83-14.11,89.36-9,144.33,30.14-49.45,83.41-84.91,132.38-72.63,44.15,14.76,57.08,85.89,75.89,144.29a398.87,398.87,0,0,1,39.63-47.74c-10.28-59.44-34.29-113.06-72.19-157.4"/><path class="cls-42" d="M564.37,1443.3c-8.73,1.19-18.25,4.85-26.59,9.5-8.31,4.93-16.47,10.42-23.38,17.4C500.11,1483.65,489,1500.33,480,1518l-6.38,13.49-5.24,14-2.62,7-2.08,7.22-4.13,14.43c-2.44,9.71-4.21,19.6-6.35,29.4l-4.86,29.82a1193.85,1193.85,0,0,0-11.58,120.34c-1.66,40.28-1.72,80.74,2.1,120.94-4.54-40.13-5.21-80.64-4.26-121a1195.55,1195.55,0,0,1,9.45-120.86l4.34-30c2-10,3.6-20,5.91-29.89l3.93-14.75,2-7.38,2.55-7.21,5.1-14.42,6.31-14c8.88-18.39,20.15-35.94,35-50.44,14.91-14.34,32.58-26.35,54.47-30.06Z"/></g></g></svg>