<?xml version="1.0" encoding="UTF-8" standalone="no"?><!DOCTYPE svg PUBLIC "-//W3C//DTD SVG 1.1//EN" "http://www.w3.org/Graphics/SVG/1.1/DTD/svg11.dtd"><svg width="4000px" height="2500px" version="1.1" xmlns="http://www.w3.org/2000/svg" xmlns:xlink="http://www.w3.org/1999/xlink" xml:space="preserve" xmlns:serif="http://www.serif.com/" style="fill-rule:evenodd;clip-rule:evenodd;stroke-linejoin:round;stroke-miterlimit:2;"><g id="c99"></g><g transform="matrix(2.2689,0,0,2.2689,-356.347,14.0132)"><g id="c45"><g transform="matrix(0.441052,0,0,0.441052,157.793,-6.23997)"><rect x="111.817" y="218.725" width="3805.79" height="2107.56" style="fill:rgb(174,211,240);"/></g><g transform="matrix(1,0,0,1,-1305.22,-1117.13)"><path d="M1512.33,1998.43C1525.62,1999.04 1538.9,2000.19 1551.94,2001.12C1611.36,2005.32 1681.06,2008.52 1737.77,2027.62C1800.37,2048.71 1860.97,2075 1925.25,2091.02C2067.95,2126.58 2239.76,2110.03 2368.84,2038.71C2429.92,2004.96 2486.81,1964.79 2533.95,1913.21C2632.81,1805.06 2649.45,1725.24 2799.53,1670.09C2868.83,1644.62 2946.89,1623.82 3020.95,1620.67C3076.63,1618.31 3135.64,1625.4 3190.88,1634.77L3190.88,2136.9L1512.33,2136.9L1512.33,1998.43ZM3190.88,1368.24C3138.69,1393.37 3081.11,1408.99 3026.39,1405.87C2942.67,1401.1 2894.71,1358.88 2825.79,1319.3C2733.45,1266.28 2636.81,1239.39 2529.5,1250.37C2387.03,1264.95 2275.44,1358.55 2149.52,1415.3C1946.26,1506.91 1705.64,1536.18 1512.33,1446.03L1512.33,1207.36L3190.88,1207.36L3190.88,1368.24Z" style="fill:rgb(195,220,243);"/></g><g transform="matrix(0.441052,0,0,0.441052,157.793,-6.23997)"><rect x="111.817" y="218.725" width="3805.79" height="2107.56" style="fill:none;"/><clipPath id="_clip1"><rect x="111.817" y="218.725" width="3805.79" height="2107.56"/></clipPath><g clip-path="url(#_clip1)"><g transform="matrix(2.26731,0,0,2.26731,-489.276,-163.453)"><g transform="matrix(0.443349,-0.040525,-6.96735e-07,0.451306,1161.69,-94.376)"><g transform="matrix(0.946573,5.68851e-17,2.03463e-19,0.936432,18.8358,-3.7885)"><path d="M1701.3,629.524L756.876,629.524L756.876,1981.63L772.293,1986.77L776.939,1995.09L788.903,1998.49L799.58,2010.29L807.838,2013.76L815.025,2017.34L823.61,2026.41L1701.3,1981.63L1701.3,629.524Z" style="fill:url(#_Linear2);"/></g><g transform="matrix(0.946573,9.30847e-17,7.30735e-19,0.893511,18.8358,23.2308)"><path d="M1701.3,629.524L756.876,629.524L756.876,1981.63L772.293,1986.77L776.939,1995.09L788.903,1998.49L799.58,2010.29L807.838,2013.76L815.025,2017.34L823.61,2026.41L1701.3,1981.63L1701.3,629.524Z" style="fill:url(#_Linear3);"/></g><g transform="matrix(0.946573,1.31363e-17,-1.73843e-22,0.820951,40.438,112.715)"><path d="M1701.3,629.524L756.876,629.524L756.876,1981.63L772.293,1986.77L776.939,1995.09L788.903,1998.49L799.58,2010.29L807.838,2013.76L815.025,2017.34L823.61,2026.41L1701.3,1981.63L1701.3,629.524Z" style="fill:rgb(247,251,255);"/></g><g><g transform="matrix(0.966777,0,0,0.222853,27.7207,529.127)"><rect x="830.029" y="978.12" width="770.71" height="391.055" style="fill:rgb(217,237,255);"/></g><g transform="matrix(1.16559,0,0,1.13917,-400.129,-720.43)"><g transform="matrix(7.61609,0,0,7.05982,-7255.78,-8502.5)"><rect x="1096.69" y="1403.09" width="70.172" height="70.172" style="fill:rgb(142,187,229);"/></g><path d="M1146.69,1845.96L1102.36,1845.96L1102.36,1890.3L1146.69,1890.3L1146.69,1845.96ZM1411.38,1845.96L1367.04,1845.96L1367.04,1890.3L1411.38,1890.3L1411.38,1845.96ZM1199.65,1845.96L1155.32,1845.96L1155.32,1890.3L1199.65,1890.3L1199.65,1845.96ZM1464.34,1845.96L1420,1845.96L1420,1890.3L1464.34,1890.3L1464.34,1845.96ZM1252.62,1845.96L1208.28,1845.96L1208.28,1890.3L1252.62,1890.3L1252.62,1845.96ZM1517.3,1845.96L1472.96,1845.96L1472.96,1890.3L1517.3,1890.3L1517.3,1845.96ZM1305.58,1845.96L1261.24,1845.96L1261.24,1890.3L1305.58,1890.3L1305.58,1845.96ZM1570.26,1845.96L1525.93,1845.96L1525.93,1890.3L1570.26,1890.3L1570.26,1845.96ZM1358.54,1845.96L1314.2,1845.96L1314.2,1890.3L1358.54,1890.3L1358.54,1845.96ZM1623.22,1845.96L1578.89,1845.96L1578.89,1890.3L1623.22,1890.3L1623.22,1845.96ZM1623.22,1791.29L1578.89,1791.29L1578.89,1835.62L1623.22,1835.62L1623.22,1791.29ZM1358.54,1791.29L1314.2,1791.29L1314.2,1835.62L1358.54,1835.62L1358.54,1791.29ZM1570.26,1791.29L1525.93,1791.29L1525.93,1835.62L1570.26,1835.62L1570.26,1791.29ZM1305.58,1791.29L1261.24,1791.29L1261.24,1835.62L1305.58,1835.62L1305.58,1791.29ZM1517.3,1791.29L1472.96,1791.29L1472.96,1835.62L1517.3,1835.62L1517.3,1791.29ZM1252.62,1791.29L1208.28,1791.29L1208.28,1835.62L1252.62,1835.62L1252.62,1791.29ZM1464.34,1791.29L1420,1791.29L1420,1835.62L1464.34,1835.62L1464.34,1791.29ZM1199.65,1791.29L1155.32,1791.29L1155.32,1835.62L1199.65,1835.62L1199.65,1791.29ZM1411.38,1791.29L1367.04,1791.29L1367.04,1835.62L1411.38,1835.62L1411.38,1791.29ZM1146.69,1791.29L1102.36,1791.29L1102.36,1835.62L1146.69,1835.62L1146.69,1791.29ZM1146.69,1736.62L1102.36,1736.62L1102.36,1780.95L1146.69,1780.95L1146.69,1736.62ZM1411.38,1736.62L1367.04,1736.62L1367.04,1780.95L1411.38,1780.95L1411.38,1736.62ZM1199.65,1736.62L1155.32,1736.62L1155.32,1780.95L1199.65,1780.95L1199.65,1736.62ZM1464.34,1736.62L1420,1736.62L1420,1780.95L1464.34,1780.95L1464.34,1736.62ZM1252.62,1736.62L1208.28,1736.62L1208.28,1780.95L1252.62,1780.95L1252.62,1736.62ZM1517.3,1736.62L1472.96,1736.62L1472.96,1780.95L1517.3,1780.95L1517.3,1736.62ZM1305.58,1736.62L1261.24,1736.62L1261.24,1780.95L1305.58,1780.95L1305.58,1736.62ZM1570.26,1736.62L1525.93,1736.62L1525.93,1780.95L1570.26,1780.95L1570.26,1736.62ZM1358.54,1736.62L1314.2,1736.62L1314.2,1780.95L1358.54,1780.95L1358.54,1736.62ZM1623.22,1736.62L1578.89,1736.62L1578.89,1780.95L1623.22,1780.95L1623.22,1736.62ZM1358.54,1681.94L1314.2,1681.94L1314.2,1726.28L1358.54,1726.28L1358.54,1681.94ZM1570.26,1681.94L1525.93,1681.94L1525.93,1726.28L1570.26,1726.28L1570.26,1681.94ZM1305.58,1681.94L1261.24,1681.94L1261.24,1726.28L1305.58,1726.28L1305.58,1681.94ZM1517.3,1681.94L1472.96,1681.94L1472.96,1726.28L1517.3,1726.28L1517.3,1681.94ZM1252.62,1681.94L1208.28,1681.94L1208.28,1726.28L1252.62,1726.28L1252.62,1681.94ZM1464.34,1681.94L1420,1681.94L1420,1726.28L1464.34,1726.28L1464.34,1681.94ZM1199.65,1681.94L1155.32,1681.94L1155.32,1726.28L1199.65,1726.28L1199.65,1681.94ZM1411.38,1681.94L1367.04,1681.94L1367.04,1726.28L1411.38,1726.28L1411.38,1681.94ZM1146.69,1681.94L1102.36,1681.94L1102.36,1726.28L1146.69,1726.28L1146.69,1681.94ZM1623.22,1681.94L1578.89,1681.94L1578.89,1726.28L1623.22,1726.28L1623.22,1681.94ZM1623.22,1628.5L1578.89,1628.5L1578.89,1672.84L1623.22,1672.84L1623.22,1628.5ZM1146.69,1628.5L1102.36,1628.5L1102.36,1672.84L1146.69,1672.84L1146.69,1628.5ZM1411.38,1628.5L1367.04,1628.5L1367.04,1672.84L1411.38,1672.84L1411.38,1628.5ZM1199.65,1628.5L1155.32,1628.5L1155.32,1672.84L1199.65,1672.84L1199.65,1628.5ZM1464.34,1628.5L1420,1628.5L1420,1672.84L1464.34,1672.84L1464.34,1628.5ZM1252.62,1628.5L1208.28,1628.5L1208.28,1672.84L1252.62,1672.84L1252.62,1628.5ZM1517.3,1628.5L1472.96,1628.5L1472.96,1672.84L1517.3,1672.84L1517.3,1628.5ZM1305.58,1628.5L1261.24,1628.5L1261.24,1672.84L1305.58,1672.84L1305.58,1628.5ZM1570.26,1628.5L1525.93,1628.5L1525.93,1672.84L1570.26,1672.84L1570.26,1628.5ZM1358.54,1628.5L1314.2,1628.5L1314.2,1672.84L1358.54,1672.84L1358.54,1628.5ZM1358.54,1573.83L1314.2,1573.83L1314.2,1618.16L1358.54,1618.16L1358.54,1573.83ZM1570.26,1573.83L1525.93,1573.83L1525.93,1618.16L1570.26,1618.16L1570.26,1573.83ZM1305.58,1573.83L1261.24,1573.83L1261.24,1618.16L1305.58,1618.16L1305.58,1573.83ZM1517.3,1573.83L1472.96,1573.83L1472.96,1618.16L1517.3,1618.16L1517.3,1573.83ZM1252.62,1573.83L1208.28,1573.83L1208.28,1618.16L1252.62,1618.16L1252.62,1573.83ZM1464.34,1573.83L1420,1573.83L1420,1618.16L1464.34,1618.16L1464.34,1573.83ZM1199.65,1573.83L1155.32,1573.83L1155.32,1618.16L1199.65,1618.16L1199.65,1573.83ZM1411.38,1573.83L1367.04,1573.83L1367.04,1618.16L1411.38,1618.16L1411.38,1573.83ZM1146.69,1573.83L1102.36,1573.83L1102.36,1618.16L1146.69,1618.16L1146.69,1573.83ZM1623.22,1573.83L1578.89,1573.83L1578.89,1618.16L1623.22,1618.16L1623.22,1573.83ZM1623.22,1519.15L1578.89,1519.15L1578.89,1563.49L1623.22,1563.49L1623.22,1519.15ZM1358.54,1519.15L1314.2,1519.15L1314.2,1563.49L1358.54,1563.49L1358.54,1519.15ZM1570.26,1519.15L1525.93,1519.15L1525.93,1563.49L1570.26,1563.49L1570.26,1519.15ZM1305.58,1519.15L1261.24,1519.15L1261.24,1563.49L1305.58,1563.49L1305.58,1519.15ZM1517.3,1519.15L1472.96,1519.15L1472.96,1563.49L1517.3,1563.49L1517.3,1519.15ZM1252.62,1519.15L1208.28,1519.15L1208.28,1563.49L1252.62,1563.49L1252.62,1519.15ZM1464.34,1519.15L1420,1519.15L1420,1563.49L1464.34,1563.49L1464.34,1519.15ZM1199.65,1519.15L1155.32,1519.15L1155.32,1563.49L1199.65,1563.49L1199.65,1519.15ZM1411.38,1519.15L1367.04,1519.15L1367.04,1563.49L1411.38,1563.49L1411.38,1519.15ZM1146.69,1519.15L1102.36,1519.15L1102.36,1563.49L1146.69,1563.49L1146.69,1519.15ZM1623.22,1464.48L1578.89,1464.48L1578.89,1508.82L1623.22,1508.82L1623.22,1464.48ZM1358.54,1464.48L1314.2,1464.48L1314.2,1508.82L1358.54,1508.82L1358.54,1464.48ZM1570.26,1464.48L1525.93,1464.48L1525.93,1508.82L1570.26,1508.82L1570.26,1464.48ZM1305.58,1464.48L1261.24,1464.48L1261.24,1508.82L1305.58,1508.82L1305.58,1464.48ZM1517.3,1464.48L1472.96,1464.48L1472.96,1508.82L1517.3,1508.82L1517.3,1464.48ZM1252.62,1464.48L1208.28,1464.48L1208.28,1508.82L1252.62,1508.82L1252.62,1464.48ZM1464.34,1464.48L1420,1464.48L1420,1508.82L1464.34,1508.82L1464.34,1464.48ZM1199.65,1464.48L1155.32,1464.48L1155.32,1508.82L1199.65,1508.82L1199.65,1464.48ZM1411.38,1464.48L1367.04,1464.48L1367.04,1508.82L1411.38,1508.82L1411.38,1464.48ZM1146.69,1464.48L1102.36,1464.48L1102.36,1508.82L1146.69,1508.82L1146.69,1464.48ZM1623.22,1409.81L1578.89,1409.81L1578.89,1454.14L1623.22,1454.14L1623.22,1409.81ZM1358.54,1409.81L1314.2,1409.81L1314.2,1454.14L1358.54,1454.14L1358.54,1409.81ZM1570.26,1409.81L1525.93,1409.81L1525.93,1454.14L1570.26,1454.14L1570.26,1409.81ZM1305.58,1409.81L1261.24,1409.81L1261.24,1454.14L1305.58,1454.14L1305.58,1409.81ZM1517.3,1409.81L1472.96,1409.81L1472.96,1454.14L1517.3,1454.14L1517.3,1409.81ZM1252.62,1409.81L1208.28,1409.81L1208.28,1454.14L1252.62,1454.14L1252.62,1409.81ZM1464.34,1409.81L1420,1409.81L1420,1454.14L1464.34,1454.14L1464.34,1409.81ZM1199.65,1409.81L1155.32,1409.81L1155.32,1454.14L1199.65,1454.14L1199.65,1409.81ZM1411.38,1409.81L1367.04,1409.81L1367.04,1454.14L1411.38,1454.14L1411.38,1409.81ZM1146.69,1409.81L1102.36,1409.81L1102.36,1454.14L1146.69,1454.14L1146.69,1409.81Z" style="fill:rgb(217,237,255);"/></g><g transform="matrix(0.242956,0,0,0.222853,628.513,529.127)"><rect x="830.029" y="978.12" width="770.71" height="391.055" style="fill:rgb(204,230,255);"/></g></g><g transform="matrix(-0.58595,0,0,1,2147.5,39.0535)"><rect x="1115.47" y="1450.48" width="479.8" height="10.95" style="fill:rgb(142,187,229);"/></g><g transform="matrix(-0.58595,0,0,1,2147.5,110.187)"><rect x="1115.47" y="1450.48" width="479.8" height="10.95" style="fill:rgb(142,187,229);"/></g><g transform="matrix(-0.6358,0,0,1,1850.93,38.1806)"><rect x="1115.47" y="1450.48" width="479.8" height="10.95" style="fill:rgb(142,187,229);"/></g><g transform="matrix(-0.335223,0,0,1,1747.53,145.409)"><rect x="1115.47" y="1450.48" width="479.8" height="10.95" style="fill:rgb(142,187,229);"/></g></g><g transform="matrix(0.754537,0.0288215,-0.00109158,1.00069,-922.213,-1198.5)"><path d="M3243.41,1277.75L3233.96,1773.15L3242.41,1775.19L3258.95,1274.24L3243.41,1277.75Z" style="fill:rgb(204,230,255);"/></g><g transform="matrix(0.148764,0.00568244,-0.00109158,1.00069,1032.81,-1124.59)"><path d="M3243.41,1277.75L3234.92,1771.63L3248.72,1773.06L3258.95,1274.24L3243.41,1277.75Z" style="fill:rgb(204,230,255);"/></g><g transform="matrix(0.183817,0.00702138,-0.00109158,1.00069,912.743,-1128.98)"><path d="M3243.41,1277.75L3237.83,1769.61L3250.34,1769.44L3258.95,1274.24L3243.41,1277.75Z" style="fill:rgb(204,230,255);"/></g><g transform="matrix(0.443349,-0.040525,-6.96735e-07,0.451306,1188.89,-80.4809)"><g transform="matrix(0.946573,0,0,0.820951,40.438,112.715)"><rect x="756.876" y="629.524" width="944.426" height="1352.11" style="fill:rgb(247,251,255);"/></g><g transform="matrix(2.25556,0.202538,3.48218e-06,2.21579,-6480.05,-2888.07)"><path d="M3208.62,1728.94C3208.62,1728.94 3214.08,1765.24 3230.99,1777.01C3230.99,1777.01 3270.73,1788.19 3293.42,1787.42L3208.54,1794.95L3208.62,1728.94Z" style="fill:rgb(204,230,255);"/></g><g transform="matrix(2.25556,0.202538,3.48218e-06,2.21579,-6480.05,-2888.07)"><path d="M3233.59,1752.08C3233.59,1752.08 3253.12,1773.02 3286.82,1778.58L3233.59,1752.08Z" style="fill:rgb(204,230,255);"/></g><g><g transform="matrix(0.966777,0,0,0.222853,27.7207,529.127)"><rect x="830.029" y="978.12" width="770.71" height="391.055" style="fill:rgb(217,237,255);"/></g><g transform="matrix(1.16559,0,0,1.13917,-400.129,-720.43)"><g transform="matrix(7.61609,0,0,7.05982,-7255.78,-8502.5)"><rect x="1096.69" y="1403.09" width="70.172" height="70.172" style="fill:rgb(142,187,229);"/></g><path d="M1146.69,1845.96L1102.36,1845.96L1102.36,1890.3L1146.69,1890.3L1146.69,1845.96ZM1411.38,1845.96L1367.04,1845.96L1367.04,1890.3L1411.38,1890.3L1411.38,1845.96ZM1199.65,1845.96L1155.32,1845.96L1155.32,1890.3L1199.65,1890.3L1199.65,1845.96ZM1464.34,1845.96L1420,1845.96L1420,1890.3L1464.34,1890.3L1464.34,1845.96ZM1252.62,1845.96L1208.28,1845.96L1208.28,1890.3L1252.62,1890.3L1252.62,1845.96ZM1517.3,1845.96L1472.96,1845.96L1472.96,1890.3L1517.3,1890.3L1517.3,1845.96ZM1305.58,1845.96L1261.24,1845.96L1261.24,1890.3L1305.58,1890.3L1305.58,1845.96ZM1570.26,1845.96L1525.93,1845.96L1525.93,1890.3L1570.26,1890.3L1570.26,1845.96ZM1358.54,1845.96L1314.2,1845.96L1314.2,1890.3L1358.54,1890.3L1358.54,1845.96ZM1623.22,1845.96L1578.89,1845.96L1578.89,1890.3L1623.22,1890.3L1623.22,1845.96ZM1623.22,1791.29L1578.89,1791.29L1578.89,1835.62L1623.22,1835.62L1623.22,1791.29ZM1358.54,1791.29L1314.2,1791.29L1314.2,1835.62L1358.54,1835.62L1358.54,1791.29ZM1570.26,1791.29L1525.93,1791.29L1525.93,1835.62L1570.26,1835.62L1570.26,1791.29ZM1305.58,1791.29L1261.24,1791.29L1261.24,1835.62L1305.58,1835.62L1305.58,1791.29ZM1517.3,1791.29L1472.96,1791.29L1472.96,1835.62L1517.3,1835.62L1517.3,1791.29ZM1252.62,1791.29L1208.28,1791.29L1208.28,1835.62L1252.62,1835.62L1252.62,1791.29ZM1464.34,1791.29L1420,1791.29L1420,1835.62L1464.34,1835.62L1464.34,1791.29ZM1199.65,1791.29L1155.32,1791.29L1155.32,1835.62L1199.65,1835.62L1199.65,1791.29ZM1411.38,1791.29L1367.04,1791.29L1367.04,1835.62L1411.38,1835.62L1411.38,1791.29ZM1146.69,1791.29L1102.36,1791.29L1102.36,1835.62L1146.69,1835.62L1146.69,1791.29ZM1146.69,1736.62L1102.36,1736.62L1102.36,1780.95L1146.69,1780.95L1146.69,1736.62ZM1411.38,1736.62L1367.04,1736.62L1367.04,1780.95L1411.38,1780.95L1411.38,1736.62ZM1199.65,1736.62L1155.32,1736.62L1155.32,1780.95L1199.65,1780.95L1199.65,1736.62ZM1464.34,1736.62L1420,1736.62L1420,1780.95L1464.34,1780.95L1464.34,1736.62ZM1252.62,1736.62L1208.28,1736.62L1208.28,1780.95L1252.62,1780.95L1252.62,1736.62ZM1517.3,1736.62L1472.96,1736.62L1472.96,1780.95L1517.3,1780.95L1517.3,1736.62ZM1305.58,1736.62L1261.24,1736.62L1261.24,1780.95L1305.58,1780.95L1305.58,1736.62ZM1570.26,1736.62L1525.93,1736.62L1525.93,1780.95L1570.26,1780.95L1570.26,1736.62ZM1358.54,1736.62L1314.2,1736.62L1314.2,1780.95L1358.54,1780.95L1358.54,1736.62ZM1623.22,1736.62L1578.89,1736.62L1578.89,1780.95L1623.22,1780.95L1623.22,1736.62ZM1358.54,1681.94L1314.2,1681.94L1314.2,1726.28L1358.54,1726.28L1358.54,1681.94ZM1570.26,1681.94L1525.93,1681.94L1525.93,1726.28L1570.26,1726.28L1570.26,1681.94ZM1305.58,1681.94L1261.24,1681.94L1261.24,1726.28L1305.58,1726.28L1305.58,1681.94ZM1517.3,1681.94L1472.96,1681.94L1472.96,1726.28L1517.3,1726.28L1517.3,1681.94ZM1252.62,1681.94L1208.28,1681.94L1208.28,1726.28L1252.62,1726.28L1252.62,1681.94ZM1464.34,1681.94L1420,1681.94L1420,1726.28L1464.34,1726.28L1464.34,1681.94ZM1199.65,1681.94L1155.32,1681.94L1155.32,1726.28L1199.65,1726.28L1199.65,1681.94ZM1411.38,1681.94L1367.04,1681.94L1367.04,1726.28L1411.38,1726.28L1411.38,1681.94ZM1146.69,1681.94L1102.36,1681.94L1102.36,1726.28L1146.69,1726.28L1146.69,1681.94ZM1623.22,1681.94L1578.89,1681.94L1578.89,1726.28L1623.22,1726.28L1623.22,1681.94ZM1623.22,1628.5L1578.89,1628.5L1578.89,1672.84L1623.22,1672.84L1623.22,1628.5ZM1146.69,1628.5L1102.36,1628.5L1102.36,1672.84L1146.69,1672.84L1146.69,1628.5ZM1411.38,1628.5L1367.04,1628.5L1367.04,1672.84L1411.38,1672.84L1411.38,1628.5ZM1199.65,1628.5L1155.32,1628.5L1155.32,1672.84L1199.65,1672.84L1199.65,1628.5ZM1464.34,1628.5L1420,1628.5L1420,1672.84L1464.34,1672.84L1464.34,1628.5ZM1252.62,1628.5L1208.28,1628.5L1208.28,1672.84L1252.62,1672.84L1252.62,1628.5ZM1517.3,1628.5L1472.96,1628.5L1472.96,1672.84L1517.3,1672.84L1517.3,1628.5ZM1305.58,1628.5L1261.24,1628.5L1261.24,1672.84L1305.58,1672.84L1305.58,1628.5ZM1570.26,1628.5L1525.93,1628.5L1525.93,1672.84L1570.26,1672.84L1570.26,1628.5ZM1358.54,1628.5L1314.2,1628.5L1314.2,1672.84L1358.54,1672.84L1358.54,1628.5ZM1358.54,1573.83L1314.2,1573.83L1314.2,1618.16L1358.54,1618.16L1358.54,1573.83ZM1570.26,1573.83L1525.93,1573.83L1525.93,1618.16L1570.26,1618.16L1570.26,1573.83ZM1305.58,1573.83L1261.24,1573.83L1261.24,1618.16L1305.58,1618.16L1305.58,1573.83ZM1517.3,1573.83L1472.96,1573.83L1472.96,1618.16L1517.3,1618.16L1517.3,1573.83ZM1252.62,1573.83L1208.28,1573.83L1208.28,1618.16L1252.62,1618.16L1252.62,1573.83ZM1464.34,1573.83L1420,1573.83L1420,1618.16L1464.34,1618.16L1464.34,1573.83ZM1199.65,1573.83L1155.32,1573.83L1155.32,1618.16L1199.65,1618.16L1199.65,1573.83ZM1411.38,1573.83L1367.04,1573.83L1367.04,1618.16L1411.38,1618.16L1411.38,1573.83ZM1146.69,1573.83L1102.36,1573.83L1102.36,1618.16L1146.69,1618.16L1146.69,1573.83ZM1623.22,1573.83L1578.89,1573.83L1578.89,1618.16L1623.22,1618.16L1623.22,1573.83ZM1623.22,1519.15L1578.89,1519.15L1578.89,1563.49L1623.22,1563.49L1623.22,1519.15ZM1358.54,1519.15L1314.2,1519.15L1314.2,1563.49L1358.54,1563.49L1358.54,1519.15ZM1570.26,1519.15L1525.93,1519.15L1525.93,1563.49L1570.26,1563.49L1570.26,1519.15ZM1305.58,1519.15L1261.24,1519.15L1261.24,1563.49L1305.58,1563.49L1305.58,1519.15ZM1517.3,1519.15L1472.96,1519.15L1472.96,1563.49L1517.3,1563.49L1517.3,1519.15ZM1252.62,1519.15L1208.28,1519.15L1208.28,1563.49L1252.62,1563.49L1252.62,1519.15ZM1464.34,1519.15L1420,1519.15L1420,1563.49L1464.34,1563.49L1464.34,1519.15ZM1199.65,1519.15L1155.32,1519.15L1155.32,1563.49L1199.65,1563.49L1199.65,1519.15ZM1411.38,1519.15L1367.04,1519.15L1367.04,1563.49L1411.38,1563.49L1411.38,1519.15ZM1146.69,1519.15L1102.36,1519.15L1102.36,1563.49L1146.69,1563.49L1146.69,1519.15ZM1623.22,1464.48L1578.89,1464.48L1578.89,1508.82L1623.22,1508.82L1623.22,1464.48ZM1358.54,1464.48L1314.2,1464.48L1314.2,1508.82L1358.54,1508.82L1358.54,1464.48ZM1570.26,1464.48L1525.93,1464.48L1525.93,1508.82L1570.26,1508.82L1570.26,1464.48ZM1305.58,1464.48L1261.24,1464.48L1261.24,1508.82L1305.58,1508.82L1305.58,1464.48ZM1517.3,1464.48L1472.96,1464.48L1472.96,1508.82L1517.3,1508.82L1517.3,1464.48ZM1252.62,1464.48L1208.28,1464.48L1208.28,1508.82L1252.62,1508.82L1252.62,1464.48ZM1464.34,1464.48L1420,1464.48L1420,1508.82L1464.34,1508.82L1464.34,1464.48ZM1199.65,1464.48L1155.32,1464.48L1155.32,1508.82L1199.65,1508.82L1199.65,1464.48ZM1411.38,1464.48L1367.04,1464.48L1367.04,1508.82L1411.38,1508.82L1411.38,1464.48ZM1146.69,1464.48L1102.36,1464.48L1102.36,1508.82L1146.69,1508.82L1146.69,1464.48ZM1623.22,1409.81L1578.89,1409.81L1578.89,1454.14L1623.22,1454.14L1623.22,1409.81ZM1358.54,1409.81L1314.2,1409.81L1314.2,1454.14L1358.54,1454.14L1358.54,1409.81ZM1570.26,1409.81L1525.93,1409.81L1525.93,1454.14L1570.26,1454.14L1570.26,1409.81ZM1305.58,1409.81L1261.24,1409.81L1261.24,1454.14L1305.58,1454.14L1305.58,1409.81ZM1517.3,1409.81L1472.96,1409.81L1472.96,1454.14L1517.3,1454.14L1517.3,1409.81ZM1252.62,1409.81L1208.28,1409.81L1208.28,1454.14L1252.62,1454.14L1252.62,1409.81ZM1464.34,1409.81L1420,1409.81L1420,1454.14L1464.34,1454.14L1464.34,1409.81ZM1199.65,1409.81L1155.32,1409.81L1155.32,1454.14L1199.65,1454.14L1199.65,1409.81ZM1411.38,1409.81L1367.04,1409.81L1367.04,1454.14L1411.38,1454.14L1411.38,1409.81ZM1146.69,1409.81L1102.36,1409.81L1102.36,1454.14L1146.69,1454.14L1146.69,1409.81Z" style="fill:rgb(217,237,255);"/></g><g transform="matrix(0.242956,0,0,0.222853,628.513,529.127)"><rect x="830.029" y="978.12" width="770.71" height="391.055" style="fill:rgb(204,230,255);"/></g></g><g transform="matrix(-0.58595,0,0,1,2147.5,39.0535)"><rect x="1115.47" y="1450.48" width="479.8" height="10.95" style="fill:rgb(142,187,229);"/></g><g transform="matrix(-0.58595,0,0,1,2147.5,110.187)"><rect x="1115.47" y="1450.48" width="479.8" height="10.95" style="fill:rgb(142,187,229);"/></g><g transform="matrix(-0.6358,0,0,1,1850.93,38.1806)"><rect x="1115.47" y="1450.48" width="479.8" height="10.95" style="fill:rgb(142,187,229);"/></g><g transform="matrix(-0.335223,0,0,1,1747.53,145.409)"><rect x="1115.47" y="1450.48" width="479.8" height="10.95" style="fill:rgb(142,187,229);"/></g></g><g transform="matrix(1,0,0,1,58.0027,78.331)"><path d="M109.661,800.595L1939.53,633.024L2017.48,1061.11L154.218,1089.22L109.661,800.595Z" style="fill:rgb(223,236,249);"/></g><g transform="matrix(0.922503,0,0,0.922503,167.303,59.6378)"><g transform="matrix(0.727968,-0.0684928,1.19768,0.732142,-1736.02,-378.16)"><path d="M2193.39,1766.4C2193.39,1766.4 1626.73,1766.4 1453.69,1766.4C1446.59,1766.4 1434.21,1770.36 1422.96,1776.22C1411.71,1782.08 1404.12,1788.53 1404.12,1792.23C1404.12,1839.78 1404.12,1939.69 1404.12,1976.5C1404.12,1985.59 1413.55,1990.5 1431,1990.5L2193.39,1990.5L2193.39,1766.4Z" style="fill-opacity:0.1;"/></g><g transform="matrix(0.727968,-0.0684928,1.19768,0.732142,-1733.12,-387.853)"><path d="M2193.39,1766.4C2193.39,1766.4 1626.73,1766.4 1453.69,1766.4C1446.59,1766.4 1434.21,1770.36 1422.96,1776.22C1411.71,1782.08 1404.12,1788.53 1404.12,1792.23C1404.12,1839.78 1404.12,1939.69 1404.12,1976.5C1404.12,1985.59 1413.55,1990.5 1431,1990.5L2193.39,1990.5L2193.39,1766.4Z" style="fill:rgb(255,135,184);"/></g><g transform="matrix(0.727968,-0.0684928,1.19768,0.732142,-1731.37,-392.444)"><path d="M2193.39,1766.4C2193.39,1766.4 1626.73,1766.4 1453.69,1766.4C1446.59,1766.4 1434.21,1770.36 1422.96,1776.22C1411.71,1782.08 1404.12,1788.53 1404.12,1792.23C1404.12,1839.78 1404.12,1939.69 1404.12,1976.5C1404.12,1985.59 1413.55,1990.5 1431,1990.5L2193.39,1990.5L2193.39,1766.4Z" style="fill:rgb(255,223,236);"/></g><g transform="matrix(0.285989,-0.0250208,0.181133,0.102741,1169.22,585.722)"><g transform="matrix(1.40845,1.11022e-16,-1.11022e-16,1.27906,-2830.85,1601.73)"><rect x="1770.7" y="551.996" width="1785.02" height="13.393" style="fill:rgb(236,97,152);fill-opacity:0.45;"/></g><g transform="matrix(1.40845,1.11022e-16,-1.11022e-16,1.27906,-2830.85,1760.67)"><rect x="1770.7" y="551.996" width="1785.02" height="13.393" style="fill:rgb(236,97,152);fill-opacity:0.45;"/></g><g transform="matrix(1.40845,1.11022e-16,-1.11022e-16,1.27906,-2830.85,1919.6)"><rect x="1770.7" y="551.996" width="1785.02" height="13.393" style="fill:rgb(236,97,152);fill-opacity:0.45;"/></g><g transform="matrix(1.40845,1.11022e-16,-1.11022e-16,1.27906,-2830.85,2078.54)"><rect x="1770.7" y="551.996" width="1785.02" height="13.393" style="fill:rgb(236,97,152);fill-opacity:0.45;"/></g><g transform="matrix(1.40845,1.11022e-16,-1.11022e-16,1.27906,-2830.85,2237.48)"><rect x="1770.7" y="551.996" width="1785.02" height="13.393" style="fill:rgb(236,97,152);fill-opacity:0.45;"/></g><g transform="matrix(1.40845,1.11022e-16,-1.11022e-16,1.27906,-2830.85,2396.41)"><rect x="1770.7" y="551.996" width="1785.02" height="13.393" style="fill:rgb(236,97,152);fill-opacity:0.45;"/></g><g transform="matrix(1.40845,1.11022e-16,-1.11022e-16,1.27906,-2830.85,2555.35)"><rect x="1770.7" y="551.996" width="1785.02" height="13.393" style="fill:rgb(236,97,152);fill-opacity:0.45;"/></g><g transform="matrix(1.40845,1.11022e-16,-3.33067e-16,1.73916,-2830.85,1347.76)"><rect x="1888.91" y="451.812" width="9.909" height="763.69" style="fill:rgb(236,97,152);fill-opacity:0.55;"/></g><g transform="matrix(1.40845,1.11022e-16,-3.33067e-16,1.73916,-2666.72,1347.76)"><rect x="1888.91" y="451.812" width="9.909" height="763.69" style="fill:rgb(236,97,152);fill-opacity:0.55;"/></g><g transform="matrix(1.40845,1.11022e-16,-3.33067e-16,1.73916,-2502.59,1347.76)"><rect x="1888.91" y="451.812" width="9.909" height="763.69" style="fill:rgb(236,97,152);fill-opacity:0.55;"/></g><g transform="matrix(1.40845,1.11022e-16,-3.33067e-16,1.73916,-2338.46,1347.76)"><rect x="1888.91" y="451.812" width="9.909" height="763.69" style="fill:rgb(236,97,152);fill-opacity:0.55;"/></g><g transform="matrix(1.40845,1.11022e-16,-3.33067e-16,1.73916,-2174.33,1347.76)"><rect x="1888.91" y="451.812" width="9.909" height="763.69" style="fill:rgb(236,97,152);fill-opacity:0.55;"/></g><g transform="matrix(1.40845,1.11022e-16,-3.33067e-16,1.73916,-2010.2,1347.76)"><rect x="1888.91" y="451.812" width="9.909" height="763.69" style="fill:rgb(236,97,152);fill-opacity:0.55;"/></g><g transform="matrix(1.40845,1.11022e-16,-3.33067e-16,1.73916,-1846.07,1347.76)"><rect x="1888.91" y="451.812" width="9.909" height="763.69" style="fill:rgb(236,97,152);fill-opacity:0.55;"/></g><g transform="matrix(1.40845,1.11022e-16,-3.33067e-16,1.73916,-1681.94,1347.76)"><rect x="1888.91" y="451.812" width="9.909" height="763.69" style="fill:rgb(236,97,152);fill-opacity:0.55;"/></g><g transform="matrix(1.40845,1.11022e-16,-3.33067e-16,1.73916,-1517.81,1347.76)"><rect x="1888.91" y="451.812" width="9.909" height="763.69" style="fill:rgb(236,97,152);fill-opacity:0.55;"/></g><g transform="matrix(1.40845,1.11022e-16,-3.33067e-16,1.73916,-1353.68,1347.76)"><rect x="1888.91" y="451.812" width="9.909" height="763.69" style="fill:rgb(236,97,152);fill-opacity:0.55;"/></g></g></g><g transform="matrix(1,0,0,1,58.0027,78.331)"><path d="M165.544,814.634L1957.73,646.467L1961.65,627.86L150.67,793.042L165.544,814.634Z" style="fill:white;"/></g><g transform="matrix(1,0,0,1,0.0491239,-5.88057)"><g transform="matrix(-1.10365,0.0941312,0.0941312,1.10365,2693.92,-1076.97)"><g transform="matrix(1,0,0,1,-11.5637,0)"><path d="M1564.92,1658.83L1776.99,1658.83C1776.99,1658.83 1781.34,1655.22 1785.76,1651.56C1791.02,1647.2 1792.27,1639.62 1788.69,1633.8C1776.06,1613.28 1748.69,1568.8 1748.69,1568.8L1564.77,1571.57C1564.77,1571.57 1588.57,1612.54 1599.07,1630.61C1600.31,1632.74 1600.58,1635.3 1599.81,1637.64C1599.04,1639.99 1597.3,1641.89 1595.04,1642.87C1584.41,1647.49 1568.05,1654.6 1568.05,1654.6L1564.92,1658.83Z" style="fill:rgb(64,103,177);"/></g><g transform="matrix(1,0,0,1,-201.253,0)"><path d="M1769.71,1597.82L1977.22,1637.78C1977.06,1633.78 1975.9,1629.77 1973.67,1626.15C1960,1603.93 1938.38,1568.8 1938.38,1568.8L1754.46,1571.57L1769.71,1597.82Z" style="fill:rgb(51,82,141);"/></g><g transform="matrix(1,0,0,1,-201.253,0)"><path d="M1932.25,1572.42L1969.52,1635.49C1969.67,1635.75 1969.84,1636 1970.03,1636.23C1970.03,1636.23 1972.07,1638.9 1973.08,1642.4C1973.58,1644.12 1973.92,1646.12 1973.06,1648C1972.01,1650.3 1969.44,1652.07 1965.04,1653.55C1965.03,1653.55 1761.06,1653.63 1761.06,1653.63C1757.13,1653.63 1753.94,1656.82 1753.94,1660.76C1753.94,1664.69 1757.13,1667.88 1761.07,1667.88L1966.15,1667.8C1966.86,1667.8 1967.57,1667.7 1968.25,1667.49C1978.67,1664.28 1983.67,1659.06 1986.02,1653.93C1988.4,1648.72 1988.15,1643.19 1986.77,1638.43C1985.29,1633.32 1982.54,1629.23 1981.61,1627.93C1981.61,1627.94 1944.52,1565.17 1944.52,1565.17C1942.52,1561.78 1938.14,1560.66 1934.76,1562.66C1931.37,1564.66 1930.25,1569.04 1932.25,1572.42Z" style="fill:rgb(45,69,132);"/></g><g transform="matrix(1.03989,0,-0.125,1,115.084,3.04866)"><g transform="matrix(0.428201,0,6.07128e-18,0.440071,567.286,881.916)"><path d="M3395.32,576.444C3395.32,553.732 3351.63,511.716 3328.92,511.716L1808.82,536.438C1786.11,536.438 1757.32,565.11 1757.32,587.822L1753.03,1560.63C1753.03,1583.34 1799.37,1615.1 1822.09,1615.1L3326.76,1624.11C3336.7,1624.11 3350.34,1623.43 3366.13,1615.41C3383.11,1606.8 3393.85,1593.32 3393.85,1580.54L3395.32,576.444Z" style="fill:rgb(45,69,132);"/></g><g transform="matrix(0.428027,0,0,0.441049,553.693,869.258)"><g transform="matrix(1,-2.77556e-17,2.77556e-17,0.990987,0,4.82454)"><path d="M3395.32,576.444C3395.32,553.732 3376.88,535.292 3354.17,535.292L1822.09,535.292C1799.37,535.292 1780.93,553.732 1780.93,576.444L1780.93,1573.94C1780.93,1596.66 1799.37,1615.1 1822.09,1615.1L3354.17,1615.1C3376.88,1615.1 3395.32,1596.66 3395.32,1573.94L3395.32,576.444Z" style="fill:rgb(232,246,255);"/></g><g transform="matrix(-0.881234,0.076669,0.187312,0.898914,3894.27,-53.3298)"><path d="M2301.4,458.526L1410.32,534.528L1580.41,1337.3C1583.61,1352.38 1598.85,1363.58 1614.43,1362.29L2449.51,1293.05C2465.09,1291.76 2475.14,1278.47 2471.94,1263.38L2301.4,458.526Z" style="fill:url(#_Linear4);"/></g><g transform="matrix(-0.846045,0.0736075,0.181706,0.872009,3827.55,-34.9646)"><path d="M2301.4,458.526L1410.32,534.528L1580.41,1337.3C1583.61,1352.38 1598.85,1363.58 1614.43,1362.29L2449.51,1293.05C2465.09,1291.76 2475.14,1278.47 2471.94,1263.38L2301.4,458.526Z" style="fill-opacity:0.36;"/></g></g><g transform="matrix(0.636639,0,0.0795797,0.662037,557.761,322.57)"><g transform="matrix(1,0,0,1,0.125341,1.23876)"><path d="M1817.26,1182.38L2100.9,1182.38C2116.17,1182.38 2127.03,1194.66 2125.14,1209.79L2116.52,1278.72C2091.58,1299.41 2066.77,1320.27 2042.1,1341.25C1827.07,1524.18 1623.94,1717.73 1397.79,1887.51C1391.64,1892.13 1385.43,1896.88 1379.17,1901.74L980.924,1901.74C965.654,1901.74 954.792,1889.46 956.684,1874.33L961.77,1833.64C1023.71,1785.76 1081.1,1736.98 1104.3,1718.6C1337.36,1533.91 1569.82,1347.41 1817.26,1182.38ZM1639.66,1182.38C1580.39,1216.46 1523.75,1255.19 1465.21,1290.44C1304.72,1387.08 1145.82,1487.37 991.728,1593.97L1010.96,1440.13C1013.82,1437.88 1016.68,1435.64 1019.55,1433.4C1073.82,1391 1129.4,1350.23 1185,1309.62C1226.51,1279.3 1269.3,1250.3 1311.39,1220.75C1329.99,1207.69 1348.76,1194.96 1367.63,1182.38L1639.66,1182.38Z" style="fill:url(#_Linear5);"/></g><g transform="matrix(1.7278,0.141671,-0.361475,1.70977,-747.008,-1102.88)"><g transform="matrix(-0.433528,0.0369759,0.0369192,0.432863,2400.48,801.422)"><path d="M2503.5,659.102C2503.5,646.762 2493.5,636.744 2481.18,636.744L1820.6,636.744C1808.28,636.744 1798.28,646.762 1798.28,659.102L1798.28,1390.37C1798.28,1402.71 1808.28,1412.73 1820.6,1412.73L2481.18,1412.73C2493.5,1412.73 2503.5,1402.71 2503.5,1390.37L2503.5,659.102Z" style="fill:rgb(249,242,212);"/></g><g transform="matrix(-0.396465,0.0338148,0.0338148,0.396465,2318.49,848.786)"><path d="M1750.95,653.91L2522.1,653.91L2522.1,618.521C2522.1,605.048 2511.17,594.109 2497.69,594.109L1775.37,594.109C1761.89,594.109 1750.95,605.048 1750.95,618.521L1750.95,653.91Z" style="fill:rgb(235,208,99);"/></g><g transform="matrix(-0.396465,0.0338148,0.0338148,0.396465,2318.49,848.786)"><rect x="1828.26" y="715.557" width="680.85" height="681.589" style="fill:none;"/><clipPath id="_clip6"><rect x="1828.26" y="715.557" width="680.85" height="681.589"/></clipPath><g clip-path="url(#_clip6)"><g id="Photo.png" transform="matrix(1.52582,0,0,1.52582,1762.47,601.86)"><rect x="0" y="0" width="516" height="505" style="fill:rgb(128,128,128);fill-opacity:0;"/></g></g></g></g></g><g transform="matrix(0.443098,1.22416e-17,5.68596e-20,0.441049,526.989,868.203)"><path d="M3347.66,1449.42L3347.66,1573.94C3347.66,1596.66 3329.76,1615.1 3307.72,1615.1L1820.87,1615.1C1798.83,1615.1 1780.93,1596.66 1780.93,1573.94L1780.93,1449.42L3347.66,1449.42Z" style="fill:rgb(64,103,177);"/></g><g transform="matrix(0.349283,0,0,0.349283,757.739,1006.19)"><g transform="matrix(-0.879081,-1.07656e-16,1.22465e-16,-1,5579.11,3064.58)"><circle cx="2498.44" cy="1535.48" r="50.538" style="fill:rgb(45,69,132);"/></g></g></g></g><g transform="matrix(-1.09602,0.160136,0.32883,1.07137,3484.1,-1139.04)"><g transform="matrix(1,0,-1.158,1,2036.52,10.9009)"><path d="M2278.07,1771.05C2278.07,1767.87 2285.63,1740.78 2285.63,1740.78L2262.87,1679.76C2262.87,1679.76 1927.93,1683.48 1905.88,1683.48C1905,1683.48 1904.52,1683.79 1904.52,1684.36L1904.52,1765.52C1904.52,1766.51 1905.97,1768.12 1908.16,1769.55C1910.35,1770.98 1912.82,1771.93 1914.34,1771.93L2276.71,1771.93C2277.59,1771.93 2278.07,1771.62 2278.07,1771.05Z" style="fill-opacity:0.2;"/></g><g transform="matrix(1,0,-1.158,1,2032.42,2.10808)"><path d="M2278.07,1689.89C2278.07,1688.9 2276.62,1687.29 2274.43,1685.86C2272.24,1684.42 2269.78,1683.48 2268.25,1683.48L1905.88,1683.48C1905,1683.48 1904.52,1683.79 1904.52,1684.36L1904.52,1765.52C1904.52,1766.51 1905.97,1768.12 1908.16,1769.55C1910.35,1770.98 1912.82,1771.93 1914.34,1771.93L2276.71,1771.93C2277.59,1771.93 2278.07,1771.62 2278.07,1771.05L2278.07,1689.89Z" style="fill:rgb(64,103,177);fill-opacity:0.96;"/></g><path d="M2353.86,1686.73C2353.8,1687.69 2353.36,1688.61 2352.61,1689.26C2330.72,1708.16 2267.46,1762.79 2258.63,1770.41C2257.97,1770.99 2257.12,1771.3 2256.24,1771.3L1893.87,1771.3C1892.85,1771.3 1891.9,1770.87 1891.22,1770.16C1891.19,1770.66 1891.26,1771.17 1891.44,1771.66C1891.98,1773.09 1893.34,1774.04 1894.87,1774.04L2257.24,1774.04C2258.12,1774.04 2258.96,1773.73 2259.63,1773.15C2268.46,1765.53 2331.71,1710.9 2353.6,1692C2354.75,1691 2355.17,1689.39 2354.64,1687.96C2354.46,1687.49 2354.2,1687.08 2353.86,1686.73Z" style="fill:rgb(13,97,152);fill-opacity:0.96;"/><g transform="matrix(1,0,0,1,92.3917,1.7561)"><path d="M2187.01,1685.58L2088.8,1685.58C2074.17,1692.56 2060.7,1701.91 2049.45,1712.96L2045.44,1715.09C2040.47,1716.86 2037.4,1723.58 2035.43,1728.15C2032.97,1733.85 2029.17,1741.37 2030.97,1747.83C2033.09,1755.43 2043.49,1760.53 2050.24,1762.92C2089.25,1776.74 2136.39,1756.38 2166.07,1730.86C2176.31,1722.05 2190.87,1709.1 2189.45,1693.94C2189.15,1690.68 2188.29,1687.92 2187.01,1685.58Z" style="fill:rgb(55,84,140);fill-opacity:0.96;"/></g><g transform="matrix(1,0,0,1,87.9002,-5.06192)"><path d="M2031.13,1736.46C2019.93,1725.08 2036.45,1702.48 2047.01,1693.15C2066.64,1675.83 2091.34,1666.69 2116.51,1662.52C2128.43,1660.54 2144.05,1660.73 2155.95,1663.63C2162.19,1665.15 2167.63,1667.63 2173.21,1670.77C2176.4,1672.56 2178.88,1675.18 2181.74,1677.44C2192.82,1686.18 2184.1,1704.8 2181.7,1707.57C2173.2,1717.39 2163.35,1726.88 2151.91,1733.34C2124.53,1748.79 2096.31,1754.72 2064.89,1751.44C2052.85,1750.19 2042.97,1748.49 2031.13,1736.46Z" style="fill:rgb(208,237,255);"/><path d="M2132.25,1661.22C2127.3,1666.11 2119.23,1674.41 2127.39,1679.63C2128.76,1680.51 2130.42,1681.17 2131.93,1681.72C2133.99,1682.45 2136.26,1682.89 2138.43,1683.05C2148.88,1683.83 2160.38,1682.19 2170.64,1680.4C2174.24,1679.77 2178.07,1678.28 2181.85,1677.52C2192.76,1686.31 2184.09,1704.81 2181.7,1707.57C2173.2,1717.39 2163.35,1726.88 2151.91,1733.34C2124.53,1748.79 2096.31,1754.72 2064.89,1751.44C2052.85,1750.19 2042.97,1748.49 2031.13,1736.46C2029.34,1734.65 2028.26,1732.55 2027.75,1730.26C2028.1,1730.5 2028.44,1730.74 2028.8,1730.97C2036.56,1736.06 2046.16,1738.86 2055.39,1739.22C2072.07,1739.86 2089.03,1736.96 2104.92,1732.19C2120.97,1727.38 2138.73,1723.14 2152.27,1712.61C2157.89,1708.24 2163.67,1701.23 2156.47,1695.65C2155.39,1694.81 2153.8,1694.4 2152.53,1693.97C2149.23,1692.85 2145.13,1692.57 2141.68,1692.05C2135.71,1691.14 2129.34,1688.85 2123.89,1686.34C2120.46,1684.76 2115.24,1682.5 2113.24,1679.02C2111.76,1676.45 2114.01,1674.25 2115.66,1672.61C2120.12,1668.17 2125.86,1664.38 2131.4,1661.23L2131.73,1661.23L2132.25,1661.22Z" style="fill:rgb(165,221,255);"/><path d="M2078.18,1676.85C2072.97,1678.46 2068.38,1681.51 2063.68,1684.17C2056.21,1688.39 2048.88,1693.1 2043.46,1699.91C2039.27,1705.18 2034.82,1715.16 2044.95,1715.88C2046.38,1715.98 2048.06,1716.05 2049.47,1715.79C2053.64,1715.05 2057.56,1712.56 2061.21,1710.55C2071.64,1704.79 2081.64,1697.09 2089.61,1688.18C2091.5,1686.07 2093.53,1683.29 2094.24,1680.49C2096,1673.47 2085.47,1673.74 2081.9,1675.05" style="fill:white;fill-opacity:0.38;"/><path d="M2137.26,1665.55C2134.11,1665.06 2130.72,1667.33 2129.45,1670.24C2128.53,1672.35 2129.08,1675 2131.72,1675.1C2135.6,1675.24 2140.48,1672.87 2143.47,1670.51C2146.3,1668.29 2143.56,1666.05 2140.88,1665.61C2139.66,1665.4 2138.44,1665.29 2137.21,1665.16" style="fill:white;fill-opacity:0.38;"/><path d="M2112.67,1667.32C2109.55,1667.47 2106.96,1672 2106.54,1674.78C2106.3,1676.4 2107.62,1678.46 2109.45,1678.16C2109.84,1678.09 2109.55,1674.18 2109.65,1673.57C2109.8,1672.73 2110.32,1670.88 2110.95,1670.24C2111.56,1669.62 2112.72,1669.13 2113.08,1668.31" style="fill:rgb(165,221,255);"/></g></g><g transform="matrix(1,0,0,1,57.9536,84.2116)"><path d="M587.223,874.957C587.82,875.139 588.447,875.202 589.069,875.141C613.721,872.745 1115.16,823.998 1220.27,813.781C1222.03,813.61 1223.42,812.211 1223.58,810.448C1223.75,808.685 1222.63,807.055 1220.93,806.564C1211.28,803.782 1200.94,800.801 1198.25,800.024C1197.8,799.896 1197.34,799.852 1196.88,799.896C1175.8,801.892 682.921,848.567 567.793,859.469C565.535,859.683 563.744,861.462 563.516,863.718C563.287,865.974 564.685,868.077 566.854,868.739C575.745,871.453 584.454,874.112 587.223,874.957Z" style="fill-opacity:0.23;"/></g><g transform="matrix(-1.10365,0.0941312,0.0941312,1.10365,2693.92,-1076.97)"><g transform="matrix(0.716442,-1.79452e-17,-1.74375e-17,0.763813,641.896,396.499)"><path d="M1630.67,1814.86L777.507,1810.02C771.3,1810.01 769.902,1799.37 773.193,1797.31L933.088,1697.1C936.346,1695.06 943.97,1693.41 950.117,1693.41L1800.4,1694.07C1806.55,1694.07 1806.33,1705.21 1803.07,1707.25L1647.86,1811.14C1644.57,1813.2 1636.87,1814.86 1630.67,1814.86Z" style="fill-opacity:0.17;"/></g><g transform="matrix(0.716442,-1.79452e-17,-1.74375e-17,0.763813,630.233,390.194)"><path d="M1630.67,1814.86L777.507,1810.02C771.3,1810.01 769.902,1799.37 773.193,1797.31L933.088,1697.1C936.346,1695.06 943.97,1693.41 950.117,1693.41L1800.4,1694.07C1806.55,1694.07 1806.33,1705.21 1803.07,1707.25L1647.86,1811.14C1644.57,1813.2 1636.87,1814.86 1630.67,1814.86Z" style="fill:rgb(45,69,132);"/></g><g transform="matrix(0.716442,-1.79452e-17,-1.74375e-17,0.763813,630.233,390.194)"><path d="M1628.54,1801.7L778.472,1801.05C772.265,1801.04 769.902,1799.37 773.193,1797.31L933.088,1697.1C936.346,1695.06 943.97,1693.41 950.117,1693.41L1800.4,1694.07C1806.55,1694.07 1808.89,1695.73 1805.63,1697.77L1645.73,1797.98C1642.44,1800.04 1634.74,1801.7 1628.54,1801.7Z" style="fill:rgb(190,230,255);"/></g><g transform="matrix(0.716442,-1.79452e-17,-1.74375e-17,0.763813,630.233,390.194)"><g transform="matrix(3.48851,0,-1.83818,1.157,994.328,1704.89)"><path d="M0,8.592L-9.227,8.571C-10.125,8.569 -10.851,7.839 -10.849,6.942L-10.836,1.622C-10.834,0.724 -10.105,-0.002 -9.208,0L0.02,0.021C0.917,0.023 1.644,0.753 1.641,1.651L1.629,6.97C1.627,7.868 0.897,8.594 0,8.592" style="fill:rgb(64,103,177);fill-rule:nonzero;"/></g><g transform="matrix(3.48851,0,-1.83818,1.157,1051.01,1704.94)"><path d="M0,8.592L-9.227,8.571C-10.125,8.569 -10.851,7.839 -10.849,6.942L-10.836,1.622C-10.834,0.724 -10.104,-0.002 -9.207,0L0.02,0.021C0.918,0.023 1.644,0.753 1.642,1.651L1.629,6.97C1.627,7.868 0.898,8.594 0,8.592" style="fill:rgb(64,103,177);fill-rule:nonzero;"/></g><g transform="matrix(3.48851,0,-1.83818,1.157,1107.7,1704.98)"><path d="M0,8.592L-9.227,8.571C-10.125,8.569 -10.851,7.839 -10.849,6.942L-10.836,1.621C-10.834,0.724 -10.104,-0.002 -9.207,0L0.02,0.021C0.917,0.023 1.644,0.753 1.642,1.65L1.629,6.97C1.627,7.868 0.898,8.594 0,8.592" style="fill:rgb(64,103,177);fill-rule:nonzero;"/></g><g transform="matrix(3.48851,0,-1.83818,1.157,1164.39,1705.02)"><path d="M0,8.592L-9.227,8.571C-10.125,8.569 -10.851,7.839 -10.849,6.942L-10.836,1.622C-10.834,0.724 -10.105,-0.002 -9.207,0L0.02,0.021C0.917,0.023 1.644,0.753 1.642,1.651L1.629,6.97C1.627,7.868 0.897,8.594 0,8.592" style="fill:rgb(64,103,177);fill-rule:nonzero;"/></g><g transform="matrix(3.48851,0,-1.83818,1.157,1221.08,1705.07)"><path d="M0,8.592L-9.227,8.571C-10.125,8.569 -10.851,7.839 -10.849,6.942L-10.836,1.621C-10.834,0.724 -10.105,-0.002 -9.208,0L0.02,0.021C0.917,0.023 1.644,0.753 1.641,1.65L1.629,6.97C1.627,7.868 0.897,8.594 0,8.592" style="fill:rgb(64,103,177);fill-rule:nonzero;"/></g><g transform="matrix(3.48851,0,-1.83818,1.157,1277.76,1705.11)"><path d="M0,8.592L-9.227,8.571C-10.125,8.569 -10.851,7.839 -10.848,6.942L-10.836,1.622C-10.834,0.724 -10.104,-0.002 -9.207,0L0.02,0.021C0.918,0.023 1.644,0.753 1.642,1.651L1.629,6.97C1.627,7.868 0.898,8.594 0,8.592" style="fill:rgb(64,103,177);fill-rule:nonzero;"/></g><g transform="matrix(3.48851,0,-1.83818,1.157,1334.45,1705.16)"><path d="M0,8.592L-9.227,8.571C-10.125,8.569 -10.851,7.839 -10.849,6.942L-10.836,1.621C-10.834,0.724 -10.104,-0.002 -9.207,0L0.02,0.021C0.917,0.023 1.644,0.753 1.642,1.65L1.629,6.97C1.627,7.868 0.898,8.594 0,8.592" style="fill:rgb(64,103,177);fill-rule:nonzero;"/></g><g transform="matrix(3.48851,0,-1.83818,1.157,1391.14,1705.2)"><path d="M0,8.592L-9.227,8.571C-10.125,8.569 -10.851,7.839 -10.849,6.942L-10.836,1.621C-10.834,0.724 -10.105,-0.002 -9.207,0L0.02,0.021C0.918,0.023 1.644,0.753 1.642,1.65L1.629,6.97C1.627,7.868 0.897,8.594 0,8.592" style="fill:rgb(64,103,177);fill-rule:nonzero;"/></g><g transform="matrix(3.48851,0,-1.83818,1.157,1447.82,1705.24)"><path d="M0,8.592L-9.227,8.571C-10.125,8.569 -10.851,7.839 -10.849,6.942L-10.836,1.621C-10.834,0.724 -10.104,-0.002 -9.207,0L0.02,0.021C0.917,0.023 1.644,0.753 1.642,1.65L1.629,6.97C1.627,7.868 0.897,8.594 0,8.592" style="fill:rgb(64,103,177);fill-rule:nonzero;"/></g><g transform="matrix(3.48851,0,-1.83818,1.157,1504.51,1705.29)"><path d="M0,8.592L-9.228,8.571C-10.125,8.569 -10.851,7.839 -10.849,6.941L-10.836,1.621C-10.834,0.724 -10.105,-0.002 -9.207,0L0.02,0.021C0.917,0.023 1.644,0.753 1.642,1.65L1.629,6.97C1.627,7.868 0.897,8.594 0,8.592" style="fill:rgb(64,103,177);fill-rule:nonzero;"/></g><g transform="matrix(3.48851,0,-1.83818,1.157,1561.2,1705.33)"><path d="M0,8.592L-9.228,8.571C-10.125,8.569 -10.851,7.839 -10.849,6.942L-10.837,1.621C-10.834,0.724 -10.105,-0.002 -9.207,0L0.02,0.021C0.917,0.023 1.644,0.753 1.642,1.65L1.629,6.97C1.627,7.868 0.897,8.594 0,8.592" style="fill:rgb(64,103,177);fill-rule:nonzero;"/></g><g transform="matrix(3.48851,0,-1.83818,1.157,1617.89,1705.37)"><path d="M0,8.592L-9.228,8.571C-10.125,8.569 -10.851,7.839 -10.849,6.941L-10.837,1.621C-10.835,0.724 -10.105,-0.002 -9.207,0L0.02,0.021C0.917,0.023 1.644,0.753 1.642,1.65L1.629,6.97C1.627,7.868 0.897,8.594 0,8.592" style="fill:rgb(64,103,177);fill-rule:nonzero;"/></g><g transform="matrix(3.48851,0,-1.83818,1.157,1687.57,1705.42)"><path d="M0,8.592L-12.953,8.571C-13.851,8.569 -14.577,7.839 -14.574,6.942L-14.563,1.621C-14.561,0.724 -13.831,-0.002 -12.934,0L0.021,0.021C0.918,0.023 1.644,0.753 1.642,1.65L1.629,6.97C1.627,7.868 0.898,8.594 0,8.592" style="fill:rgb(64,103,177);fill-rule:nonzero;"/></g><g transform="matrix(3.48851,0,-1.83818,1.157,1757.55,1705.46)"><path d="M0,8.609L-13.037,8.57C-13.935,8.568 -14.661,7.839 -14.659,6.941L-14.646,1.621C-14.645,0.724 -13.915,-0.002 -13.018,0L0.02,0.038C0.917,0.041 1.644,0.77 1.641,1.668L1.629,6.987C1.627,7.885 0.897,8.611 0,8.609" style="fill:rgb(64,103,177);fill-rule:nonzero;"/></g><g transform="matrix(3.48851,0,-1.83818,1.157,883.731,1774.16)"><path d="M0,16.406L-9.227,16.385C-10.125,16.383 -10.851,15.653 -10.849,14.756L-10.818,1.622C-10.816,0.724 -10.086,-0.002 -9.189,0L0.038,0.021C0.936,0.023 1.662,0.753 1.66,1.65L1.629,14.785C1.627,15.682 0.898,16.408 0,16.406" style="fill:rgb(64,103,177);fill-rule:nonzero;"/></g><g transform="matrix(3.48851,0,-1.83818,1.157,940.418,1774.21)"><path d="M0,16.406L-9.227,16.385C-10.125,16.383 -10.851,15.653 -10.849,14.755L-10.818,1.621C-10.816,0.723 -10.087,-0.002 -9.189,0L0.038,0.021C0.936,0.023 1.662,0.753 1.66,1.65L1.629,14.784C1.627,15.681 0.898,16.408 0,16.406" style="fill:rgb(64,103,177);fill-rule:nonzero;"/></g><g transform="matrix(3.48851,0,-1.83818,1.157,997.106,1774.25)"><path d="M0,16.406L-9.227,16.385C-10.125,16.383 -10.851,15.653 -10.849,14.756L-10.818,1.622C-10.816,0.724 -10.087,-0.002 -9.189,0L0.038,0.021C0.936,0.023 1.662,0.753 1.66,1.65L1.629,14.784C1.627,15.682 0.898,16.408 0,16.406" style="fill:rgb(64,103,177);fill-rule:nonzero;"/></g><g transform="matrix(3.48851,0,-1.83818,1.157,1053.79,1774.29)"><path d="M0,16.406L-9.227,16.385C-10.125,16.383 -10.851,15.653 -10.849,14.755L-10.818,1.621C-10.816,0.723 -10.087,-0.002 -9.189,0L0.038,0.02C0.936,0.023 1.662,0.753 1.659,1.65L1.629,14.784C1.627,15.681 0.897,16.408 0,16.406" style="fill:rgb(64,103,177);fill-rule:nonzero;"/></g><g transform="matrix(3.48851,0,-1.83818,1.157,1280.75,1774.34)"><path d="M0,16.518L-58.035,16.384C-58.933,16.382 -59.659,15.653 -59.657,14.755L-59.626,1.622C-59.625,0.724 -58.895,-0.003 -57.998,-0.001L0.038,0.133C0.936,0.136 1.661,0.866 1.659,1.763L1.629,14.897C1.627,15.794 0.897,16.521 0,16.518" style="fill:rgb(64,103,177);fill-rule:nonzero;"/></g><g transform="matrix(3.48851,0,-1.83818,1.157,1337.23,1774.51)"><path d="M0,16.406L-9.228,16.385C-10.125,16.383 -10.851,15.653 -10.849,14.756L-10.818,1.622C-10.816,0.723 -10.087,-0.002 -9.189,0L0.038,0.021C0.936,0.023 1.661,0.753 1.659,1.65L1.629,14.784C1.627,15.682 0.897,16.408 0,16.406" style="fill:rgb(64,103,177);fill-rule:nonzero;"/></g><g transform="matrix(3.48851,0,-1.83818,1.157,1393.91,1774.56)"><path d="M0,16.404L-9.228,16.383C-10.125,16.381 -10.851,15.652 -10.849,14.754L-10.818,1.62C-10.816,0.722 -10.087,-0.003 -9.189,-0.001L0.038,0.019C0.936,0.022 1.661,0.752 1.659,1.649L1.629,14.783C1.627,15.68 0.897,16.407 0,16.404" style="fill:rgb(64,103,177);fill-rule:nonzero;"/></g><g transform="matrix(3.48851,0,-1.83818,1.157,1450.6,1774.6)"><path d="M0,16.406L-9.228,16.385C-10.125,16.383 -10.851,15.653 -10.849,14.756L-10.818,1.622C-10.816,0.723 -10.087,-0.002 -9.189,0L0.037,0.021C0.936,0.023 1.661,0.753 1.659,1.65L1.629,14.784C1.627,15.682 0.897,16.408 0,16.406" style="fill:rgb(64,103,177);fill-rule:nonzero;"/></g><g transform="matrix(3.48851,0,-1.83818,1.157,1561.52,1786.36)"><path d="M0,6.325L-10.474,6.301C-11.371,6.299 -12.097,5.569 -12.095,4.672L-12.088,1.622C-12.086,0.724 -11.356,-0.002 -10.459,0L0.015,0.024C0.912,0.026 1.639,0.756 1.636,1.653L1.629,4.703C1.627,5.601 0.897,6.327 0,6.325" style="fill:rgb(64,103,177);fill-rule:nonzero;"/></g><g transform="matrix(3.48851,0,-1.83818,1.157,1623.87,1786.41)"><path d="M0,6.324L-10.474,6.3C-11.371,6.298 -12.097,5.568 -12.095,4.671L-12.088,1.621C-12.086,0.723 -11.356,-0.002 -10.459,0L0.015,0.024C0.912,0.026 1.639,0.755 1.636,1.653L1.629,4.703C1.627,5.6 0.897,6.326 0,6.324" style="fill:rgb(64,103,177);fill-rule:nonzero;"/></g><g transform="matrix(3.48851,0,-1.83818,1.157,1499.17,1786.31)"><path d="M0,6.325L-10.473,6.301C-11.371,6.299 -12.097,5.569 -12.095,4.671L-12.088,1.622C-12.086,0.723 -11.356,-0.002 -10.459,0L0.015,0.024C0.912,0.026 1.639,0.756 1.637,1.653L1.629,4.703C1.627,5.6 0.897,6.327 0,6.325" style="fill:rgb(64,103,177);fill-rule:nonzero;"/></g><g transform="matrix(3.48851,0,-1.83818,1.157,1580.14,1774.7)"><path d="M0,6.323L-10.474,6.3C-11.371,6.298 -12.097,5.568 -12.095,4.67L-12.088,1.621C-12.086,0.722 -11.356,-0.003 -10.459,-0.001L0.015,0.023C0.912,0.025 1.638,0.755 1.636,1.652L1.629,4.702C1.627,5.599 0.897,6.326 0,6.323" style="fill:rgb(64,103,177);fill-rule:nonzero;"/></g><g transform="matrix(3.48851,0,-1.83818,1.157,972.073,1718.82)"><path d="M0,12.499L-9.227,12.478C-10.125,12.476 -10.851,11.746 -10.849,10.849L-10.827,1.622C-10.825,0.724 -10.096,-0.002 -9.198,0L0.029,0.021C0.927,0.023 1.653,0.753 1.651,1.65L1.629,10.878C1.627,11.775 0.898,12.501 0,12.499" style="fill:rgb(64,103,177);fill-rule:nonzero;"/></g><g transform="matrix(3.48851,0,-1.83818,1.157,1028.76,1718.86)"><path d="M0,12.499L-9.227,12.478C-10.125,12.476 -10.851,11.746 -10.849,10.849L-10.827,1.621C-10.825,0.724 -10.096,-0.002 -9.198,-0.001L0.029,0.021C0.927,0.023 1.652,0.752 1.65,1.65L1.629,10.877C1.627,11.774 0.898,12.501 0,12.499" style="fill:rgb(64,103,177);fill-rule:nonzero;"/></g><g transform="matrix(3.48851,0,-1.83818,1.157,1085.45,1718.91)"><path d="M0,12.499L-9.227,12.478C-10.125,12.476 -10.851,11.746 -10.849,10.849L-10.828,1.622C-10.825,0.724 -10.096,-0.002 -9.198,0L0.029,0.021C0.926,0.023 1.652,0.753 1.65,1.65L1.629,10.878C1.627,11.775 0.897,12.501 0,12.499" style="fill:rgb(64,103,177);fill-rule:nonzero;"/></g><g transform="matrix(3.48851,0,-1.83818,1.157,1142.13,1718.95)"><path d="M0,12.499L-9.227,12.478C-10.125,12.476 -10.851,11.746 -10.848,10.849L-10.827,1.621C-10.825,0.724 -10.096,-0.002 -9.198,-0.001L0.029,0.021C0.927,0.023 1.653,0.752 1.651,1.65L1.629,10.877C1.627,11.774 0.898,12.501 0,12.499" style="fill:rgb(64,103,177);fill-rule:nonzero;"/></g><g transform="matrix(3.48851,0,-1.83818,1.157,1198.82,1718.99)"><path d="M0,12.499L-9.227,12.478C-10.125,12.476 -10.851,11.746 -10.849,10.849L-10.827,1.622C-10.825,0.724 -10.096,-0.002 -9.198,0L0.029,0.021C0.927,0.023 1.653,0.753 1.651,1.65L1.629,10.878C1.627,11.775 0.898,12.501 0,12.499" style="fill:rgb(64,103,177);fill-rule:nonzero;"/></g><g transform="matrix(3.48851,0,-1.83818,1.157,1255.51,1719.04)"><path d="M0,12.499L-9.227,12.478C-10.125,12.476 -10.851,11.746 -10.849,10.849L-10.827,1.621C-10.825,0.724 -10.096,-0.002 -9.198,-0.001L0.029,0.021C0.927,0.023 1.653,0.752 1.65,1.65L1.629,10.877C1.627,11.774 0.898,12.501 0,12.499" style="fill:rgb(64,103,177);fill-rule:nonzero;"/></g><g transform="matrix(3.48851,0,-1.83818,1.157,1312.2,1719.08)"><path d="M0,12.499L-9.227,12.478C-10.125,12.476 -10.851,11.746 -10.849,10.849L-10.827,1.622C-10.825,0.724 -10.096,-0.002 -9.198,0L0.029,0.021C0.926,0.023 1.652,0.753 1.65,1.65L1.629,10.878C1.627,11.775 0.897,12.501 0,12.499" style="fill:rgb(64,103,177);fill-rule:nonzero;"/></g><g transform="matrix(3.48851,0,-1.83818,1.157,1368.88,1719.13)"><path d="M0,12.499L-9.227,12.478C-10.124,12.476 -10.85,11.746 -10.848,10.849L-10.827,1.621C-10.825,0.724 -10.096,-0.002 -9.198,-0.001L0.029,0.021C0.927,0.023 1.653,0.752 1.65,1.65L1.63,10.877C1.628,11.774 0.898,12.501 0,12.499" style="fill:rgb(64,103,177);fill-rule:nonzero;"/></g><g transform="matrix(3.48851,0,-1.83818,1.157,1425.57,1719.17)"><path d="M0,12.499L-9.227,12.478C-10.124,12.476 -10.851,11.746 -10.849,10.849L-10.827,1.622C-10.825,0.724 -10.096,-0.002 -9.198,0L0.029,0.021C0.927,0.023 1.652,0.753 1.65,1.65L1.629,10.878C1.627,11.775 0.897,12.501 0,12.499" style="fill:rgb(64,103,177);fill-rule:nonzero;"/></g><g transform="matrix(3.48851,0,-1.83818,1.157,1482.25,1719.21)"><path d="M0,12.499L-9.227,12.478C-10.124,12.476 -10.851,11.746 -10.849,10.848L-10.827,1.621C-10.825,0.724 -10.096,-0.002 -9.198,-0.001L0.029,0.021C0.927,0.023 1.652,0.752 1.65,1.65L1.629,10.877C1.627,11.774 0.897,12.501 0,12.499" style="fill:rgb(64,103,177);fill-rule:nonzero;"/></g><g transform="matrix(3.48851,0,-1.83818,1.157,1538.94,1719.26)"><path d="M0,12.499L-9.227,12.478C-10.125,12.476 -10.851,11.746 -10.849,10.849L-10.827,1.622C-10.825,0.724 -10.096,-0.002 -9.198,0L0.029,0.021C0.927,0.023 1.652,0.753 1.65,1.65L1.629,10.878C1.627,11.775 0.897,12.501 0,12.499" style="fill:rgb(64,103,177);fill-rule:nonzero;"/></g><g transform="matrix(3.48851,0,-1.83818,1.157,1595.63,1719.3)"><path d="M0,12.499L-9.227,12.478C-10.125,12.476 -10.851,11.746 -10.849,10.848L-10.827,1.621C-10.825,0.724 -10.096,-0.002 -9.198,-0.001L0.028,0.021C0.927,0.023 1.652,0.752 1.65,1.65L1.629,10.877C1.627,11.774 0.897,12.501 0,12.499" style="fill:rgb(64,103,177);fill-rule:nonzero;"/></g><g transform="matrix(3.48851,0,-1.83818,1.157,1665.32,1719.34)"><path d="M0,12.499L-12.954,12.478C-13.852,12.476 -14.577,11.746 -14.575,10.849L-14.554,1.622C-14.552,0.724 -13.822,-0.002 -12.925,0L0.028,0.021C0.926,0.023 1.652,0.753 1.65,1.65L1.629,10.878C1.627,11.775 0.897,12.501 0,12.499" style="fill:rgb(64,103,177);fill-rule:nonzero;"/></g><g transform="matrix(3.48851,0,-1.83818,1.157,1735.3,1719.39)"><path d="M0,12.516L-13.037,12.478C-13.935,12.476 -14.661,11.746 -14.659,10.848L-14.638,1.621C-14.636,0.724 -13.906,-0.002 -13.008,0L0.028,0.038C0.927,0.04 1.652,0.77 1.65,1.668L1.629,10.895C1.627,11.792 0.897,12.518 0,12.516" style="fill:rgb(64,103,177);fill-rule:nonzero;"/></g><g transform="matrix(3.48851,0,-1.83818,1.157,970.301,1737.27)"><path d="M0,12.536L-17.157,12.477C-18.055,12.475 -18.781,11.746 -18.779,10.849L-18.758,1.621C-18.755,0.723 -18.026,-0.002 -17.128,0L0.029,0.058C0.927,0.06 1.653,0.79 1.651,1.687L1.629,10.915C1.627,11.812 0.898,12.538 0,12.536" style="fill:rgb(64,103,177);fill-rule:nonzero;"/></g><g transform="matrix(3.48851,0,-1.83818,1.157,1056.01,1737.36)"><path d="M0,12.499L-17.156,12.478C-18.053,12.476 -18.779,11.746 -18.777,10.849L-18.756,1.621C-18.754,0.724 -18.024,-0.002 -17.127,0L0.029,0.021C0.927,0.023 1.653,0.753 1.65,1.65L1.629,10.877C1.627,11.775 0.898,12.501 0,12.499" style="fill:rgb(64,103,177);fill-rule:nonzero;"/></g><g transform="matrix(3.48851,0,-1.83818,1.157,1112.7,1737.4)"><path d="M0,12.499L-9.227,12.478C-10.125,12.476 -10.851,11.746 -10.849,10.849L-10.827,1.622C-10.825,0.725 -10.096,-0.002 -9.198,0L0.029,0.021C0.927,0.023 1.653,0.753 1.65,1.65L1.629,10.878C1.627,11.775 0.898,12.501 0,12.499" style="fill:rgb(64,103,177);fill-rule:nonzero;"/></g><g transform="matrix(3.48851,0,-1.83818,1.157,1169.38,1737.44)"><path d="M0,12.499L-9.227,12.478C-10.125,12.476 -10.851,11.746 -10.849,10.849L-10.827,1.621C-10.825,0.724 -10.096,-0.002 -9.198,0L0.029,0.021C0.926,0.023 1.652,0.753 1.65,1.65L1.629,10.877C1.627,11.775 0.897,12.501 0,12.499" style="fill:rgb(64,103,177);fill-rule:nonzero;"/></g><g transform="matrix(3.48851,0,-1.83818,1.157,1226.07,1737.49)"><path d="M0,12.499L-9.227,12.478C-10.125,12.476 -10.851,11.746 -10.849,10.849L-10.828,1.622C-10.825,0.725 -10.096,-0.002 -9.198,0L0.029,0.021C0.926,0.023 1.652,0.753 1.65,1.65L1.629,10.878C1.627,11.775 0.897,12.501 0,12.499" style="fill:rgb(64,103,177);fill-rule:nonzero;"/></g><g transform="matrix(3.48851,0,-1.83818,1.157,1282.76,1737.53)"><path d="M0,12.499L-9.227,12.478C-10.125,12.476 -10.851,11.746 -10.849,10.849L-10.828,1.621C-10.825,0.724 -10.096,-0.002 -9.198,0L0.029,0.021C0.926,0.023 1.652,0.753 1.65,1.65L1.629,10.877C1.627,11.775 0.897,12.501 0,12.499" style="fill:rgb(64,103,177);fill-rule:nonzero;"/></g><g transform="matrix(3.48851,0,-1.83818,1.157,1339.45,1737.57)"><path d="M0,12.499L-9.228,12.478C-10.125,12.476 -10.851,11.746 -10.849,10.849L-10.828,1.622C-10.826,0.725 -10.096,-0.002 -9.198,0L0.028,0.021C0.926,0.023 1.652,0.753 1.65,1.65L1.629,10.878C1.627,11.775 0.897,12.501 0,12.499" style="fill:rgb(64,103,177);fill-rule:nonzero;"/></g><g transform="matrix(3.48851,0,-1.83818,1.157,1396.13,1737.62)"><path d="M0,12.499L-9.228,12.478C-10.125,12.476 -10.852,11.746 -10.849,10.849L-10.828,1.621C-10.825,0.724 -10.097,-0.002 -9.198,0L0.028,0.021C0.926,0.023 1.652,0.753 1.65,1.65L1.629,10.877C1.627,11.774 0.897,12.501 0,12.499" style="fill:rgb(64,103,177);fill-rule:nonzero;"/></g><g transform="matrix(3.48851,0,-1.83818,1.157,1452.82,1737.66)"><path d="M0,12.499L-9.227,12.478C-10.124,12.476 -10.851,11.746 -10.849,10.849L-10.827,1.622C-10.825,0.725 -10.096,-0.002 -9.197,0L0.029,0.021C0.927,0.023 1.653,0.753 1.651,1.65L1.63,10.878C1.628,11.775 0.898,12.501 0,12.499" style="fill:rgb(64,103,177);fill-rule:nonzero;"/></g><g transform="matrix(3.48851,0,-1.83818,1.157,1509.51,1737.7)"><path d="M0,12.499L-9.227,12.478C-10.124,12.476 -10.851,11.746 -10.849,10.849L-10.827,1.621C-10.825,0.724 -10.096,-0.002 -9.198,0L0.029,0.021C0.927,0.023 1.653,0.753 1.65,1.65L1.63,10.877C1.627,11.774 0.898,12.501 0,12.499" style="fill:rgb(64,103,177);fill-rule:nonzero;"/></g><g transform="matrix(3.48851,0,-1.83818,1.157,1566.19,1737.75)"><path d="M0,12.499L-9.227,12.478C-10.124,12.476 -10.851,11.746 -10.849,10.849L-10.827,1.622C-10.825,0.724 -10.096,-0.002 -9.198,0L0.029,0.021C0.927,0.023 1.652,0.753 1.65,1.65L1.629,10.878C1.627,11.775 0.897,12.501 0,12.499" style="fill:rgb(64,103,177);fill-rule:nonzero;"/></g><g transform="matrix(3.48851,0,-1.83818,1.157,1621.71,1737.75)"><path d="M0,12.499L-9.228,12.478C-10.125,12.476 -10.851,11.746 -10.849,10.849L-10.827,1.622C-10.825,0.724 -10.097,-0.002 -9.198,0L0.028,0.021C0.926,0.023 1.652,0.753 1.65,1.65L1.629,10.878C1.627,11.775 0.897,12.501 0,12.499" style="fill:rgb(64,103,177);fill-rule:nonzero;"/></g><g transform="matrix(3.48851,0,-1.83818,1.157,1705.93,1737.79)"><path d="M0,12.554L-16.885,12.478C-17.783,12.476 -18.509,11.746 -18.507,10.849L-18.485,1.621C-18.483,0.724 -17.754,-0.002 -16.856,0L0.029,0.076C0.927,0.078 1.652,0.808 1.65,1.705L1.629,10.932C1.627,11.83 0.897,12.556 0,12.554" style="fill:rgb(64,103,177);fill-rule:nonzero;"/></g><g transform="matrix(3.48851,0,-1.83818,1.157,969.957,1755.72)"><path d="M0,12.537L-25.497,12.478C-26.394,12.476 -27.12,11.747 -27.118,10.85L-27.097,1.622C-27.095,0.724 -26.365,-0.002 -25.468,0.001L0.029,0.059C0.927,0.061 1.652,0.791 1.65,1.688L1.629,10.915C1.627,11.813 0.898,12.539 0,12.537" style="fill:rgb(64,103,177);fill-rule:nonzero;"/></g><g transform="matrix(3.48851,0,-1.83818,1.157,1026.58,1755.8)"><path d="M0,12.5L-9.227,12.479C-10.125,12.477 -10.851,11.747 -10.849,10.849L-10.827,1.622C-10.825,0.725 -10.096,-0.002 -9.198,0L0.029,0.021C0.926,0.024 1.652,0.753 1.65,1.651L1.629,10.878C1.627,11.775 0.897,12.502 0,12.5" style="fill:rgb(64,103,177);fill-rule:nonzero;"/></g><g transform="matrix(3.48851,0,-1.83818,1.157,1083.26,1755.85)"><path d="M0,12.499L-9.227,12.478C-10.125,12.476 -10.851,11.746 -10.849,10.849L-10.827,1.622C-10.825,0.724 -10.096,-0.002 -9.198,0L0.029,0.021C0.926,0.023 1.652,0.753 1.65,1.65L1.629,10.877C1.627,11.775 0.897,12.501 0,12.499" style="fill:rgb(64,103,177);fill-rule:nonzero;"/></g><g transform="matrix(3.48851,0,-1.83818,1.157,1139.95,1755.89)"><path d="M0,12.5L-9.227,12.479C-10.125,12.477 -10.851,11.747 -10.849,10.849L-10.828,1.622C-10.826,0.725 -10.096,-0.002 -9.198,0L0.029,0.021C0.926,0.023 1.652,0.753 1.65,1.651L1.629,10.878C1.627,11.775 0.897,12.502 0,12.5" style="fill:rgb(64,103,177);fill-rule:nonzero;"/></g><g transform="matrix(3.48851,0,-1.83818,1.157,1196.63,1755.93)"><path d="M0,12.499L-9.227,12.478C-10.125,12.476 -10.851,11.746 -10.849,10.849L-10.827,1.622C-10.825,0.724 -10.096,-0.002 -9.198,0L0.029,0.021C0.927,0.023 1.653,0.753 1.65,1.65L1.629,10.877C1.627,11.775 0.898,12.501 0,12.499" style="fill:rgb(64,103,177);fill-rule:nonzero;"/></g><g transform="matrix(3.48851,0,-1.83818,1.157,1253.32,1755.98)"><path d="M0,12.5L-9.227,12.479C-10.125,12.477 -10.851,11.747 -10.849,10.849L-10.827,1.622C-10.825,0.725 -10.096,-0.002 -9.198,0L0.029,0.021C0.927,0.023 1.653,0.753 1.65,1.651L1.629,10.878C1.627,11.775 0.897,12.502 0,12.5" style="fill:rgb(64,103,177);fill-rule:nonzero;"/></g><g transform="matrix(3.48851,0,-1.83818,1.157,1310.01,1756.02)"><path d="M0,12.499L-9.227,12.478C-10.125,12.476 -10.851,11.746 -10.849,10.849L-10.827,1.621C-10.825,0.724 -10.096,-0.002 -9.198,0L0.028,0.021C0.927,0.023 1.652,0.753 1.65,1.65L1.629,10.877C1.627,11.775 0.897,12.501 0,12.499" style="fill:rgb(64,103,177);fill-rule:nonzero;"/></g><g transform="matrix(3.48851,0,-1.83818,1.157,1366.7,1756.06)"><path d="M0,12.5L-9.228,12.479C-10.125,12.477 -10.851,11.747 -10.849,10.849L-10.827,1.622C-10.825,0.725 -10.096,-0.002 -9.198,0L0.028,0.021C0.927,0.023 1.652,0.753 1.65,1.651L1.629,10.878C1.627,11.775 0.897,12.502 0,12.5" style="fill:rgb(64,103,177);fill-rule:nonzero;"/></g><g transform="matrix(3.48851,0,-1.83818,1.157,1423.38,1756.11)"><path d="M0,12.499L-9.228,12.478C-10.125,12.476 -10.851,11.746 -10.849,10.849L-10.827,1.621C-10.825,0.724 -10.096,-0.002 -9.198,0L0.028,0.021C0.927,0.023 1.652,0.753 1.65,1.65L1.629,10.877C1.627,11.775 0.897,12.501 0,12.499" style="fill:rgb(64,103,177);fill-rule:nonzero;"/></g><g transform="matrix(3.48851,0,-1.83818,1.157,1480.07,1756.15)"><path d="M0,12.5L-9.228,12.479C-10.125,12.476 -10.851,11.747 -10.849,10.849L-10.828,1.622C-10.825,0.725 -10.096,-0.002 -9.198,0L0.028,0.021C0.926,0.023 1.652,0.753 1.65,1.651L1.629,10.878C1.627,11.775 0.897,12.502 0,12.5" style="fill:rgb(64,103,177);fill-rule:nonzero;"/></g><g transform="matrix(3.48851,0,-1.83818,1.157,1536.76,1756.19)"><path d="M0,12.499L-9.227,12.478C-10.124,12.476 -10.851,11.746 -10.848,10.849L-10.827,1.621C-10.825,0.724 -10.096,-0.002 -9.197,0L0.029,0.021C0.927,0.023 1.653,0.753 1.651,1.65L1.63,10.877C1.628,11.775 0.898,12.501 0,12.499" style="fill:rgb(64,103,177);fill-rule:nonzero;"/></g><g transform="matrix(3.48851,0,-1.83818,1.157,1676.49,1756.24)"><path d="M0,12.555L-33.032,12.479C-33.93,12.476 -34.656,11.747 -34.654,10.849L-34.633,1.622C-34.631,0.725 -33.901,-0.002 -33.004,0L0.029,0.077C0.927,0.079 1.653,0.809 1.65,1.706L1.63,10.933C1.628,11.83 0.898,12.557 0,12.555" style="fill:rgb(64,103,177);fill-rule:nonzero;"/></g></g></g></g><g><g transform="matrix(-1.41769,-2.9051,-2.9051,1.41769,279.086,606.152)"><path d="M-27.534,-28.26C-27.534,-28.26 -40.01,-29.805 -39.673,-16.575C-39.337,-3.345 -19.783,11.036 -27.534,29.656C-10.094,17.435 -5.559,6.457 -6.883,-6.386C-8.485,-21.924 -21.257,-36.335 -27.534,-28.26" style="fill:rgb(63,160,146);fill-rule:nonzero;"/></g><g transform="matrix(3.23256,0,0,3.23256,367.736,703.155)"><path d="M0,-19.123C-8.582,-17.217 -12.606,-8.039 -12.096,-0.255C-10.396,-0.152 -8.724,-0.052 -7.1,0C-7.821,-6.859 -5.753,-15.288 0,-19.123" style="fill:rgb(14,132,124);fill-rule:nonzero;"/></g><g transform="matrix(3.23256,0,0,3.23256,304.578,704.393)"><path d="M0,-17.17C-7.498,-14.358 -8.43,-7.369 -10.106,0C-8.63,-0.355 -7.126,-0.591 -5.608,-0.741C-6.214,-7.104 -3.76,-12.47 0,-17.17" style="fill:rgb(14,132,124);fill-rule:nonzero;"/></g><g transform="matrix(3.23256,0,0,3.23256,328.946,617.951)"><path d="M0,7.235C-1.556,3.344 -4.324,1.874 -7.36,0C-9.522,0.835 -11.545,1.821 -13.428,3.002C-8.92,3.03 -4.214,5.128 0,7.235" style="fill:rgb(14,132,124);fill-rule:nonzero;"/></g><g transform="matrix(3.23256,0,0,3.23256,484.169,639.245)"><path d="M0,54.683C0.797,49.94 0.745,44.897 0.203,40.023C-0.342,35.121 -1.516,30.287 -3.274,25.672C-5.031,21.075 -7.421,16.634 -10.322,12.718C-11.844,10.806 -13.683,9.156 -15.661,7.706C-17.64,6.253 -19.805,5.042 -22.075,4.074C-26.601,2.092 -31.51,0.995 -36.455,0.638C-41.403,0.287 -46.421,0.686 -51.246,1.9C-56.067,3.1 -60.707,5.152 -64.711,8.125C-66.693,9.632 -68.529,11.341 -70.111,13.275C-71.665,15.23 -72.972,17.373 -74.019,19.648C-73.01,17.357 -71.737,15.186 -70.209,13.197C-68.652,11.229 -66.835,9.478 -64.862,7.927C-60.878,4.863 -56.227,2.71 -51.372,1.415C-46.513,0.107 -41.438,-0.382 -36.408,-0.111C-31.38,0.168 -26.361,1.199 -21.683,3.154C-19.337,4.109 -17.085,5.319 -15.008,6.79C-12.933,8.258 -10.986,9.946 -9.355,11.926C-6.239,15.989 -3.777,20.413 -1.877,25.125C0.006,29.83 1.295,34.776 1.939,39.808C2.574,44.855 2.739,49.915 1.963,55.065L0,54.683Z" style="fill:rgb(14,132,124);fill-rule:nonzero;"/></g><g transform="matrix(-0.413869,3.20596,3.20596,0.413869,607.148,577.929)"><path d="M29.913,-23.113C29.913,-23.113 42.389,-24.657 42.052,-11.427C41.715,1.803 22.161,16.184 29.913,34.803C12.472,22.582 7.936,11.604 9.261,-1.239C10.863,-16.777 23.636,-31.188 29.913,-23.113" style="fill:rgb(63,160,146);fill-rule:nonzero;"/></g><g transform="matrix(3.23256,0,0,3.23256,648.97,632.55)"><path d="M0,6.719C2.795,3.924 5.59,3.572 8.726,3.612C7.553,2.274 6.367,1.072 5.164,0C2.377,1.251 0,3.272 0,6.719" style="fill:rgb(14,132,124);fill-rule:nonzero;"/></g><g transform="matrix(3.23256,0,0,3.23256,539.062,708.292)"><path d="M0,-15.712C1.672,-9.861 4.733,-5.403 5.695,-0.011C6.788,0 7.907,-0.115 9.045,-0.31C9.572,-6.939 2.913,-10.858 0,-15.712" style="fill:rgb(14,132,124);fill-rule:nonzero;"/></g><g transform="matrix(3.23256,0,0,3.23256,584.875,657.299)"><path d="M0,-1.939C1.455,-9.43 9.374,-13.139 16.569,-13.072C13.094,-14.55 9.442,-15.28 5.557,-15.479C-0.168,-13.572 -4.423,-8.364 -5.987,-1.704C-2.539,2.635 0.862,7.715 1.654,13.54C3.589,12.83 5.571,12.014 7.595,11.194C6.768,5.962 3.764,1.428 0,-1.939" style="fill:rgb(14,132,124);fill-rule:nonzero;"/></g><g transform="matrix(3.23256,0,0,3.23256,597.249,680.527)"><path d="M0,-9.54C6.084,-8.019 8.692,-3.187 9.155,1.917C10.888,1.296 12.644,0.731 14.421,0.285C12.124,-5.565 9.646,-11.457 0,-9.54" style="fill:rgb(14,132,124);fill-rule:nonzero;"/></g><g transform="matrix(3.23256,0,0,3.23256,446.397,647.611)"><path d="M0,50.092C-0.01,45.286 0.472,40.592 1.337,35.919C2.217,31.264 3.528,26.665 5.493,22.322C7.448,17.993 10.117,13.899 13.697,10.69C15.473,9.08 17.486,7.735 19.581,6.622C21.674,5.492 23.87,4.581 26.104,3.81C30.573,2.256 35.213,1.283 39.885,0.713C44.559,0.149 49.282,0 53.975,0.307C58.661,0.619 63.346,1.37 67.797,2.901C70.016,3.67 72.178,4.645 74.126,5.962C76.065,7.275 77.798,8.967 78.875,11.06C77.761,8.986 76.007,7.336 74.057,6.067C72.098,4.792 69.934,3.863 67.718,3.137C63.271,1.696 58.604,1.033 53.946,0.807C49.282,0.584 44.6,0.816 39.982,1.456C35.367,2.104 30.799,3.149 26.44,4.751C22.096,6.343 17.885,8.488 14.542,11.611C11.179,14.734 8.681,18.706 6.863,22.931C5.037,27.166 3.838,31.667 3.06,36.228C2.295,40.78 1.907,45.461 1.999,50.027L0,50.092Z" style="fill:rgb(14,132,124);fill-rule:nonzero;"/></g><g transform="matrix(3.23256,0,0,3.23256,445.34,457.633)"><path d="M0,40.41C0,40.41 1.316,49.33 -12.529,48.471C-33.101,47.194 -26.874,20.08 -31.44,6.83C-36.007,-6.42 -47.757,-8.92 -47.757,-8.92C-47.757,-8.92 -11.861,-5.17 1.316,12.58C14.493,30.33 10.007,43.075 0,40.41" style="fill:rgb(63,160,146);fill-rule:nonzero;"/></g><g transform="matrix(3.23256,0,0,3.23256,409.87,493.765)"><path d="M0,-8.911C-1.214,-9.602 -2.458,-10.255 -3.722,-10.868C-4.959,-8.765 -6.014,-3.992 -3.666,1.957C-4.777,-4.588 -1.781,-7.681 0,-8.911" style="fill:rgb(14,132,124);fill-rule:nonzero;"/></g><g transform="matrix(3.23256,0,0,3.23256,352.107,515.035)"><path d="M0,8.045C0.204,10.088 0.454,12.114 0.802,14.068C4.536,12.607 14.064,10.094 26.312,15.904C27.129,5.651 30.639,-0.467 32.02,-2.518C31.439,-3.392 30.828,-4.276 30.158,-5.178C29.464,-6.113 28.695,-7 27.883,-7.859C25.674,-5.505 20.924,0.483 22.085,7.447C15.056,5.244 4.42,5.419 0,8.045" style="fill:rgb(14,132,124);fill-rule:nonzero;"/></g><g transform="matrix(3.23256,0,0,3.23256,455.082,451.915)"><path d="M0,112.624C0.987,107.583 1.602,102.385 2.036,97.217C2.462,92.036 2.637,86.834 2.584,81.635C2.48,71.236 1.329,60.837 -1.05,50.706C-2.291,45.654 -3.862,40.685 -5.792,35.852C-7.716,31.015 -10.146,26.391 -12.891,21.968L-15.037,18.704L-17.39,15.585C-18.147,14.521 -19.026,13.559 -19.882,12.576C-20.759,11.612 -21.55,10.567 -22.508,9.681L-25.286,6.925C-26.23,6.026 -27.255,5.215 -28.236,4.355L-29.724,3.082C-30.235,2.678 -30.772,2.306 -31.295,1.915L-34.454,-0.401L-31.258,1.865C-30.728,2.247 -30.185,2.611 -29.666,3.009L-28.156,4.259C-27.16,5.103 -26.12,5.901 -25.159,6.787L-22.33,9.506C-21.354,10.381 -20.543,11.415 -19.648,12.369C-18.773,13.342 -17.874,14.296 -17.097,15.352L-14.681,18.449L-12.47,21.697C-9.639,26.102 -7.116,30.722 -5.099,35.564C-3.076,40.403 -1.412,45.389 -0.08,50.465C2.483,60.642 3.812,71.115 4.084,81.605C4.221,86.852 4.128,92.104 3.781,97.344C3.422,102.591 2.896,107.795 1.959,113.025L0,112.624Z" style="fill:rgb(14,132,124);fill-rule:nonzero;"/></g><g transform="matrix(3.23256,0,0,3.23256,498.407,499.006)"><path d="M0,40.412C0,40.412 -1.316,49.331 12.529,48.473C33.101,47.196 26.874,20.081 31.44,6.831C36.007,-6.419 47.757,-8.919 47.757,-8.919C47.757,-8.919 11.861,-5.169 -1.316,12.581C-14.493,30.331 -10.007,43.077 0,40.412" style="fill:rgb(63,160,146);fill-rule:nonzero;"/></g><g transform="matrix(3.23256,0,0,3.23256,595.851,499.953)"><path d="M0,12.194C0.309,10.139 0.714,8.225 1.296,6.538C1.369,6.326 1.449,6.125 1.526,5.918C-2.482,4.987 -7.236,5.453 -11.535,7.602C-10.708,2.641 -7.524,-1.481 -3.963,-4.509C-7.739,-3.308 -11.661,-1.825 -15.416,-0.006C-18.276,4.564 -17.623,11.114 -19.22,16.703C-12.939,12.215 -7.003,10.797 0,12.194" style="fill:rgb(14,132,124);fill-rule:nonzero;"/></g><g transform="matrix(3.23256,0,0,3.23256,500.272,629.152)"><path d="M0,-4.23C8.309,-3.307 15.753,-0.658 22.357,3.674C24.369,1.489 25.683,-1.336 26.574,-4.513C17.527,-5.676 9.185,-7.904 0,-4.23" style="fill:rgb(14,132,124);fill-rule:nonzero;"/></g><g transform="matrix(3.23256,0,0,3.23256,516.434,576.794)"><path d="M0,0.967C8.114,0.967 16.223,0.174 22.872,5.144C23.085,3.563 23.253,1.954 23.399,0.342C15.913,-2.702 6.857,-4.177 0,0.967" style="fill:rgb(14,132,124);fill-rule:nonzero;"/></g><g transform="matrix(-2.29819,-2.27328,-2.27328,2.29819,471.225,571.316)"><path d="M1.748,-21.353C2.191,-18.162 2.275,-14.995 1.841,-11.947C1.813,-11.746 1.778,-11.556 1.748,-11.358C-2.274,-7.473 -7.506,-5.138 -13.214,-5.107C-8.04,-10.338 -2.873,-15.575 1.748,-21.353" style="fill:rgb(14,132,124);fill-rule:nonzero;"/></g><g transform="matrix(3.23256,0,0,3.23256,464.716,486.176)"><path d="M0,105.043C-0.113,99.905 0.08,94.837 0.417,89.752C0.762,84.674 1.289,79.61 2.013,74.574C2.737,69.539 3.657,64.531 4.793,59.572C5.957,54.618 7.355,49.72 9.021,44.912C10.664,40.097 12.686,35.409 15.017,30.89C16.146,28.607 17.485,26.44 18.792,24.26L20.933,21.101C21.631,20.037 22.471,19.075 23.233,18.058C26.417,14.103 29.964,10.403 34.042,7.362C38.115,4.323 42.588,1.857 47.307,0C42.618,1.935 38.199,4.47 34.195,7.561C30.186,10.653 26.722,14.389 23.627,18.365C22.887,19.389 22.07,20.355 21.394,21.422L19.322,24.591C18.06,26.777 16.768,28.946 15.686,31.229C13.447,35.75 11.519,40.43 9.968,45.234C8.394,50.03 7.086,54.912 6.013,59.845C4.966,64.784 4.135,69.768 3.499,74.775C2.255,84.781 1.67,94.928 1.999,104.956L0,105.043Z" style="fill:rgb(14,132,124);fill-rule:nonzero;"/></g><g transform="matrix(-0.429726,-3.20387,-3.20387,0.429726,325.08,658.181)"><path d="M-36.963,-25.592C-36.963,-25.592 -50.729,-28.118 -46.756,-11.667C-42.784,4.785 -28.649,21.741 -36.963,38.747C-17.487,14.695 -12.834,3.463 -17.688,-14.977C-22.176,-32.032 -34.325,-28.929 -36.963,-25.592" style="fill:rgb(63,160,146);fill-rule:nonzero;"/></g><g transform="matrix(3.23256,0,0,3.23256,350.511,735.083)"><path d="M0,-8.659C-4.095,-8.442 -7.885,-7.621 -11.653,-6.078C-5.067,-6.476 3.207,-5.1 7.579,0C7.579,-4.716 3.659,-6.763 0,-8.659" style="fill:rgb(14,132,124);fill-rule:nonzero;"/></g><g transform="matrix(-1.6742,-2.76523,-2.76523,1.6742,215.634,733.351)"><path d="M-16.043,-27.755C-14.268,-24.824 -11.576,-21.284 -10.519,-17.919C-11.058,-10.618 -12.947,-1.92 -16.043,9.284C-15.761,2.816 -17.886,-2.595 -21.211,-7.457C-15.86,-12.596 -15.877,-21.189 -16.043,-27.755" style="fill:rgb(14,132,124);fill-rule:nonzero;"/></g><g transform="matrix(3.23256,0,0,3.23256,290.505,736.588)"><path d="M0,13.972C2.852,14.471 5.724,15.17 8.596,15.937C11.737,6.889 21.644,3.284 29.892,0.534C18.231,-1.965 5.19,3.866 0,13.972" style="fill:rgb(14,132,124);fill-rule:nonzero;"/></g><g transform="matrix(3.23256,0,0,3.23256,454.6,727.909)"><path d="M0,30.492C-1.396,25.82 -3.616,21.234 -6.368,17.112C-9.146,12.994 -12.559,9.247 -16.682,6.434C-18.737,5.027 -20.948,3.847 -23.267,2.914C-25.602,2.018 -28.039,1.407 -30.518,1.007C-35.497,0.339 -40.603,0.682 -45.538,1.768C-40.643,0.521 -35.527,0 -30.454,0.511C-27.928,0.833 -25.425,1.373 -23.005,2.211C-20.602,3.087 -18.292,4.222 -16.128,5.601C-11.789,8.357 -8.14,12.104 -5.137,16.255C-2.148,20.446 0.258,24.981 1.924,29.946L0,30.492Z" style="fill:rgb(14,132,124);fill-rule:nonzero;"/></g><g transform="matrix(0.860225,-0.177948,0.440683,0.624997,-1688.65,-110.576)"><ellipse cx="1283.4" cy="2205.15" rx="179.108" ry="57.923" style="fill:url(#_Linear7);"/></g><g transform="matrix(0.431226,-0.0892044,0.324441,0.460137,-808.971,113.077)"><ellipse cx="1283.4" cy="2205.15" rx="179.108" ry="57.923" style="fill:url(#_Linear8);"/></g><g transform="matrix(0.65553,0,0,0.65553,-430.051,-387.091)"><path d="M1213.81,1844.86L1272.13,2128.9C1272.13,2128.9 1357.5,2184.91 1480.74,2124.39L1512.58,1847.92C1512.58,1847.92 1304.04,1896.75 1213.81,1844.86Z" style="fill:rgb(236,97,152);"/></g><g transform="matrix(0.65553,0,0,0.65553,-430.051,-387.091)"><path d="M1320.05,1868.47C1306.61,1868.03 1293.36,1867.01 1280.65,1865.26C1279.54,1868.02 1278.34,1870.67 1277.03,1873.18L1243.64,1863.43C1251.57,1904.02 1263.24,1959.25 1301.21,1982.56C1306.49,1985.8 1314.23,1998.1 1320.16,1998.84C1322.12,1999.09 1319.03,1995.04 1318.67,1993.09C1317.89,1988.83 1317.07,1984.53 1316.4,1980.26C1314.56,1968.54 1313.57,1956.93 1312.89,1945.09C1311.36,1918.81 1313.22,1893.27 1320.05,1868.47ZM1497.43,1979.42L1512.58,1847.92C1512.58,1847.92 1466.34,1858.75 1407.97,1864.79C1410.51,1864.87 1413.04,1865.01 1415.58,1865.23C1416.29,1865.29 1414.26,1869.15 1414.15,1869.73C1413.45,1873.44 1413.58,1878.25 1413.9,1881.99C1414.55,1889.57 1421.53,1897.75 1426.6,1902.9C1458.17,1934.96 1479.06,1942.6 1497.43,1979.42Z" style="fill-opacity:0.21;"/></g><g transform="matrix(0.65553,0,0,0.65553,-430.051,-387.091)"><path d="M1484.22,2094.19L1480.74,2124.39C1357.5,2184.91 1272.13,2128.9 1272.13,2128.9L1213.81,1844.86C1224.6,1851.06 1237.07,1855.82 1250.66,1859.4C1260.61,1883.59 1275.12,1906.9 1286.59,1929.59C1316.55,1988.83 1355.9,2061.41 1422.91,2084.31C1443.02,2091.18 1463.54,2093.79 1484.22,2094.19Z" style="fill-opacity:0.16;"/></g><g transform="matrix(0.65553,0,0,1.04809,-422.605,-1197.89)"><ellipse cx="1359" cy="1924.58" rx="155.723" ry="34.759" style="fill:white;"/></g><g transform="matrix(0.601358,0,0,0.874651,-348.717,-865.055)"><ellipse cx="1359" cy="1924.58" rx="155.723" ry="34.759" style="fill:rgb(169,58,102);"/></g><g transform="matrix(0.65553,0,0,0.65553,-430.051,-387.091)"><path d="M1238.04,1855.94C1258.66,1838.55 1310.62,1826.2 1371.4,1826.2C1431.58,1826.2 1483.11,1838.31 1504.14,1855.42C1483.52,1872.8 1431.55,1885.15 1370.77,1885.15C1310.6,1885.15 1259.07,1873.05 1238.04,1855.94Z" style="fill:rgb(35,79,76);"/></g><g transform="matrix(-3.15067,0.723002,0.723002,3.15067,610.14,905.537)"><path d="M10.72,-56.93C10.72,-56.93 26.757,-50.262 19.99,-32.806C13.223,-15.351 4.08,-8.757 10.72,8.955C-8.551,-15.973 -15.689,-32.033 -12.545,-44.297C-9.4,-56.561 3.783,-64.059 10.72,-56.93" style="fill:rgb(63,160,146);fill-rule:nonzero;"/></g><g transform="matrix(3.23256,0,0,3.23256,551.993,799.544)"><path d="M0,-18.941C-4.995,-17.832 -9.368,-14.561 -12.104,-10.336C-12.93,-7.42 -13.035,-3.942 -11.587,0C-10.382,-7.469 -6.521,-14.866 0,-18.941" style="fill:rgb(14,132,124);fill-rule:nonzero;"/></g><g transform="matrix(-2.74909,1.70059,1.70059,2.74909,583.303,764.618)"><path d="M-10.059,-1.75C-7.359,-5.143 -3.528,-7.386 2.133,-7.359C-3.282,-4.01 -8.351,-0.116 -10.059,5.393C-10.159,4.781 -10.242,4.169 -10.288,3.558C-10.429,1.747 -10.336,-0.036 -10.059,-1.75" style="fill:rgb(14,132,124);fill-rule:nonzero;"/></g><g transform="matrix(3.23256,0,0,3.23256,590.783,908.032)"><path d="M0,-19.502C0,-14.735 -1.897,-10.601 -4.681,-6.594C-3.686,-4.58 -2.937,-2.428 -2.504,0C-0.938,-6.338 0.453,-12.716 0,-19.502" style="fill:rgb(14,132,124);fill-rule:nonzero;"/></g><g transform="matrix(3.23256,0,0,3.23256,577.853,867.858)"><path d="M0,-29.074C-0.873,-21.218 -4.034,-12.6 -10.811,-7.876C-8.464,-5.02 -6.271,-2.506 -4.379,0C0.394,-5.665 4.402,-12.869 2,-20.074C7.677,-18.453 11.38,-13.542 13.111,-8.01C13.778,-10.694 14.275,-13.22 14.595,-15.588C11.837,-21.996 7.23,-27.629 0,-29.074" style="fill:rgb(14,132,124);fill-rule:nonzero;"/></g><g transform="matrix(3.23256,0,0,3.23256,590.42,805.187)"><path d="M0,6.448C-0.376,2.657 -1.002,-1.12 -2.007,-4.812C-2.997,-8.503 -4.34,-12.127 -6.3,-15.467C-7.304,-17.118 -8.467,-18.7 -9.922,-20.041C-11.363,-21.364 -13.169,-22.498 -15.263,-22.703C-15.521,-22.725 -15.78,-22.756 -16.039,-22.768L-16.818,-22.71C-17.345,-22.707 -17.833,-22.507 -18.341,-22.403C-18.824,-22.229 -19.301,-22.027 -19.759,-21.802C-20.186,-21.531 -20.649,-21.298 -21.044,-20.988C-21.428,-20.672 -21.853,-20.369 -22.202,-20.038L-23.25,-19.043C-23.965,-18.395 -24.628,-17.696 -25.282,-16.987C-27.905,-14.16 -30.237,-11.047 -32.132,-7.673C-33.393,-5.418 -35.698,1.308 -36.582,3.749L-34.555,3.749C-33.799,1.639 -31.658,-4.851 -30.601,-6.825C-28.846,-10.119 -26.656,-13.18 -24.173,-15.977C-23.554,-16.678 -22.925,-17.371 -22.246,-18.016L-21.248,-19.005C-20.916,-19.334 -20.563,-19.587 -20.223,-19.885C-18.828,-20.996 -17.11,-21.627 -15.388,-21.459C-13.656,-21.338 -12.031,-20.399 -10.672,-19.202C-9.303,-17.996 -8.154,-16.515 -7.153,-14.945C-6.171,-13.356 -5.34,-11.669 -4.595,-9.943C-3.893,-8.198 -3.24,-6.428 -2.729,-4.61C-1.658,-0.988 -0.954,2.744 -0.497,6.504C0.409,14.028 0.297,21.674 -0.611,29.216C0.462,21.695 0.745,14.038 0,6.448" style="fill:rgb(14,132,124);fill-rule:nonzero;"/></g><g transform="matrix(-3.15961,-0.682907,-0.682907,3.15961,426.581,848.86)"><path d="M-3.168,-45.619C-3.168,-45.619 4.842,-54.572 14.977,-46.243C25.113,-37.914 13.96,-5.028 -3.168,11.391C-3.828,-3.416 -6.813,-19.307 -16.446,-29.709C-26.078,-40.111 -13.68,-50.338 -3.168,-45.619" style="fill:rgb(63,160,146);fill-rule:nonzero;"/></g><g transform="matrix(3.23256,0,0,3.23256,398.135,813.085)"><path d="M0,1.493C1.052,5.287 2.367,9.049 3.929,12.623C4.812,4.311 7.379,-3.087 10.596,-11.13C5.588,-8.626 1.289,-4.028 0,1.493" style="fill:rgb(14,132,124);fill-rule:nonzero;"/></g><g transform="matrix(-3.23218,0.0500123,0.0500123,3.23218,428.643,887.005)"><path d="M-0.052,-21.521C2.076,-16.103 2.814,-10.602 3.081,-5.451C2.108,-3.544 1.067,-1.713 -0.052,0.003C-0.868,-2.909 -1.804,-5.837 -2.853,-8.728C-1.691,-12.955 0.127,-17.169 -0.052,-21.521" style="fill:rgb(14,132,124);fill-rule:nonzero;"/></g><g transform="matrix(3.23256,0,0,3.23256,455.016,780.792)"><path d="M0,-18.14C-3.637,-23.596 -13.051,-23.252 -19.241,-19.388C-20.567,-14.921 -20.87,-9.109 -20.275,-2.786C-16.798,-8.474 -10.651,-12.553 -5,-11.14C0.095,-9.443 1.587,-1.261 3.757,5.456C5.157,3.496 6.674,1.652 8.33,-0.035C7.144,-6.872 4.373,-13.039 0,-18.14" style="fill:rgb(14,132,124);fill-rule:nonzero;"/></g><g transform="matrix(3.23256,0,0,3.23256,475.628,862.378)"><path d="M0,-48.622C-1.007,-48.485 -2.106,-48.064 -3.068,-47.53C-4.027,-46.962 -4.968,-46.331 -5.766,-45.528C-7.415,-43.981 -8.703,-42.063 -9.735,-40.028L-10.472,-38.476L-11.076,-36.864L-11.379,-36.058L-11.618,-35.228L-12.095,-33.568C-12.377,-32.451 -12.581,-31.314 -12.828,-30.187L-13.389,-26.757C-14.07,-22.172 -14.512,-17.55 -14.725,-12.915C-14.917,-8.282 -14.923,-3.628 -14.482,0.996C-15.006,-3.62 -15.084,-8.279 -14.974,-12.924C-14.845,-17.57 -14.485,-22.213 -13.884,-26.826L-13.383,-30.28C-13.153,-31.425 -12.967,-32.58 -12.701,-33.718L-12.247,-35.414L-12.019,-36.263L-11.725,-37.092L-11.136,-38.751L-10.408,-40.359C-9.383,-42.474 -8.083,-44.493 -6.371,-46.161C-4.65,-47.81 -2.611,-49.192 -0.085,-49.618L0,-48.622Z" style="fill:rgb(14,132,124);fill-rule:nonzero;"/></g></g></g></g></g></g></g><defs><linearGradient id="_Linear2" x1="0" y1="0" x2="1" y2="0.00631976" gradientUnits="userSpaceOnUse" gradientTransform="matrix(86.5677,-2915.61,2768.53,348.492,982.907,2719.31)"><stop offset="0" style="stop-color:black;stop-opacity:0"/><stop offset="0.56" style="stop-color:black;stop-opacity:0.2"/><stop offset="1" style="stop-color:black;stop-opacity:1"/></linearGradient><linearGradient id="_Linear3" x1="0" y1="0" x2="1" y2="0" gradientUnits="userSpaceOnUse" gradientTransform="matrix(1083.1,-424.647,507.041,1175.42,708.798,1739.3)"><stop offset="0" style="stop-color:black;stop-opacity:0"/><stop offset="0.65" style="stop-color:black;stop-opacity:0.14"/><stop offset="1" style="stop-color:black;stop-opacity:1"/></linearGradient><linearGradient id="_Linear4" x1="0" y1="0" x2="1" y2="0" gradientUnits="userSpaceOnUse" gradientTransform="matrix(280.949,-1762.98,1762.98,280.949,1804.88,1493.46)"><stop offset="0" style="stop-color:black;stop-opacity:0"/><stop offset="1" style="stop-color:black;stop-opacity:1"/></linearGradient><linearGradient id="_Linear5" x1="0" y1="0" x2="1" y2="0" gradientUnits="userSpaceOnUse" gradientTransform="matrix(650.261,-1080.01,-1080.02,-650.26,1341.99,1716.67)"><stop offset="0" style="stop-color:white;stop-opacity:0"/><stop offset="1" style="stop-color:white;stop-opacity:1"/></linearGradient><linearGradient id="_Linear7" x1="0" y1="0" x2="1" y2="0" gradientUnits="userSpaceOnUse" gradientTransform="matrix(421.14,-190.864,-1.93027,444.517,1184.13,2225.37)"><stop offset="0" style="stop-color:black;stop-opacity:0"/><stop offset="1" style="stop-color:black;stop-opacity:1"/></linearGradient><linearGradient id="_Linear8" x1="0" y1="0" x2="1" y2="0" gradientUnits="userSpaceOnUse" gradientTransform="matrix(646.799,-120.572,-113.137,499.212,1082.72,2282.15)"><stop offset="0" style="stop-color:black;stop-opacity:0"/><stop offset="0.44" style="stop-color:black;stop-opacity:0.3"/><stop offset="1" style="stop-color:black;stop-opacity:1"/></linearGradient></defs></svg>